<svg width="174" height="174" viewBox="0 0 174 174" fill="none" xmlns="http://www.w3.org/2000/svg">
<path d="M59.5886 152.598C58.642 152.598 57.7024 152.504 56.7941 152.316C42.8393 149.428 39.9997 137.39 39.6099 135.306L38.6146 134.311C36.5336 133.917 24.4997 131.06 21.6357 117.098C20.6857 112.474 22.2238 107.264 25.8569 102.81C30.193 97.4922 36.6971 94.1897 42.8324 94.1897C45.8495 94.1897 48.6892 94.9587 51.2714 96.4725C51.8769 96.8275 52.4789 97.0085 53.0566 97.0085C54.379 97.0085 55.4787 96.0828 56.2861 95.2754L95.3247 56.3029C96.6158 55.0118 97.7711 53.4075 96.5323 51.2882C93.3028 45.7585 93.5221 38.976 97.1343 32.6841C101.008 25.9364 107.95 21.402 114.412 21.402C115.359 21.402 116.299 21.4959 117.207 21.6839C131.162 24.5723 134.001 36.6131 134.391 38.6941L135.386 39.6894C137.467 40.0826 149.501 42.9397 152.365 56.9015C153.315 61.5264 151.777 66.7359 148.144 71.1903C143.808 76.5078 137.304 79.8103 131.169 79.8103C128.152 79.8103 125.312 79.0412 122.73 77.5274C122.124 77.1725 121.522 76.9915 120.944 76.9915C119.622 76.9915 118.522 77.9172 117.715 78.7245L78.6764 117.697C77.3853 118.988 76.2299 120.592 77.4688 122.712C80.6983 128.241 80.479 135.024 76.8668 141.316C72.9935 148.064 66.0509 152.598 59.5886 152.598Z" fill="#003E68"/>
<path d="M114.412 22.272C115.289 22.272 116.166 22.359 117.032 22.5365C131.819 25.5989 133.58 39.1117 133.58 39.1117L134.965 40.5002C134.965 40.5002 148.478 42.2855 151.512 57.0755C153.628 67.3902 142.503 78.9368 131.168 78.9368C128.454 78.9368 125.726 78.2756 123.168 76.7723C122.367 76.3025 121.623 76.118 120.941 76.118C119.214 76.118 117.892 77.3117 117.095 78.1051C115.982 79.2152 97.5758 97.5896 97.5758 97.5896C97.5758 97.5896 79.1701 115.964 78.0565 117.074C76.9429 118.184 75.0602 120.314 76.7132 123.143C83.9307 135.504 71.6359 151.721 59.5847 151.721C58.7077 151.721 57.8307 151.634 56.9642 151.457C42.1777 148.394 40.4168 134.881 40.4168 134.881L39.0318 133.493C39.0318 133.493 25.5189 131.708 22.4844 116.918C20.3685 106.603 31.4941 95.0527 42.8285 95.0562C45.5429 95.0562 48.2712 95.7174 50.829 97.2207C51.6294 97.6905 52.3741 97.875 53.0562 97.875C54.7823 97.875 56.1047 96.6814 56.9016 95.8879C58.0152 94.7778 76.4209 76.4034 76.4209 76.4034C76.4209 76.4034 94.8266 58.029 95.9402 56.9189C97.0538 55.8087 98.9365 53.679 97.2835 50.8497C90.066 38.4888 102.361 22.272 114.412 22.272ZM114.412 20.532C110.967 20.532 107.4 21.7047 104.097 23.9215C100.969 26.0234 98.2997 28.9049 96.3787 32.2491C92.6064 38.8194 92.3871 45.9186 95.7801 51.7267C96.5562 53.0595 96.2673 54.1314 94.7083 55.6869L75.189 75.1715L55.6697 94.656C54.9806 95.345 54.0584 96.135 53.0527 96.135C52.6247 96.135 52.1827 95.9993 51.7059 95.7174C48.9881 94.1235 45.9987 93.3162 42.825 93.3162C36.4357 93.3162 29.6775 96.7405 25.1779 102.256C21.3777 106.913 19.7769 112.387 20.7792 117.269C22.4739 125.52 27.2659 129.964 30.9895 132.24C34.0937 134.137 36.9647 134.867 38.1896 135.114L38.7986 135.727C39.0422 136.952 39.7695 139.823 41.6627 142.931C43.9316 146.658 48.3651 151.457 56.6162 153.165C57.5837 153.364 58.5824 153.468 59.5881 153.468C63.0333 153.468 66.6003 152.295 69.9029 150.078C73.0314 147.977 75.7005 145.095 77.6215 141.751C81.3938 135.181 81.6096 128.081 78.2201 122.277C77.4405 120.944 77.7329 119.872 79.2919 118.317L98.8112 98.832L118.331 79.3475C119.02 78.6584 119.942 77.8685 120.947 77.8685C121.376 77.8685 121.818 78.0042 122.294 78.2861C125.012 79.8799 128.001 80.6873 131.175 80.6873C137.564 80.6873 144.326 77.2629 148.826 71.7471C152.622 67.0909 154.227 61.6169 153.224 56.7344C151.53 48.4833 146.738 44.0394 143.014 41.7635C139.91 39.8669 137.039 39.1361 135.814 38.889L135.205 38.2765C134.961 37.0515 134.234 34.1805 132.341 31.0729C130.072 27.3458 125.639 22.5469 117.387 20.8382C116.42 20.6399 115.421 20.5355 114.416 20.5355L114.412 20.532Z" fill="#43A3DF"/>
</svg>
