<svg width="244" height="244" viewBox="0 0 244 244" fill="none" xmlns="http://www.w3.org/2000/svg">
<path d="M55.2854 117.337C55.2854 117.337 56.4883 120.887 55.2854 122.156C54.0825 123.425 51.6888 124.623 51.457 125.291C51.2252 125.96 51.2277 135.217 54.08 139.783C56.9324 144.348 59.9946 149.528 59.9946 149.528C59.9946 149.528 49.8613 148.406 45.4205 151.578C40.9797 154.747 38.7422 156.399 38.425 160.393C38.1078 164.388 38.5616 169.302 38.5616 169.302C38.5616 169.302 32.9643 173.884 33.9769 183.156C34.9895 192.428 36.251 195.075 39.8695 196.408C43.488 197.74 42.085 197.152 42.085 197.152C42.085 197.152 41.453 202.586 41.9947 204.57C42.5364 206.553 43.2025 211.043 49.1561 211.624C55.1097 212.204 64.4964 212.761 65.9311 212.819C67.3658 212.878 84.5215 213.429 87.4251 212.514C90.3287 211.599 139.229 182.732 139.229 182.732C139.229 182.732 140.254 180.162 142.166 178.291C144.079 176.419 146.593 174.406 146.593 174.406C146.593 174.406 144.053 169.141 145.18 165.686C146.307 162.231 152.634 158.929 152.634 158.929C152.634 158.929 151.092 156.968 151.741 154.662C152.39 152.354 155.913 146.295 155.913 146.295C155.913 146.295 150.299 147.583 148.493 146.061C146.685 144.538 144.011 127.861 144.011 127.861C144.011 127.861 137.321 132.953 132.799 130.462C128.276 127.971 126.175 122.324 126.175 122.324C126.175 122.324 123.098 126.275 118.342 124.469C113.587 122.664 110.954 114.926 110.954 114.926C110.954 114.926 108.829 117.242 103.407 116.956C97.9854 116.671 93.4153 112.855 93.4153 112.855C93.4153 112.855 91.6804 116.52 88.9501 117.337C86.2197 118.154 75.4056 112.64 73.6171 112.516C73.6171 112.516 74.2954 117.569 69.7814 119.926C65.2674 122.283 55.2805 117.337 55.2805 117.337H55.2854Z" fill="white"/>
<path d="M112.362 125.221C110.881 126.153 97.8757 139.79 98.2661 147.157C98.6565 154.523 114.39 146.612 121.734 149.318C129.078 152.024 136.911 163.109 141.191 162.463C143.809 162.067 147.474 143.409 145.602 138.329C144.014 134.015 138.338 129.825 133.031 127.519C132.089 127.11 131.16 126.761 130.267 126.48C124.34 124.621 113.841 124.286 112.362 125.219V125.221Z" fill="#514BDD"/>
<path d="M61.5392 120.592C68.1394 118.438 88.3206 122.691 91.1144 127.114C93.9058 131.538 96.9533 146.739 92.1294 151.219C87.3055 155.699 79.5634 146.171 70.677 144.98C65.8409 144.331 57.4546 145.151 57.4546 145.151L55.2854 141.32L52.5819 136.074C52.5819 136.074 57.5717 121.888 61.5367 120.592H61.5392Z" fill="#514BDD"/>
<path d="M114.734 131.699C113.641 132.221 104.034 139.878 104.317 144.016C104.6 148.154 116.222 143.716 121.644 145.236C127.065 146.759 132.846 152.986 136.006 152.625C137.94 152.402 140.651 141.925 139.27 139.07C138.099 136.647 133.91 134.293 129.991 132.997C129.296 132.768 128.61 132.57 127.951 132.414C123.576 131.367 115.824 131.177 114.731 131.702L114.734 131.699Z" fill="white"/>
<path d="M65.3675 127.102C70.3134 125.897 85.4365 128.276 87.53 130.747C89.6235 133.222 91.9049 141.718 88.2913 144.221C84.6776 146.727 78.8753 141.401 72.2166 140.734C65.5578 140.068 59.0162 141.591 57.9377 140.576C56.8592 139.561 60.4216 128.305 65.3675 127.102Z" fill="white"/>
<path d="M55.7393 183.156C63.4009 183.156 67.0804 180.328 69.9962 177.493C72.912 174.658 80.7761 160.835 69.9962 153.352C59.2163 145.868 46.155 151.321 42.7292 153.352C39.3035 155.382 37.7833 159.522 38.164 166.457C38.3421 169.714 39.6548 174.292 42.7292 177.493C46.2013 181.107 51.6767 183.156 55.7393 183.156Z" fill="#FC2233"/>
<path d="M64.1646 181.253C64.1646 181.253 67.5001 192.03 73.9685 192.284C80.437 192.538 105.635 183.917 120.075 174.404C133.917 165.285 137.467 171.405 137.467 175.314C137.467 182.729 118.825 192.411 88.894 204.84C78.563 209.13 63.9182 208.913 56.808 208.813C43.3173 208.625 41.8411 203.223 41.8411 203.223L42.0728 196.898C42.0728 196.898 36.8049 196.847 35.4556 193.233C34.1063 189.62 33.9794 186.577 33.9794 186.577C33.9794 186.577 37.0221 190.635 39.9403 190.381C42.8561 190.127 47.2969 189.746 48.5633 187.592C49.8296 185.437 51.2472 182.463 51.2472 182.463C51.2472 182.463 54.3948 183.534 56.8056 183.154C59.2163 182.773 64.1622 181.25 64.1622 181.25L64.1646 181.253Z" fill="#FC2233"/>
<path d="M57.2644 185.716C57.2644 185.716 54.7341 192.484 51.3962 194.192C48.0582 195.9 44.918 196.947 44.918 196.947C44.918 196.947 46.0306 204.865 57.7451 204.567C57.7451 204.567 67 206.427 75.5058 200.451C75.5058 200.451 65.9776 200.373 61.7735 196.901C57.5694 193.429 57.2644 185.716 57.2644 185.716Z" fill="#712E2F"/>
<path d="M44.918 196.947C44.918 196.947 52.2404 198.211 56.8056 196.901C56.8056 196.901 58.8357 199.697 64.1622 200.405C69.9548 201.173 75.5034 200.453 75.5034 200.453C75.5034 200.453 63.1057 199.285 60.2094 195.786C57.3132 192.287 57.2619 185.716 57.2619 185.716C57.2619 185.716 54.4096 192.282 52.9016 193.238C51.3937 194.195 44.918 196.95 44.918 196.95V196.947Z" fill="#411719"/>
<path d="M15.3524 139.673C15.3524 139.673 8.15197 144.565 8.82785 148.789C9.50373 153.012 13.2833 157.797 13.2833 157.797C13.2833 157.797 8.53261 161.613 9.69649 165.522C10.8604 169.431 17.6704 175.97 17.6704 175.97C17.6704 175.97 17.5753 178.437 18.6757 181.47C19.7761 184.503 27.6671 187.97 27.6671 187.97C27.6671 187.97 27.1815 190.403 28.6553 192.479C30.1291 194.556 32.1079 196.691 32.1079 196.691C32.1079 196.691 30.8123 205.841 35.1213 209.408C39.4328 212.975 40.521 214.22 45.9378 210.735C45.9378 210.735 41.2677 208.1 41.9997 204.567C42.7317 201.034 42.0753 196.898 42.0753 196.898C42.0753 196.898 35.6313 195.834 34.3625 191.142C33.0937 186.45 32.7496 174.845 38.5666 169.297C38.5666 169.297 36.007 159.986 40.5112 155.081C45.0155 150.177 57.7474 149.369 57.7474 149.369L27.6695 147.21L15.3573 139.668L15.3524 139.673Z" fill="#9842A9"/>
<path d="M16.8164 139.624C16.8164 139.624 13.2223 144.882 16.8164 147.215C20.4105 149.547 21.9331 149.528 21.9331 149.528C21.9331 149.528 21.1425 154.874 23.5679 155.381C25.9908 155.889 30.6829 152.639 30.6829 152.639C30.6829 152.639 29.541 157.665 33.345 157.792C37.1489 157.919 41.0651 154.662 41.0651 154.662C41.0651 154.662 44.6275 150.401 52.0524 149.53C59.4774 148.659 59.9971 149.53 59.9971 149.53C59.9971 149.53 51.3692 137.247 51.3961 132.997C51.4229 128.746 51.4595 125.291 51.4595 125.291L42.9854 106.049L25.9322 91.5388C25.9322 91.5388 23.7094 94.6352 24.4707 97.0459C25.232 99.4566 30.051 101.865 30.051 101.865C30.051 101.865 14.2642 113.279 14.3593 118.479C14.4545 123.679 18.8928 127.102 18.8928 127.102C18.8928 127.102 15.9404 130.071 16.0356 133.668C16.1308 137.264 16.8213 139.624 16.8213 139.624H16.8164Z" fill="#397EA9"/>
<path d="M27.6671 103.712C27.6671 103.712 23.5825 109.051 25.9908 111.989C28.3991 114.926 31.3173 113.911 31.3173 113.911C31.3173 113.911 27.5134 117.335 31.3173 118.477C35.1213 119.618 39.4328 119.365 39.4328 119.365C39.4328 119.365 38.4177 122.851 41.2091 124.533C44.0005 126.214 46.5039 126.777 46.5039 126.777C46.5039 126.777 54.8023 124.786 55.2855 122.154C55.7686 119.521 55.2855 117.335 55.2855 117.335C55.2855 117.335 60.9633 120.455 64.3379 120.353C67.7124 120.25 62.1321 106.047 62.1321 106.047L50.3371 73.4537L37.7028 69.557C37.7028 69.557 35.1189 71.6798 36.639 73.7074C38.1591 75.7351 43.6149 82.4719 43.6149 82.4719C43.6149 82.4719 22.9433 89.3064 23.5777 96.0261C24.2121 102.746 30.0461 101.86 30.0461 101.86L27.6622 103.707L27.6671 103.712Z" fill="#30A935"/>
<path d="M61.8589 119.809C61.3733 118.096 56.0443 113.65 56.8056 110.832C57.5669 108.014 57.7426 106.491 57.7426 106.491C57.7426 106.491 53.8752 106.491 52.582 103.258C51.2888 100.025 52.582 95.4576 52.582 95.4576C52.582 95.4576 47.9923 95.6479 46.5015 91.8439C45.0107 88.04 46.5015 83.2747 46.5015 83.2747L43.6174 82.4743C43.6174 82.4743 34.4821 75.147 36.7049 71.1308C38.9277 67.1145 49.0074 64.9259 49.0074 64.9259C49.0074 64.9259 43.4271 56.0809 46.5015 51.7059C49.5759 47.331 59.7531 46.9504 59.7531 46.9504C59.7531 46.9504 58.5112 41.9313 64.2574 38.7715C70.0036 35.6117 85.7196 36.1949 85.7196 36.1949C85.7196 36.1949 105.884 46.5722 102.841 57.0349C99.7984 67.4976 84.0092 102.975 84.0092 102.975L86.2979 117.337L72.9169 112.516C72.9169 112.516 73.2073 117.21 70.577 119.453C67.9467 121.695 61.8564 119.811 61.8564 119.811L61.8589 119.809Z" fill="#D18E00"/>
<path d="M189.517 193.484C189.078 193.384 188.732 193.306 188.466 193.245C188.851 193.333 189.285 193.431 189.517 193.484Z" fill="#C81824"/>
<path d="M188.28 193.204C188.234 193.194 188.192 193.185 188.151 193.175C188.192 193.185 188.236 193.194 188.28 193.204Z" fill="#C81824"/>
<path d="M189.686 193.524C189.659 193.519 189.637 193.514 189.612 193.507C189.659 193.517 189.686 193.524 189.686 193.524Z" fill="#C81824"/>
<path d="M188.126 193.17C187.482 193.024 187.685 193.07 188.126 193.17V193.17Z" fill="#C81824"/>
<path d="M82.8258 116.407C84.7314 117.232 86.7225 117.667 88.328 117.469C86.9616 117.547 85.1731 117.261 82.8258 116.407Z" fill="#C81824"/>
<path d="M92.493 114.204C93.0689 113.423 93.4227 112.855 93.4227 112.855C93.4227 112.855 97.0461 115.902 100.504 116.832C96.8436 115.183 92.6468 112.235 92.6468 112.235C92.6468 112.235 92.7541 113.145 92.4955 114.207L92.493 114.204Z" fill="#C81824"/>
<path d="M72.3069 111.989C72.3069 111.989 72.3703 112.016 72.4874 112.064C72.4191 112.025 72.3532 111.986 72.2947 111.95C72.302 111.972 72.3069 111.989 72.3069 111.989Z" fill="#C81824"/>
<path d="M96.6312 38.7717C96.6239 45.8721 100.04 45.8721 100.04 45.8721C100.04 45.8721 94.8573 48.3121 93.4226 52.2161C91.9879 56.1201 94.8891 57.3401 94.8891 57.3401C94.8891 57.3401 85.8025 56.6081 85.7244 63.9281C85.6829 67.7638 85.6854 69.1253 85.6951 69.5523C85.7122 69.5572 85.7244 69.5596 85.7244 69.5596C85.7244 69.5596 85.7073 69.9402 85.6951 69.5523C85.3779 69.4718 82.2694 68.8154 82.1303 73.4441C81.9839 78.3241 86.8737 77.1041 86.8737 77.1041C86.8737 77.1041 84.2019 82.9162 86.8737 87.3301C89.5455 91.7441 91.5097 95.1601 91.5097 95.1601C91.5097 95.1601 88.0937 100.284 96.6288 100.04C105.164 99.7961 105.405 98.1686 105.405 98.1686C105.405 98.1686 105.125 104.542 110.959 103.456C116.793 102.37 118.228 101.819 118.228 101.819C118.228 101.819 117.935 106.884 123.871 108.829C124.128 108.912 124.376 108.988 124.623 109.058C128.036 106.411 131.484 102.583 134.168 97.0438C142.284 80.3029 162.07 44.2861 162.07 44.2861L161.055 38.7692C161.055 38.7692 154.069 31.6322 151.919 31.9836C149.77 32.335 140.256 34.1406 140.256 34.1406C140.256 34.1406 141.83 24.2342 137.562 22.0284C133.292 19.8226 121.466 26.8254 121.466 26.8254C121.466 26.8254 119.143 22.6628 109.219 23.8364C107.594 24.0292 105.874 24.4904 104.129 25.1248L106.386 24.6416C106.386 24.6416 96.6385 31.6664 96.6337 38.7692L96.6312 38.7717Z" fill="#FE2233"/>
<path d="M82.8257 116.407C80.0783 115.219 73.6415 112.542 72.4874 112.062C73.7391 112.784 76.5476 114.124 82.8257 116.407Z" fill="#C81824"/>
<path d="M188.151 193.175C188.151 193.175 188.134 193.17 188.126 193.17C188.134 193.17 188.141 193.172 188.151 193.175Z" fill="#C81824"/>
<path d="M189.61 193.507C189.583 193.502 189.554 193.495 189.515 193.485C189.546 193.492 189.576 193.499 189.61 193.507Z" fill="#C81824"/>
<path d="M88.3279 117.469C91.1363 117.31 92.144 115.622 92.493 114.204C92.0123 114.858 91.3779 115.661 90.663 116.408C90.0822 117.015 89.2722 117.352 88.3279 117.469Z" fill="#C81824"/>
<path d="M188.466 193.245C188.402 193.231 188.339 193.216 188.28 193.204C188.336 193.216 188.4 193.231 188.466 193.245Z" fill="#C81824"/>
<path d="M110.961 114.926C110.961 114.926 117.72 114.414 124.625 109.058C124.379 108.988 124.13 108.914 123.874 108.829C117.937 106.882 118.23 101.819 118.23 101.819C118.23 101.819 116.795 102.37 110.961 103.456C105.127 104.542 105.408 98.1686 105.408 98.1686C105.408 98.1686 105.164 99.796 96.6313 100.04C88.0986 100.284 91.5122 95.16 91.5122 95.16C91.5122 95.16 89.548 91.744 86.8762 87.3301C84.2044 82.9161 86.8762 77.104 86.8762 77.104C86.8762 77.104 81.984 78.324 82.1328 73.444C82.2719 68.8129 85.3781 69.4717 85.6977 69.5522C85.6855 69.1252 85.6855 67.7637 85.727 63.928C85.8075 56.608 94.8916 57.34 94.8916 57.34C94.8916 57.34 91.9905 56.12 93.4252 52.216C94.8599 48.312 100.042 45.872 100.042 45.872C100.042 45.872 96.6265 45.872 96.6338 38.7716C96.6411 31.6712 106.386 24.644 106.386 24.644L104.129 25.1272C95.2186 28.3748 85.727 36.195 85.727 36.195C85.727 36.195 80.6542 37.9469 80.1467 41.7533C79.6392 45.5597 80.1467 47.2067 80.1467 47.2067C80.1467 47.2067 70.2549 52.1526 70.7625 57.606C71.27 63.0594 74.9471 66.7365 74.9471 66.7365C74.9471 66.7365 67.8442 72.3168 68.7324 75.4863C69.6205 78.6559 74.6933 83.2772 74.6933 83.2772C74.6933 83.2772 68.8593 85.8856 70.0012 89.8164C71.1431 93.7473 73.627 96.4118 73.627 96.4118C73.627 96.4118 69.7474 98.4418 70.1281 102.5C70.4916 106.367 72.1435 111.479 72.2972 111.95C72.3582 111.986 72.4217 112.023 72.49 112.064C73.6441 112.545 80.0808 115.219 82.8282 116.41C85.1755 117.264 86.9665 117.547 88.3305 117.471C89.2747 117.354 90.0848 117.018 90.6655 116.41C91.3804 115.663 92.0148 114.861 92.4955 114.207C92.7566 113.145 92.6468 112.235 92.6468 112.235C92.6468 112.235 96.846 115.183 100.504 116.832C100.996 116.964 101.484 117.054 101.958 117.086C105.762 117.34 110.961 114.929 110.961 114.929V114.926Z" fill="#C81824"/>
<path d="M85.7245 69.5593C85.7245 69.5593 85.7123 69.5569 85.6952 69.552C85.705 69.94 85.7245 69.5593 85.7245 69.5593Z" fill="#C81824"/>
<path d="M123.871 108.829C129.808 110.776 132.736 108.829 132.736 108.829C132.736 108.829 131.516 113.216 134.444 115.656C137.372 118.096 142.496 118.828 142.496 118.828C142.496 118.828 145.834 118.828 148.945 119.511C158.995 113.362 171.469 105 173.103 100.467C175.892 92.7297 192.88 71.8359 192.88 71.8359L189.337 71.1308C189.337 71.1308 192.748 67.1902 191.398 64.1646C190.049 61.139 178.43 60.6461 178.43 60.6461C178.43 60.6461 188.663 45.6694 180.916 40.4771C173.167 35.2823 160.803 39.34 160.803 39.34L154.208 43.6198C154.208 43.6198 156.997 49.1049 153.193 51.5132C149.389 53.9239 141.525 52.1476 141.525 52.1476C141.525 52.1476 137.721 58.4891 138.736 61.7856C139.751 65.082 143.23 66.9852 139.651 69.3959C136.071 71.8067 134.424 71.8067 134.424 71.8067C134.424 71.8067 136.962 81.1909 132.521 86.5174C128.083 91.8439 123.264 90.8289 123.264 90.8289C123.264 90.8289 126.18 96.5043 123.264 98.8663C121.512 100.284 119.533 101.262 118.23 101.816C118.23 101.816 117.937 106.882 123.874 108.826L123.871 108.829Z" fill="#FFBE00"/>
<path d="M127.731 125.758C128.378 126.987 129.132 128.163 129.803 128.527C130.069 128.671 130.425 128.725 130.825 128.717C129.693 127.795 128.627 126.734 127.731 125.758Z" fill="#FFBE00"/>
<path d="M111.14 115.571C111.576 117.061 112.801 120.777 114.663 122.668C112.416 119.821 111.264 115.492 111.264 115.492C111.264 115.492 111.22 115.522 111.14 115.571Z" fill="#FFBE00"/>
<path d="M188.151 193.175C188.151 193.175 188.134 193.17 188.126 193.17C188.134 193.17 188.141 193.172 188.151 193.175Z" fill="#D18E00"/>
<path d="M85.7245 69.5593C85.7245 69.5593 85.7123 69.5569 85.6952 69.552C85.705 69.94 85.7245 69.5593 85.7245 69.5593Z" fill="#D18E00"/>
<path d="M116.161 123.676C115.624 123.493 115.124 123.137 114.665 122.669C115.497 123.723 116.478 124.577 117.61 124.928C121.793 126.229 125.167 122.666 125.167 122.666C125.167 122.666 126.199 124.084 127.734 125.758C126.86 124.094 126.182 122.325 126.182 122.325C126.182 122.325 119.45 124.794 116.163 123.676H116.161Z" fill="#D18E00"/>
<path d="M188.466 193.245C188.402 193.231 188.339 193.216 188.28 193.204C188.336 193.216 188.4 193.231 188.466 193.245Z" fill="#D18E00"/>
<path d="M189.61 193.507C189.583 193.502 189.554 193.495 189.515 193.485C189.546 193.492 189.576 193.499 189.61 193.507Z" fill="#D18E00"/>
<path d="M148.945 119.511C145.834 118.828 142.496 118.828 142.496 118.828C142.496 118.828 137.372 118.096 134.444 115.656C131.516 113.216 132.736 108.829 132.736 108.829C132.736 108.829 129.808 110.776 123.871 108.829C117.935 106.882 118.228 101.819 118.228 101.819C117.362 102.187 116.793 102.37 116.793 102.37C116.793 102.37 118.062 106.918 116.793 108.829C115.524 110.739 110.959 114.926 110.959 114.926C110.959 114.926 111.02 115.17 111.137 115.571C111.218 115.522 111.262 115.492 111.262 115.492C111.262 115.492 112.413 119.821 114.66 122.669C115.122 123.137 115.622 123.496 116.156 123.676C119.445 124.794 126.175 122.324 126.175 122.324C126.175 122.324 126.851 124.091 127.727 125.758C128.622 126.734 129.686 127.795 130.821 128.717C132.792 128.676 135.94 127.102 135.94 127.102C135.94 127.102 141.835 123.859 148.94 119.514L148.945 119.511Z" fill="#D18E00"/>
<path d="M142.957 128.021C143.894 127.375 143.933 127.131 143.933 127.104C143.933 127.104 143.572 127.487 142.957 128.021Z" fill="#2EE148"/>
<path d="M156.16 145.907C156.216 145.892 156.258 145.882 156.279 145.878C156.333 145.792 156.365 145.746 156.365 145.746C156.365 145.746 156.294 145.809 156.162 145.909L156.16 145.907Z" fill="#2EE148"/>
<path d="M146.683 143.94C146.934 144.587 147.2 145.08 147.483 145.363C147.72 145.6 148.003 145.79 148.318 145.946C147.686 145.517 147.144 144.819 146.681 143.94H146.683Z" fill="#2EE148"/>
<path d="M134.815 130.976C132.609 130.408 130.215 128.356 128.361 126.431C129.259 128.046 132.358 132.767 137.145 131.067C136.379 131.186 135.593 131.176 134.812 130.976H134.815Z" fill="#2EE148"/>
<path d="M226.242 100.596C225.163 99.0102 219.773 98.4392 219.773 98.4392C219.773 98.4392 227.32 92.9224 225.48 90.1969C223.641 87.4714 207.788 88.2303 207.788 88.2303C207.788 88.2303 204.682 80.0514 202.334 78.1482C199.987 76.245 189.888 71.1307 189.888 71.1307C189.888 71.1307 190.476 73.9636 185.53 77.1331C180.584 80.3027 173.481 79.1632 173.481 79.1632C173.481 79.1632 174.497 85.6048 171.959 87.3299C169.421 89.055 160.481 89.5625 160.481 89.5625C160.481 89.5625 160.798 96.253 158.895 98.8687C156.992 101.484 150.653 100.977 150.653 100.977C150.653 100.977 153.569 107.755 149.384 110.834C145.199 113.914 138.792 113.026 138.792 113.026C138.792 113.026 141.749 114.834 139.88 118.25C141.374 118.669 142.493 118.83 142.493 118.83C142.493 118.83 154.447 118.83 154.203 123.466C153.959 128.102 152.505 128.017 155.916 132.209C159.327 136.398 166.159 138.968 166.159 138.968C166.159 138.968 164.236 141.508 162.975 144.541C172.945 142.41 191.345 137.904 198.843 132.304C209.369 124.442 222.938 106.496 222.938 106.496C222.938 106.496 227.313 102.185 226.234 100.599L226.242 100.596Z" fill="#2EE148"/>
<path d="M85.7245 69.5593C85.7245 69.5593 85.7123 69.5569 85.6952 69.552C85.705 69.94 85.7245 69.5593 85.7245 69.5593Z" fill="#D18E00"/>
<path d="M143.933 127.104C143.933 127.209 143.945 138.743 146.683 143.94C144.907 139.365 143.933 127.102 143.933 127.102C143.933 127.102 143.933 127.102 143.933 127.104Z" fill="#D18E00"/>
<path d="M137.147 131.067C139.539 130.698 141.744 129.076 142.957 128.022C142.137 128.588 140.629 129.464 137.845 130.779C137.609 130.891 137.374 130.986 137.147 131.067Z" fill="#D18E00"/>
<path d="M188.151 193.175C188.151 193.175 188.134 193.17 188.126 193.17C188.134 193.17 188.141 193.172 188.151 193.175Z" fill="#D18E00"/>
<path d="M188.466 193.245C188.402 193.231 188.339 193.216 188.28 193.204C188.336 193.216 188.4 193.231 188.466 193.245Z" fill="#D18E00"/>
<path d="M189.61 193.506C189.583 193.502 189.554 193.494 189.515 193.484C189.546 193.492 189.576 193.499 189.61 193.506Z" fill="#D18E00"/>
<path d="M148.32 145.946C148.379 145.985 148.44 146.024 148.498 146.061C152.405 148.344 155.379 146.492 156.157 145.907C155.316 146.119 150.789 147.166 148.318 145.946H148.32Z" fill="#D18E00"/>
<path d="M155.921 132.206C152.51 128.017 153.964 128.1 154.208 123.464C154.452 118.828 142.498 118.828 142.498 118.828C142.498 118.828 141.378 118.667 139.885 118.247C139.431 119.076 138.697 119.999 137.562 121.014C131.76 126.213 128.093 125.911 128.093 125.911C128.093 125.911 128.185 126.111 128.364 126.433C130.215 128.358 132.612 130.413 134.817 130.979C135.596 131.179 136.381 131.186 137.15 131.069C137.379 130.989 137.611 130.893 137.848 130.781C140.629 129.466 142.137 128.59 142.96 128.024C143.574 127.49 143.936 127.104 143.936 127.104C143.936 127.104 144.909 139.367 146.685 143.942C147.149 144.821 147.691 145.519 148.323 145.948C150.794 147.168 155.318 146.121 156.162 145.909C156.294 145.809 156.365 145.746 156.365 145.746C156.365 145.746 156.336 145.792 156.28 145.877C156.292 145.875 156.302 145.873 156.302 145.873C156.302 145.873 158.956 145.399 162.982 144.54C164.246 141.507 166.166 138.967 166.166 138.967C166.166 138.967 159.334 136.398 155.923 132.209L155.921 132.206Z" fill="#31A835"/>
<path d="M151.717 153.929C151.758 153.8 151.805 153.671 151.861 153.542C151.797 153.654 151.751 153.783 151.717 153.929Z" fill="#43A7E3"/>
<path d="M156.211 145.868H156.282C156.333 145.79 156.362 145.743 156.362 145.743C156.362 145.743 156.311 145.79 156.211 145.868Z" fill="#43A7E3"/>
<path d="M234.884 128.622C234.967 124.628 229.643 120.948 229.643 120.948C229.643 120.948 237.083 110.866 234.235 108.072C231.385 105.278 222.943 106.491 222.943 106.491C222.943 106.491 226.874 102.497 226.239 100.594C225.605 98.6905 220.962 98.871 220.962 98.871C220.962 98.871 222.118 102.116 220.025 104.017C217.931 105.92 216.411 104.017 216.411 104.017C216.411 104.017 216.221 106.679 215.079 108.963C213.937 111.247 206.329 110.829 206.329 110.829C206.329 110.829 202.906 117.903 198.528 120.187C194.153 122.471 189.588 120.187 189.588 120.187C189.588 120.187 186.355 124.752 182.929 126.775C179.503 128.798 177.222 126.775 177.222 126.775C177.222 126.775 175.319 128.556 173.037 130.65C170.756 132.743 163.336 132.204 163.336 132.204C163.336 132.204 162.648 133.561 162.206 137.091C164.393 138.297 166.162 138.96 166.162 138.96C166.162 138.96 160.901 145.907 162.067 150.543C163.234 155.179 166.162 156.518 166.162 156.518C166.162 156.518 160.413 159.412 162.067 164.129C163.722 168.843 168.602 169.651 168.602 169.651C168.602 169.651 164.785 175.777 166.047 179.006C172.032 179.235 179.711 178.659 188.636 177.493C205.758 175.258 220.025 161.403 220.025 161.403C220.025 161.403 220.793 161.672 221.803 157.856C222.811 154.039 228.016 154.874 229.299 150.25C230.582 145.626 227.957 143.245 227.957 143.245C227.957 143.245 230.043 141.303 230.436 139.97C230.829 138.638 230.436 137.181 230.436 137.181C230.436 137.181 234.799 132.616 234.882 128.622H234.884Z" fill="#43A7E3"/>
<path d="M156.282 145.87C155.762 146.688 152.837 151.319 151.861 153.544C152.622 152.212 156.299 145.87 156.299 145.87H156.282Z" fill="#D18E00"/>
<path d="M188.466 193.245C188.402 193.231 188.339 193.216 188.28 193.204C188.336 193.216 188.4 193.231 188.466 193.245Z" fill="#D18E00"/>
<path d="M85.7245 69.5593C85.7245 69.5593 85.7123 69.5569 85.6952 69.552C85.705 69.94 85.7245 69.5593 85.7245 69.5593Z" fill="#D18E00"/>
<path d="M188.151 193.175C188.151 193.175 188.134 193.17 188.126 193.17C188.134 193.17 188.141 193.172 188.151 193.175Z" fill="#D18E00"/>
<path d="M189.61 193.506C189.583 193.502 189.554 193.494 189.515 193.484C189.546 193.492 189.576 193.499 189.61 193.506Z" fill="#D18E00"/>
<path d="M151.717 153.929C150.977 156.289 152.639 158.927 152.639 158.927C152.639 158.927 151.346 155.523 151.717 153.929Z" fill="#D18E00"/>
<path d="M168.604 169.653C168.604 169.653 163.724 168.848 162.07 164.131C160.415 159.417 166.164 156.521 166.164 156.521C166.164 156.521 163.236 155.181 162.07 150.545C160.903 145.909 166.164 138.963 166.164 138.963C166.164 138.963 164.395 138.296 162.209 137.094C162.131 137.711 162.062 138.394 162.006 139.148C161.625 144.221 152.114 145.743 152.114 145.743L156.211 145.868C156.311 145.79 156.362 145.743 156.362 145.743C156.362 145.743 156.333 145.787 156.282 145.87H156.299C156.299 145.87 152.622 152.212 151.861 153.544C151.804 153.671 151.758 153.803 151.717 153.932C151.346 155.525 152.639 158.929 152.639 158.929L148.269 161.747C148.269 161.747 149.45 172.503 154.205 176.155C156.482 177.905 160.552 178.796 166.049 179.008C164.788 175.78 168.604 169.653 168.604 169.653Z" fill="#397EA9"/>
<path d="M178.691 203.083C180.504 202.388 181.409 198.945 181.409 198.945C181.409 198.945 179.706 202.6 178.691 203.083Z" fill="#C159E5"/>
<path d="M175.702 201.988C175.702 201.988 176.654 203.701 178.554 203.13C177.564 203.315 175.702 201.988 175.702 201.988Z" fill="#C159E5"/>
<path d="M138.419 184.498C137.487 189.165 148.591 196.044 149.055 196.329C149.003 196.176 148.977 196.09 148.977 196.09C148.977 196.09 138.326 189.385 138.419 184.498Z" fill="#C159E5"/>
<path d="M222.684 156.831C222.813 156.645 222.879 156.523 222.879 156.523C222.879 156.523 222.804 156.638 222.684 156.831Z" fill="#C159E5"/>
<path d="M145.473 172.437C145.646 173.042 145.814 173.557 145.934 173.908C146.144 173.738 146.263 173.645 146.263 173.645C146.263 173.645 145.878 173.208 145.473 172.437Z" fill="#C159E5"/>
<path d="M189.686 193.523C189.659 193.518 189.637 193.514 189.612 193.506C189.659 193.516 189.686 193.523 189.686 193.523Z" fill="#C159E5"/>
<path d="M155.269 207.138C156.214 208.173 157.253 209.078 158.378 209.735C157.233 209.022 156.199 208.129 155.269 207.138Z" fill="#C159E5"/>
<path d="M198.238 191.43C198.238 191.43 197.982 191.623 197.528 191.896C197.801 191.752 198.043 191.598 198.238 191.43Z" fill="#C159E5"/>
<path d="M188.126 193.17C187.482 193.023 187.685 193.07 188.126 193.17V193.17Z" fill="#C159E5"/>
<path d="M222.684 156.831C222.162 157.592 220.622 159.459 218.504 158.807C215.867 157.995 216.221 158.807 216.221 158.807C216.221 158.807 213.083 163.372 209.371 164.563C205.66 165.754 203.093 164.134 203.093 164.134C203.093 164.134 194.819 173.074 189.398 173.276C183.976 173.479 184.218 168.538 184.218 168.538C184.218 168.538 177.412 175.072 170.278 175.316C168.416 175.38 167.142 175.131 166.269 174.731C165.534 177.129 165.41 179.667 167.626 180.587C172.262 182.512 173.97 180.587 173.97 180.587C173.97 180.587 170.112 185.928 175.58 187.392C181.048 188.856 182.022 185.715 182.022 185.715C182.022 185.715 180.558 191.54 184.218 191.54C187.878 191.54 194.71 187.148 194.71 187.148L198.235 191.43C200.224 189.717 199.121 186.106 199.121 186.106C199.121 186.106 200.544 186.386 201.478 186.106C202.413 185.825 202.564 184.266 202.564 184.266C202.564 184.266 205.853 186.677 207.661 184.966C209.469 183.256 206.844 180.77 206.844 180.77C206.844 180.77 214.415 178.212 215.989 175.319C217.563 172.425 212.988 169.658 212.988 169.658C212.988 169.658 220.881 166.134 221.672 164.565C222.46 162.997 220.876 162.145 220.595 161.301C220.361 160.6 222.091 157.775 222.684 156.836V156.831Z" fill="#C159E5"/>
<path d="M189.517 193.484C189.078 193.384 188.732 193.306 188.466 193.245C188.851 193.333 189.285 193.431 189.517 193.484Z" fill="#C159E5"/>
<path d="M188.28 193.204C188.234 193.194 188.192 193.184 188.151 193.175C188.192 193.184 188.236 193.194 188.28 193.204Z" fill="#C159E5"/>
<path d="M188.817 200.224C185.982 202.612 181.409 198.945 181.409 198.945C181.409 198.945 185.076 204.13 188.734 200.468C192.389 196.803 189.686 193.523 189.686 193.523C189.686 193.523 191.652 197.837 188.817 200.224Z" fill="#D18E00"/>
<path d="M144.997 166.342C146.027 163.941 152.641 158.929 152.641 158.929C152.641 158.929 147.078 161.066 145.187 165.685C143.977 168.638 144.755 171.068 145.475 172.437C144.941 170.568 144.36 167.83 144.997 166.342Z" fill="#D18E00"/>
<path d="M178.691 203.083C178.647 203.1 178.601 203.117 178.557 203.132C178.601 203.125 178.644 203.105 178.691 203.083Z" fill="#D18E00"/>
<path d="M146.112 174.406C146.112 174.406 146.041 174.221 145.934 173.908C144.455 175.111 138.497 180.218 138.416 184.5C139.368 179.732 146.112 174.406 146.112 174.406Z" fill="#D18E00"/>
<path d="M85.7245 69.5593C85.7245 69.5593 85.7123 69.5569 85.6952 69.552C85.705 69.94 85.7245 69.5593 85.7245 69.5593Z" fill="#D18E00"/>
<path d="M197.528 191.896C195.019 193.214 189.686 193.524 189.686 193.524C193.014 194.28 196.164 192.721 197.528 191.896Z" fill="#D18E00"/>
<path d="M160.754 210.684C159.925 210.504 159.132 210.174 158.378 209.735C159.796 210.618 161.377 211.223 163.129 211.379C172.567 212.221 175.704 201.988 175.704 201.988C175.704 201.988 171.754 213.063 160.757 210.684H160.754Z" fill="#D18E00"/>
<path d="M149.055 196.329C149.465 197.537 151.49 203.118 155.269 207.139C151.346 202.842 149.072 196.339 149.072 196.339C149.072 196.339 149.064 196.334 149.055 196.329Z" fill="#D18E00"/>
<path d="M188.466 193.245C188.402 193.231 188.339 193.216 188.28 193.204C188.336 193.216 188.4 193.231 188.466 193.245Z" fill="#D18E00"/>
<path d="M184.22 191.54C180.56 191.54 182.024 185.715 182.024 185.715C182.024 185.715 181.048 188.856 175.582 187.392C170.117 185.928 173.972 180.586 173.972 180.586C173.972 180.586 172.264 182.512 167.628 180.586C165.412 179.667 165.537 177.129 166.271 174.73C163.797 173.596 164.573 171.234 164.573 171.234C164.573 171.234 159.722 173.928 155.918 172.217C152.114 170.504 152.588 161.747 152.588 161.747L152.639 158.929C152.639 158.929 146.027 163.943 144.994 166.342C144.355 167.828 144.938 170.568 145.473 172.437C145.878 173.208 146.263 173.645 146.263 173.645C146.263 173.645 146.144 173.737 145.934 173.908C146.041 174.22 146.112 174.406 146.112 174.406C146.112 174.406 139.368 179.732 138.416 184.5C138.324 189.387 148.974 196.093 148.974 196.093C148.974 196.093 149.001 196.178 149.052 196.332C149.062 196.337 149.069 196.341 149.069 196.341C149.069 196.341 151.346 202.844 155.267 207.141C156.197 208.129 157.231 209.022 158.375 209.737C159.129 210.176 159.922 210.506 160.752 210.686C171.749 213.068 175.699 201.99 175.699 201.99C175.699 201.99 177.561 203.317 178.552 203.132C178.598 203.117 178.642 203.1 178.686 203.083C179.701 202.603 181.404 198.945 181.404 198.945C181.404 198.945 185.977 202.612 188.812 200.224C191.647 197.835 189.681 193.523 189.681 193.523C189.681 193.523 189.651 193.516 189.607 193.506C189.576 193.499 189.544 193.492 189.512 193.484C189.28 193.431 188.846 193.333 188.461 193.245C188.392 193.23 188.331 193.216 188.275 193.204C188.231 193.194 188.187 193.184 188.146 193.174C188.139 193.174 188.129 193.172 188.121 193.169C187.477 193.023 187.68 193.069 188.121 193.169C188.129 193.169 188.139 193.172 188.146 193.174C188.185 193.184 188.229 193.194 188.275 193.204C188.336 193.218 188.397 193.23 188.461 193.245C188.724 193.306 189.073 193.384 189.512 193.484C189.549 193.494 189.581 193.499 189.607 193.506C189.632 193.511 189.656 193.516 189.681 193.523C189.681 193.523 195.014 193.213 197.523 191.896C197.977 191.623 198.233 191.43 198.233 191.43L194.707 187.148C194.707 187.148 187.875 191.54 184.215 191.54H184.22Z" fill="#9842A9"/>
<path d="M188.151 193.175C188.151 193.175 188.134 193.17 188.126 193.17C188.134 193.17 188.141 193.172 188.151 193.175Z" fill="#D18E00"/>
<path d="M189.61 193.506C189.583 193.502 189.554 193.494 189.515 193.484C189.546 193.492 189.576 193.499 189.61 193.506Z" fill="#D18E00"/>
<path d="M52.0524 149.528C52.0524 149.528 43.893 157.646 46.821 164.346C49.749 171.046 55.5977 172.098 59.9092 172.437C67.7465 173.052 74.5712 169.302 74.5712 169.302C74.5712 169.302 71.7237 182.419 58.2695 183.156C44.8154 183.893 40.2599 174.841 39.3668 171.234C38.4738 167.628 36.5828 157.458 42.7316 153.351C48.8804 149.245 52.0524 149.528 52.0524 149.528Z" fill="#C81824"/>
<path d="M45.6426 210.098C45.3938 210.311 45.7402 210.035 45.5694 210.159C45.3474 210.323 45.1205 210.479 44.8862 210.626C44.1811 211.07 43.4369 211.44 42.6341 211.675C40.2283 212.382 38.0884 211.48 36.6244 209.469C34.3503 206.348 32.1958 201.027 33.4451 197.176C33.5768 196.766 33.428 196.286 33.1303 195.99C32.1006 194.958 31.0368 193.892 30.1901 192.701C29.3434 191.511 29.6972 189.722 29.8729 188.292C29.9364 187.763 29.4459 187.255 28.9774 187.116C26.8278 186.479 24.7026 185.555 22.814 184.349C21.6867 183.629 20.3813 182.673 19.9153 181.36C19.4126 179.94 19.581 178.139 19.437 176.631C19.2931 175.124 17.7754 174.606 16.6969 173.772C14.4253 172.013 11.4948 169.533 10.9678 166.542C10.6116 164.522 12.0414 162.24 13.1101 160.618C13.2712 160.371 13.4395 160.132 13.6323 159.91C13.7006 159.832 14.1788 159.315 14.0007 159.517C14.069 159.439 14.191 159.395 14.2813 159.346C13.93 159.547 14.03 159.434 14.1398 159.417C15.311 159.234 15.1524 157.739 14.4302 157.187C14.9206 157.563 14.4277 157.182 14.3204 157.089C14.0934 156.892 13.8665 156.697 13.6469 156.492C12.9613 155.85 12.3074 155.159 11.7486 154.405C10.3822 152.566 9.61116 150.497 10.4359 148.262C11.6071 145.085 14.2838 142.252 16.7726 140.022C17.9438 138.972 16.2138 137.252 15.0475 138.297C12.1073 140.929 8.82304 144.484 7.83728 148.401C6.75148 152.712 9.95764 156.821 13.1955 159.3L13.4859 157.07C12.1878 157.272 11.1484 159.093 10.5823 160.071C9.06948 162.687 7.81288 165.468 8.99628 168.443C10.5042 172.227 14.1813 175.267 17.568 177.371L16.9629 176.317C17.0434 177.293 17.1264 178.266 17.2069 179.242C17.3094 180.467 17.3216 181.675 17.8779 182.797C18.3122 183.671 18.9783 184.435 19.7079 185.076C22.104 187.182 25.2833 188.578 28.3235 189.478L27.428 188.302C27.2133 190.073 26.9327 192.199 27.9575 193.768C28.9042 195.219 30.1804 196.503 31.4004 197.725L31.0856 196.539C30.5903 198.062 30.6635 199.843 30.8611 201.402C31.3272 205.072 32.901 209.069 35.3971 211.828C38.6911 215.466 43.8712 214.808 47.3604 211.836C48.5584 210.816 46.8236 209.098 45.6353 210.111L45.6426 210.098Z" fill="#381B09"/>
<path d="M20.3228 143.36C20.1398 143.143 20.3106 143.355 20.2008 143.206C20.0105 142.952 19.8299 142.691 19.6543 142.428C19.0662 141.542 18.5392 140.603 18.1219 139.624C16.9288 136.813 16.736 133.805 18.2488 131.079C20.3862 127.229 23.7266 123.73 27.3671 121.241C28.6554 120.36 27.4378 118.245 26.1349 119.136C21.9283 122.01 17.7364 126.19 15.6258 130.865C13.5152 135.54 15.4013 141.266 18.5953 145.085C19.603 146.29 21.3232 144.558 20.3204 143.36H20.3228Z" fill="#381B09"/>
<path d="M19.7518 126.238C18.4976 125.209 17.407 123.898 16.6115 122.488C15.2964 120.158 15.2964 117.811 16.7921 115.597C19.52 111.562 23.7314 108.336 27.5232 105.357C28.5553 104.544 29.5996 103.746 30.6659 102.98C31.4443 102.421 31.4906 100.987 30.3756 100.75C29.0628 100.472 27.7355 99.8399 26.7692 98.8956C25.0442 97.2145 25.1174 94.4524 26.5984 92.6273C28.2015 90.6509 30.6928 89.3869 32.9546 88.3329C35.3922 87.1958 37.9444 86.3028 40.5186 85.522C41.9241 85.095 43.3393 84.6924 44.7716 84.3654C45.6158 84.1727 46.0159 82.9087 45.3108 82.3256C42.8781 80.3175 40.482 77.9336 38.8619 75.213C38.0128 73.7856 37.2222 72.0532 38.4105 70.6063C39.894 68.8007 42.3364 67.8515 44.5056 67.1805C45.5621 66.8535 46.6357 66.59 47.7191 66.3753C48.0851 66.3021 48.4511 66.2387 48.8171 66.1777C49.0708 66.1362 49.3783 66.0996 49.0123 66.1459C49.8492 66.041 50.6373 65.1651 50.0664 64.3111C47.7898 60.9097 45.8451 55.5027 48.5438 51.8451C50.1615 49.654 52.8236 48.5657 55.4466 48.1973C56.3957 48.0631 57.3644 48.0289 58.3209 48.0607C58.6381 48.0704 58.9553 48.0924 59.2725 48.1168C59.4238 48.129 60.0386 48.2144 59.4335 48.1265C60.4681 48.2778 61.3489 47.3457 60.8121 46.3356C60.7096 46.1428 60.9097 46.643 60.8414 46.4039C60.7926 46.2331 60.7365 46.0696 60.7072 45.8939C60.6438 45.4987 60.7292 44.7618 60.8829 44.2469C61.3001 42.8415 62.525 41.0432 63.5474 40.4454C65.5262 39.2889 68.176 38.9375 70.4623 38.5983C76.6672 37.6785 83.0063 37.5052 89.2698 37.432C90.7826 37.4149 92.2979 37.4052 93.8107 37.4247C95.3235 37.4442 95.382 35.0067 93.8107 34.9847C89.1503 34.9213 84.4752 35.0384 79.8222 35.297C76.2842 35.4922 72.7437 35.7801 69.2423 36.334C66.8535 36.7122 64.05 37.1295 62.0126 38.5373C59.5555 40.2356 57.1277 44.5934 58.7064 47.5702L60.085 45.7793C56.7105 45.2888 52.9529 45.7793 49.9639 47.458C47.6605 48.7536 45.7695 50.8959 45.118 53.4921C44.4958 55.9736 44.9131 58.6283 45.7549 61.0049C46.3136 62.5762 47.0261 64.1574 47.9582 65.5482L49.0123 63.7133C44.9204 64.2281 40.1282 65.4579 37.1148 68.4225C33.1303 72.346 37.0197 77.4261 39.9818 80.6225C41.1067 81.8352 42.3047 83.0039 43.5833 84.058L44.1225 82.0182C39.7183 83.0234 35.3214 84.4923 31.254 86.4541C28.7212 87.6765 26.0519 89.2113 24.3805 91.539C22.7091 93.8668 22.5358 97.3853 24.2975 99.7618C25.559 101.463 27.6598 102.673 29.7265 103.11L29.4362 100.879C26.1812 103.219 23.0312 105.752 20.0788 108.46C18.0975 110.278 16.1211 112.213 14.6254 114.463C13.0125 116.893 12.7466 119.709 13.8714 122.41C14.7498 124.521 16.2577 126.514 18.0292 127.968C19.2321 128.959 20.9694 127.241 19.7542 126.243L19.7518 126.238Z" fill="#381B09"/>
<path d="M85.9197 37.0562C89.3113 33.9232 93.1958 31.1978 97.2267 28.9652C100.379 27.2181 103.802 25.7151 107.397 25.2051C110.649 24.744 114.621 24.8025 117.752 25.9396C118.484 26.2055 118.999 26.4959 119.362 26.9058C119.555 27.123 119.187 26.7082 119.406 26.9717C119.592 27.1962 119.333 27.0302 119.399 26.9058C119.421 26.8643 119.516 27.7671 119.414 26.7838C119.575 28.3308 122.017 28.3454 121.854 26.7838C121.739 25.6785 120.909 24.8684 119.999 24.3096C117.362 22.6919 113.745 22.609 110.764 22.5968C102.7 22.5626 95.4138 26.6447 89.1015 31.3417C87.4154 32.5959 85.7416 33.8988 84.1971 35.3287C83.0405 36.3974 84.7705 38.1201 85.9222 37.0538L85.9197 37.0562Z" fill="#381B09"/>
<path d="M115.253 32.5253C118.987 29.6729 123.022 27.0768 127.234 24.9979C129.659 23.7998 132.724 22.3041 135.52 22.6286C138.316 22.9532 139.178 25.8958 139.18 28.3626C139.18 30.505 138.78 32.7058 138.097 34.7359C137.718 35.8608 139.004 36.4903 139.888 36.1145C139.409 36.3195 139.814 36.1438 139.951 36.0901C140.217 35.9852 140.483 35.8778 140.749 35.7754C141.603 35.4484 142.467 35.1434 143.34 34.8628C145.48 34.1772 147.774 33.5037 150.043 33.5574C152.312 33.6111 154.362 35.2068 156.07 36.5244C157.312 37.4834 158.51 38.5228 159.622 39.6306C160.735 40.7383 162.463 39.0157 161.347 37.9055C160.049 36.6123 158.637 35.424 157.175 34.3187C155.164 32.7986 152.881 31.2614 150.289 31.1247C146.38 30.9149 142.208 32.4911 138.658 34.0039L140.449 35.3825C141.937 30.9588 143.001 23.3362 137.887 20.8255C135.103 19.4591 131.775 20.4448 129.066 21.5209C125.694 22.8629 122.525 24.6758 119.477 26.6327C117.618 27.8258 115.78 29.0727 114.021 30.4147C112.789 31.3541 114.004 33.4744 115.253 32.5204V32.5253Z" fill="#381B09"/>
<path d="M154.823 44.6739C159.622 41.0798 166.023 38.203 172.088 38.386C176.041 38.5056 180.897 40.4405 182.227 44.5226C183.305 47.8312 181.944 51.44 180.355 54.3485C179.245 56.3786 177.92 58.3574 176.361 60.0703C175.712 60.7828 176.102 62.2565 177.225 62.154C180.499 61.8539 184.059 61.8417 187.241 62.7348C189.134 63.2667 191.003 64.3793 190.562 66.6827C190.288 68.1076 188.993 69.252 187.739 69.8669C186.56 70.4452 187.255 72.0507 188.353 72.141C188.873 72.1824 188.778 72.18 189.3 72.2654C190.205 72.4118 191.103 72.6094 191.989 72.8534C194.527 73.5464 197.042 74.6249 199.07 76.3329C201.639 78.4996 203.32 81.8009 204.731 84.7997C205.289 85.988 205.86 87.2592 206.107 88.5573C206.236 89.2429 207.002 89.5211 207.607 89.4088C210.987 88.7866 214.5 88.4572 217.934 88.5914C219.651 88.6573 222.133 88.7427 223.45 89.9774C224.031 90.5215 224.051 91.2876 223.877 92.1758C223.636 93.4129 222.87 94.4304 221.93 95.238C220.62 96.3653 218.91 97.1876 217.231 97.6121C215.913 97.9464 216.165 100.064 217.555 100.008C218.48 99.9716 219.41 99.9911 220.332 100.047C221.659 100.128 223.402 100.184 224.544 100.952C224.931 101.214 224.88 101.265 224.653 101.838C224.282 102.778 223.555 103.588 222.86 104.3C221.901 105.283 220.835 106.191 219.698 106.962C218.605 107.702 219.246 109.617 220.637 109.192C223.475 108.324 226.542 107.723 229.514 107.799C230.922 107.836 233.081 108.007 233.757 109.497C234.765 111.723 233.215 114.641 231.929 116.4C231.215 117.379 230.365 118.269 229.472 119.087C229.155 119.377 228.826 119.658 228.491 119.931C228.206 120.163 228.55 119.897 228.289 120.087C227.545 120.626 227.467 121.671 228.289 122.193C230.263 123.452 233.118 125.64 233.408 128.132C233.625 129.986 232.312 132.189 231.437 133.731C230.817 134.82 230.141 135.886 229.384 136.886C228.438 138.138 230.556 139.356 231.49 138.119C232.425 136.881 233.215 135.6 233.928 134.261C234.97 132.302 236.163 129.845 235.772 127.563C235.226 124.372 232.112 121.746 229.516 120.092V122.198C233.33 119.435 237.141 114.675 236.314 109.688C235.487 104.7 228.44 105.154 224.644 105.779C223.075 106.037 221.506 106.377 219.986 106.843L220.925 109.073C222.472 108.026 223.963 106.784 225.188 105.374C226.413 103.963 228.206 101.377 226.598 99.5348C225.373 98.1343 223.141 97.8805 221.408 97.6975C220.132 97.5633 218.834 97.5194 217.55 97.5731L217.875 99.9692C219.717 99.5007 221.54 98.6052 223.045 97.4535C225.271 95.7504 227.174 92.6784 226.166 89.7822C225.385 87.5398 222.801 86.7322 220.681 86.4101C217.929 85.9904 215.118 86.0929 212.356 86.3442C210.55 86.5101 208.74 86.7297 206.956 87.0567L208.457 87.9082C208.171 86.4076 207.476 84.9363 206.834 83.5675C205.292 80.2832 203.406 76.7428 200.556 74.4102C197.198 71.6603 192.672 70.0523 188.351 69.701C188.556 70.4598 188.761 71.2162 188.966 71.975C192.26 70.3622 194.461 66.0922 191.996 62.8202C189.678 59.7409 184.493 59.6116 181.011 59.5823C179.75 59.5701 178.479 59.5994 177.222 59.714L178.086 61.7978C182.007 57.4888 186.006 50.9618 184.845 44.9179C183.971 40.3746 179.709 37.3466 175.412 36.3681C170.737 35.3018 165.852 36.3803 161.506 38.1932C158.742 39.3474 155.997 40.7699 153.588 42.573C152.346 43.5027 153.561 45.623 154.821 44.6788L154.823 44.6739Z" fill="#381B09"/>
<path d="M226.139 134.051C227.449 135.132 229.15 136.869 229.214 138.663C229.267 140.158 227.608 141.827 226.671 142.869C226.032 143.579 225.353 144.272 224.617 144.88C223.404 145.88 225.139 147.598 226.342 146.605C227.305 145.809 228.177 144.885 228.974 143.926C230.199 142.454 231.7 140.685 231.654 138.663C231.597 136.186 229.699 133.839 227.864 132.326C226.661 131.335 224.926 133.051 226.139 134.051Z" fill="#381B09"/>
<path d="M226.783 144.47C228.279 146.068 228.955 148.528 227.828 150.499C227.086 151.795 226.066 152.92 224.792 153.701C223.887 154.255 222.94 154.718 222.184 155.482C221.174 156.504 220.532 157.839 220.015 159.164C219.727 159.901 219.185 160.996 219.302 161.823C219.419 162.651 220.266 163.104 220.422 164.01C220.639 165.278 219.175 165.932 218.241 166.425C216.323 167.438 214.254 168.204 212.187 168.856C211.282 169.141 210.877 170.629 211.897 171.086C212.746 171.466 213.573 171.984 214.237 172.635C215.735 174.104 214.732 175.336 213.297 176.432C210.682 178.435 207.249 179.655 204.008 180.175C202.72 180.382 202.984 182.175 204.008 182.527C204.577 182.722 205.128 182.968 205.655 183.256C206.031 183.461 206.412 183.876 206.78 184.04C206.839 184.066 206.907 184.218 206.905 184.218C206.6 183.844 207.29 184.091 206.729 184.142C206.285 184.184 205.97 184.318 205.494 184.22C204.923 184.103 204.382 183.866 203.867 183.598C203.25 183.276 202.647 182.907 202.093 182.483C201.08 181.709 199.851 183.176 200.424 184.152C200.514 184.306 200.88 185.008 200.719 185.145C200.534 185.304 200.007 184.891 199.865 184.764C198.994 183.983 197.467 184.728 197.825 185.95C198.296 187.561 198.435 189.9 196.893 190.964C194.976 192.289 191.945 192.431 189.681 192.301C188.566 192.238 188.151 193.648 188.817 194.385C188.854 194.427 188.895 194.468 188.927 194.512C188.744 194.249 189.059 194.705 189.085 194.749C189.337 195.156 189.561 195.564 189.676 196.032C190.096 197.726 188.871 199.063 187.453 199.824C185.494 200.878 183.427 199.88 182.456 198.326C181.973 197.552 180.824 197.521 180.35 198.326C179.745 199.353 179.111 200.371 178.423 201.344C178.254 201.581 178.025 201.81 177.878 202.057C177.674 202.403 177.659 202.042 177.925 202.147C177.815 202.103 177.676 202.069 177.586 201.988C177.256 201.686 176.871 201.459 176.561 201.122C175.873 200.378 174.85 200.871 174.521 201.661C174.736 201.144 174.592 201.503 174.528 201.632C174.411 201.869 174.301 202.11 174.182 202.344C173.816 203.059 173.411 203.752 172.969 204.421C171.742 206.283 170.18 208.01 168.218 209.106C163.077 211.98 157.973 208.344 154.867 204.272C153.459 202.425 152.28 200.395 151.265 198.309C150.755 197.264 150.607 196.225 149.928 195.347C149.638 194.971 149.091 194.729 148.698 194.473C147.893 193.948 147.108 193.399 146.339 192.824C144.324 191.316 142.237 189.564 140.895 187.407C140.239 186.35 139.841 185.26 140.112 184.01C140.451 182.449 141.405 181.036 142.423 179.831C143.806 178.191 145.439 176.676 147.205 175.453C147.698 175.112 148.064 174.343 147.642 173.784C147.081 173.04 146.788 172.071 146.563 171.183C146.049 169.163 145.705 166.869 146.856 165.022C148.171 162.912 150.585 161.34 152.817 160.33C154.245 159.684 153.008 157.58 151.585 158.224C148.847 159.464 145.91 161.54 144.487 164.244C143.321 166.462 143.577 169.014 144.104 171.388C144.372 172.601 144.77 174.004 145.534 175.017L145.971 173.348C142.652 175.644 139.009 178.974 137.86 182.959C136.455 187.836 141.069 191.828 144.511 194.48C145.741 195.43 147.015 196.34 148.347 197.138L147.786 196.408C149.479 201.01 152.205 205.695 155.875 208.979C158.488 211.319 161.833 212.934 165.415 212.522C168.682 212.146 171.471 210.192 173.538 207.713C174.894 206.085 176.053 204.265 176.868 202.305L174.828 202.845C175.97 204.079 177.983 205.387 179.469 203.921C180.692 202.713 181.585 201.024 182.451 199.553H180.345C182.227 202.569 185.926 203.65 189.007 201.735C190.964 200.517 192.445 198.536 192.162 196.144C192.011 194.863 191.406 193.609 190.537 192.653L189.673 194.737C192.582 194.902 196.566 194.566 198.823 192.541C200.778 190.786 200.863 187.668 200.17 185.299C199.49 185.694 198.811 186.089 198.13 186.485C199.268 187.502 201.056 188.114 202.33 186.96C203.496 185.901 203.247 184.149 202.52 182.915L200.851 184.584C202.866 186.123 206.973 188.132 208.881 185.387C210.723 182.737 206.58 180.831 204.645 180.165V182.517C208.681 181.87 213.561 180.114 216.299 176.969C219.068 173.787 216.25 170.371 213.114 168.968C213.017 169.712 212.919 170.454 212.824 171.198C215.33 170.41 217.912 169.473 220.171 168.124C221.584 167.282 222.879 166.118 222.884 164.344C222.889 163.034 222.216 161.743 221.352 160.786L221.667 161.972C222.052 160.32 222.689 158.424 223.899 157.195C224.448 156.636 225.151 156.304 225.817 155.911C226.732 155.37 227.576 154.723 228.291 153.932C230.109 151.919 231.28 149.518 230.663 146.776C230.331 145.302 229.533 143.841 228.499 142.735C227.464 141.63 225.7 143.314 226.774 144.46L226.783 144.47Z" fill="#381B09"/>
<path d="M157.226 163.27C155.355 161.384 153.395 158.802 152.978 156.123C152.646 153.986 153.888 151.714 154.93 149.933C155.606 148.776 156.358 147.632 157.224 146.607C157.983 145.712 157.28 144.238 156.038 144.567C154.403 145.002 152.7 145.309 151.009 145.363C150.175 145.39 149.028 145.458 148.347 144.882C148.555 145.058 148.237 144.675 148.154 144.497C148.113 144.406 147.952 143.94 147.874 143.684C146.59 139.558 146.132 135.103 145.595 130.833C145.439 129.591 145.287 128.346 145.156 127.102C145.058 126.177 143.816 125.333 143.072 126.238C140.054 129.91 134.532 131.201 130.794 127.788C128.007 125.24 126.614 120.807 126.385 117.337C126.282 115.778 123.84 115.766 123.945 117.337C124.162 120.612 125.155 124.071 126.9 126.853C129.896 131.635 135.635 133.673 140.8 131.077C142.276 130.335 143.743 129.252 144.799 127.966L142.716 127.102C143.106 130.772 143.589 134.437 144.192 138.077C144.56 140.297 144.912 142.586 145.648 144.721C146.339 146.72 147.598 147.603 149.743 147.778C152.034 147.966 154.476 147.508 156.687 146.922L155.501 144.882C154.462 146.11 153.537 147.461 152.737 148.855C151.492 151.019 150.241 153.627 150.543 156.189C150.936 159.508 153.195 162.675 155.504 164.998C156.611 166.113 158.336 164.388 157.229 163.272L157.226 163.27Z" fill="#381B09"/>
<path d="M125.565 121.273C122.844 123.274 118.245 124.499 115.7 121.732C113.933 119.814 112.821 117.096 112.138 114.602C111.886 113.685 110.769 113.455 110.098 114.063C107.875 116.083 103.978 116.669 100.96 115.72C97.9416 114.77 95.1186 112.862 92.8006 110.766C91.9417 109.991 90.3752 110.73 90.7607 111.952C91.1243 113.102 90.9925 114.7 89.7579 115.529C87.64 116.952 84.7778 115.837 82.6502 115.049C79.7636 113.977 76.9967 112.606 74.1541 111.423C72.0069 110.527 69.4644 109.381 67.0781 109.646C65.536 109.82 65.5165 112.262 67.0781 112.086C69.0276 111.869 71.0724 112.787 72.8365 113.499C75.3716 114.524 77.8336 115.717 80.3614 116.757C84.041 118.269 90.2166 120.436 92.7322 115.81C93.4545 114.483 93.5667 112.74 93.1129 111.301L91.073 112.487C93.8498 114.997 97.3121 117.313 100.962 118.255C104.613 119.197 108.985 118.36 111.823 115.783L109.783 115.244C110.627 118.326 112.091 121.778 114.487 123.964C117.798 126.988 123.44 125.838 126.795 123.371C128.046 122.452 126.831 120.331 125.562 121.266L125.565 121.273Z" fill="#381B09"/>
<path d="M71.1285 112.313C72.1923 114.995 71.9264 118.198 68.6909 118.977C64.5234 119.977 59.5434 118.34 55.9029 116.283C54.7488 115.632 53.7825 116.891 54.2339 117.952C54.0631 117.547 54.1949 117.845 54.2486 118.057C54.3096 118.296 54.3779 118.533 54.4096 118.779C54.5194 119.621 54.3925 120.494 54.0509 121.268C53.3043 122.959 51.6988 123.874 50.0859 124.601C47.9436 125.57 45.6012 126.233 43.2954 126.685C41.7558 126.985 42.4072 129.337 43.9444 129.037C46.8993 128.459 49.9566 127.548 52.5869 126.07C55.8907 124.215 57.9037 120.402 56.3396 116.717L54.6707 118.386C59.0236 120.846 65.331 122.861 70.2257 121.056C74.1248 119.616 74.8885 115.2 73.4831 111.659C72.9121 110.217 70.5502 110.847 71.1309 112.308L71.1285 112.313Z" fill="#381B09"/>
<path d="M50.2835 124.967C49.9882 127.151 49.9297 129.391 50.1712 131.582C50.4787 134.368 51.4864 136.718 52.7674 139.173C54.7072 142.891 56.8056 146.537 58.9455 150.145C59.7458 151.495 61.8564 150.27 61.0512 148.913C59.0553 145.543 57.1008 142.142 55.2635 138.682C54.0484 136.396 52.9114 134.198 52.6112 131.582C52.4551 130.225 52.4404 128.847 52.5014 127.483C52.5234 126.98 52.5576 126.475 52.6064 125.975C52.6234 125.809 52.7259 124.962 52.6381 125.616C52.8455 124.081 50.4958 123.415 50.2859 124.967H50.2835Z" fill="#381B09"/>
<path d="M55.7394 184.376C60.0875 184.344 64.4112 183.427 67.9711 180.821C70.1793 179.206 71.9727 177.329 73.3587 174.97C76.8527 169.021 78.468 160.984 73.7954 155.194C67.9126 147.908 56.9716 147.161 48.6024 149.611C45.9233 150.394 42.927 151.431 40.7676 153.271C37.7591 155.836 36.9807 160.032 36.8977 163.792C36.7831 169.046 38.1446 174.47 41.8705 178.354C45.367 182.005 50.6886 184.313 55.7419 184.374C57.3132 184.393 57.3132 181.953 55.7419 181.934C51.7207 181.885 47.5313 180.172 44.5276 177.52C41.524 174.868 39.6745 170.685 39.3963 166.601C39.1596 163.131 39.206 158.788 41.5411 155.95C43.0319 154.14 45.5231 153.215 47.6777 152.466C55.0587 149.904 64.1574 149.811 70.3892 155.182C75.5864 159.659 74.8519 166.74 72.0167 172.342C70.8625 174.624 69.4669 176.478 67.5051 178.115C64.155 180.911 60.0387 181.904 55.7443 181.936C54.1754 181.948 54.1705 184.388 55.7443 184.376H55.7394Z" fill="#381B09"/>
<path d="M127.339 176.441C117.508 181.126 107.731 185.926 97.9782 190.769C93.7619 192.863 89.6114 195.095 85.1145 196.537C81.6375 197.652 78.0263 198.377 74.3688 198.467C70.0231 198.575 64.9455 197.913 61.3806 195.181C61.2245 195.061 60.8658 194.741 60.6535 194.524C60.3558 194.222 60.4242 194.322 60.2704 194.051C59.6214 192.919 59.4774 191.474 59.3774 190.198C59.192 187.866 59.253 185.484 59.4896 183.156C59.6385 181.707 57.5303 181.622 57.0936 182.832C54.7414 189.349 49.9297 196.937 42.0754 195.678C39.8574 195.322 37.659 194.48 36.4268 192.492C35.3678 190.781 34.9603 188.698 34.7554 186.721C34.4601 183.869 34.4113 180.904 35.0506 178.096C35.6972 175.251 37.0636 172.037 39.428 170.163C40.6577 169.187 38.9204 167.472 37.7029 168.438C35.4142 170.254 33.9136 173.318 33.0766 176.032C32.1421 179.062 32.0104 182.256 32.208 185.401C32.3666 187.939 32.7399 190.523 33.8404 192.838C36.5097 198.453 44.2689 199.424 49.4002 196.942C54.6462 194.407 57.5596 188.702 59.4433 183.481L57.0472 183.156C56.8349 185.243 56.7764 187.365 56.8862 189.459C57.0033 191.704 57.2082 194.329 58.7747 196.083C61.5636 199.207 66.4778 200.341 70.4404 200.756C78.2264 201.569 86.093 199.314 93.0445 195.942C101.06 192.053 109.007 188.019 117.02 184.12C120.863 182.251 124.711 180.384 128.568 178.547C129.986 177.871 128.749 175.768 127.336 176.441H127.339Z" fill="#381B09"/>
<path d="M124.84 175.582C125.709 175.831 126.556 177.205 126.834 177.988C127.112 178.771 127.112 179.74 127.022 180.589C126.856 182.148 129.298 182.139 129.462 180.589C129.749 177.859 128.439 174.072 125.492 173.23C123.979 172.798 123.332 175.153 124.843 175.582H124.84Z" fill="#381B09"/>
<path d="M40.9481 196.583C40.3845 200.241 40.099 204.462 41.7972 207.864C44.0762 212.422 49.1612 212.997 53.7044 213.324C60.4681 213.81 67.244 214.181 74.0248 214.283C77.187 214.332 80.359 214.334 83.5164 214.144C85.4391 214.029 87.5033 213.929 89.3431 213.312C91.9173 212.448 94.3548 210.992 96.7265 209.698C100.333 207.729 103.893 205.672 107.438 203.594C112.479 200.636 117.484 197.623 122.454 194.549C128.251 190.962 134.049 187.375 139.849 183.788C141.181 182.963 139.958 180.853 138.616 181.682C129.215 187.497 119.855 193.385 110.354 199.038C104.012 202.81 97.661 206.683 91.0316 209.93C90.058 210.406 89.3284 210.787 88.35 211.07C86.398 211.633 84.2703 211.685 82.2573 211.772C75.8889 212.046 69.4888 211.794 63.1277 211.472C59.5507 211.292 55.9785 211.058 52.4064 210.794C49.8858 210.606 47.0798 210.279 45.1815 208.422C43.5321 206.81 43.0831 204.518 43.0148 202.296C42.9782 201.095 43.0319 199.892 43.1392 198.694C43.1856 198.167 43.2661 197.474 43.3027 197.235C43.5394 195.698 41.1897 195.037 40.9506 196.586L40.9481 196.583Z" fill="#381B09"/>
<path d="M65.6921 128.278C67.8393 127.783 70.1915 127.973 72.368 128.142C75.2301 128.366 78.0824 128.793 80.8811 129.435C82.6086 129.83 85.1267 130.269 86.4541 131.394C87.901 132.619 88.5525 135.652 88.8306 137.509C89.1283 139.5 89.2503 143.091 86.6566 143.614C85.422 143.862 84.0751 143.37 82.9307 142.957C81.3642 142.394 79.8514 141.693 78.2996 141.093C74.503 139.622 70.7185 139.244 66.6632 139.37C64.804 139.429 62.9544 139.592 61.0976 139.68C60.4778 139.71 59.841 139.756 59.2212 139.7C59.2042 139.7 58.7479 139.602 58.7137 139.627C58.7723 139.588 58.9626 140.002 58.9821 140.012C58.9602 140.002 58.9602 140.041 58.965 139.756C58.9675 139.59 58.9748 139.422 58.9943 139.261C59.048 138.785 59.1724 138.299 59.292 137.836C59.6312 136.533 60.0972 135.259 60.6706 134.041C61.6759 131.904 63.2131 128.954 65.6921 128.281C67.2049 127.871 66.5632 125.516 65.0431 125.928C62.3152 126.668 60.4559 129.242 59.1724 131.604C57.889 133.966 56.7934 136.608 56.5543 139.263C56.4836 140.059 56.5177 140.947 57.1594 141.513C58.0866 142.33 59.6482 142.184 60.7877 142.14C65.3798 141.962 70.1524 141.222 74.6616 142.445C78.2337 143.414 81.5472 145.646 85.2536 146.061C88.4036 146.415 90.7387 144.338 91.2487 141.291C91.7708 138.165 90.9998 134.766 89.6675 131.928C88.6183 129.696 87.086 128.756 84.8046 127.985C81.5082 126.873 77.9995 126.314 74.5518 125.919C71.4652 125.562 68.1053 125.221 65.0406 125.928C63.5108 126.282 64.1598 128.634 65.6897 128.281L65.6921 128.278Z" fill="#381B09"/>
<path d="M114.119 130.645C112.059 131.699 110.181 133.656 108.543 135.249C106.462 137.274 103.824 139.871 103.21 142.833C102.59 145.817 104.981 147 107.582 147.051C111.083 147.122 114.543 146.232 118.04 146.134C119.75 146.085 121.3 146.278 122.881 146.971C124.872 147.842 126.69 149.089 128.483 150.302C130.047 151.358 131.606 152.495 133.344 153.254C134.451 153.739 135.913 154.218 137.023 153.498C138.031 152.844 138.563 151.546 138.995 150.485C139.609 148.977 140.046 147.395 140.363 145.8C140.942 142.901 141.481 139.551 139.414 137.126C137.743 135.166 135.293 133.851 132.968 132.841C130.642 131.831 128.149 131.106 125.589 130.747C123.313 130.428 121.017 130.245 118.718 130.206C117.408 130.184 115.656 130.008 114.409 130.523C112.979 131.116 113.606 133.478 115.058 132.875C115.915 132.521 117.071 132.638 117.998 132.638C119.76 132.638 121.524 132.738 123.276 132.909C127.305 133.302 131.213 134.359 134.708 136.457C136.02 137.245 137.836 138.402 138.28 139.905C138.607 141.005 138.433 142.335 138.294 143.452C137.989 145.907 137.435 148.999 135.993 151.08C135.92 151.185 135.815 151.278 135.771 151.38C135.72 151.497 135.603 151.458 135.771 151.434C135.532 151.468 134.81 151.243 134.427 151.085C132.899 150.445 131.511 149.413 130.147 148.491C127.283 146.556 124.196 144.284 120.678 143.818C117.628 143.413 114.509 143.994 111.481 144.343C110.117 144.502 108.734 144.665 107.358 144.609C106.713 144.585 105.681 144.458 105.559 144.07C105.274 143.165 106.23 141.774 106.726 141.037C107.624 139.697 108.734 138.502 109.873 137.367C111.469 135.774 113.311 133.797 115.351 132.755C116.749 132.041 115.517 129.935 114.119 130.65V130.645Z" fill="#381B09"/>
<path d="M75.0642 199.08C75.0373 199.128 75.0032 199.172 74.9739 199.216C74.8665 199.385 74.9446 199.255 75.0276 199.153C74.9617 199.236 74.8958 199.321 74.8202 199.397C74.3444 199.885 73.9881 200.212 73.5221 200.529C71.3773 201.993 68.769 202.686 66.2265 203.047C61.8345 203.669 57.0253 203.518 52.7187 202.432C50.6251 201.905 48.1559 200.988 47.0627 199.124C46.8309 198.728 46.8724 198.78 46.7333 198.323C46.6894 198.182 46.665 198.03 46.6406 197.884C46.6992 198.25 46.6406 197.835 46.6406 197.745C46.6406 197.616 46.6723 197.045 46.6479 197.291C46.6235 197.538 46.6479 197.301 46.6699 197.223C47.0823 195.705 44.7277 195.059 44.3177 196.574C43.3271 200.226 47.0335 202.993 49.9541 204.121C54.3657 205.824 59.597 206.021 64.2599 205.687C67.5929 205.448 71.0406 204.799 73.9735 203.12C75.1471 202.447 76.4721 201.517 77.1675 200.309C77.9507 198.945 75.845 197.716 75.0617 199.077L75.0642 199.08Z" fill="#381B09"/>
<path d="M84.8365 162.548C83.758 162.548 82.111 164.515 82.9333 165.718C83.7556 166.92 86.7373 166.796 86.8641 165.718C86.991 164.639 85.9125 162.548 84.8341 162.548H84.8365Z" fill="#381B09"/>
<path d="M82.172 173.645C81.2204 173.645 79.2562 176.588 80.0785 177.495C80.9008 178.403 83.6921 178.591 84.2631 177.769C84.834 176.946 83.1212 173.648 82.1696 173.648L82.172 173.645Z" fill="#381B09"/>
<path d="M91.8099 171.234C90.7949 171.234 89.1479 173.96 89.7164 174.848C90.2849 175.736 92.9494 175.229 93.3301 174.404C93.7107 173.579 92.8225 171.234 91.8075 171.234H91.8099Z" fill="#381B09"/>
<path d="M79.8686 127.971C79.8686 127.971 75.7498 131.382 75.5058 134.837C75.2618 138.292 77.2431 141.564 77.6872 142.157C78.9145 142.447 85.4732 146.217 87.9328 144.441C91.2878 142.494 90.6216 134.932 87.5302 130.747C86.1662 129.179 79.8686 127.971 79.8686 127.971Z" fill="#381B09"/>
<path d="M129.996 132.997C129.996 132.997 124.372 136.518 123.962 140.356C123.552 144.194 124.728 146.524 124.728 146.524C127.79 147.884 133.124 152.888 136.011 152.627C138.797 151.058 140.488 140.595 139.275 139.073C138.063 137.55 137.611 136.608 134.852 135.13C131.519 133.261 129.998 133 129.998 133L129.996 132.997Z" fill="#381B09"/>
<path d="M68.0029 158.163C69.5254 160.952 69.24 163.819 68.0029 164.178C66.7658 164.536 67.1952 161.421 65.0554 159.234C62.9155 157.048 61.3051 156.738 61.959 155.469C62.6129 154.201 66.4803 155.374 68.0029 158.163Z" fill="#EDB4BB"/>
<path d="M126.724 147.686C126.724 147.686 123.789 147.603 121.488 149.794C119.187 151.985 113.426 164.346 113.426 164.346C113.426 164.346 117.005 151.836 116.517 148.437C116.168 146.012 114.731 145.17 114.731 145.17C114.731 145.17 119.238 144.75 121.253 145.138C123.271 145.526 126.724 147.686 126.724 147.686Z" fill="#381B09"/>
<path d="M66.6707 140.59C66.6707 140.59 68.3835 140.366 71.8337 140.7C75.2839 141.032 77.6873 142.157 77.6873 142.157C77.6873 142.157 74.913 142.542 73.8345 144.665C72.756 146.788 70.6698 153.913 70.6698 153.913C70.6698 153.913 69.4913 153.056 68.9106 152.654C68.9106 152.654 69.6182 146.154 68.6349 143.396C67.6515 140.639 66.6707 140.588 66.6707 140.588V140.59Z" fill="#381B09"/>
</svg>
