<svg width="159" height="40" viewBox="0 0 159 40" fill="none" xmlns="http://www.w3.org/2000/svg">
<g clip-path="url(#clip0_521_338)">
<path fill-rule="evenodd" clip-rule="evenodd" d="M9.32353 0.5H27.9049L37.2285 10.0042H18.6471L18.5814 10.0716V10.0042L9.32429 0.500787L18.5814 10.0716H0L9.32353 0.5ZM18.5813 29.1475H37.1627L27.9049 38.6516L9.25787 38.6517L0 29.1474V10.0716L18.5157 10.0716L9.29059 19.5422L9.32353 19.5758V19.6433L18.5813 29.1475ZM27.9049 19.5759L27.8392 19.5758L18.5814 10.0716L37.1627 10.0716L27.9049 19.5759ZM27.9049 19.5759H27.9706L37.2285 29.0801H18.6471L27.9049 19.5759ZM49.0473 22.6765C48.7846 22.9461 48.3907 23.0809 47.931 23.0809L47.8654 23.1483C47.2088 23.1483 46.6835 22.8787 46.4209 22.3395C46.1583 21.7328 46.0269 20.9239 46.0269 19.9129V19.6432C45.9613 18.8344 46.0926 18.0255 46.4209 17.284C46.6835 16.6774 47.1431 16.4078 47.8654 16.4078C48.3907 16.4078 48.719 16.61 48.9816 16.947C49.2442 17.3514 49.3755 17.8907 49.3755 18.3625L52.7898 18.2951C52.8555 17.0144 52.3958 15.6663 51.4766 14.79C50.5574 13.9138 49.3755 13.5093 47.8654 13.5093C46.0926 13.5093 44.7138 14.0486 43.7289 15.1945C42.744 16.3404 42.2844 17.8233 42.2844 19.6432V19.9129C42.1531 21.5306 42.744 23.0809 43.7289 24.3616C44.7138 25.4401 46.0926 26.0468 47.931 26.0468C49.2442 26.0468 50.4917 25.6423 51.4766 24.7661C52.3958 23.9572 52.9211 22.7439 52.8555 21.4632H49.4412C49.4412 22.0024 49.3099 22.4069 49.0473 22.6765ZM59.684 16.947H61.0628L61.4568 13.5093C61.0628 13.3745 60.7345 13.3745 60.4062 13.3745C59.881 13.3745 59.3557 13.5767 58.9617 13.9138C58.5021 14.3182 58.1738 14.79 57.9768 15.3967L57.8455 13.5767H54.3656V25.7771H58.0425V17.7559C58.1738 17.4863 58.3708 17.284 58.6334 17.1492C58.8961 17.0144 59.29 16.947 59.684 16.947ZM68.154 20.4521L68.0883 20.3847L67.957 20.3173L66.1185 13.5093H62.179L66.3155 25.8445L66.0529 26.6534C65.9216 26.9904 65.7246 27.2601 65.462 27.4623C65.1993 27.6645 64.8054 27.7319 64.2144 27.7319L64.0175 27.6645H63.8205L63.3609 30.3607C63.8205 30.4955 64.1488 30.5629 64.3458 30.5629C64.5427 30.6303 64.8054 30.6303 65.1337 30.6303C66.3812 30.6303 67.3004 30.3607 67.8913 29.7541C68.4823 29.1474 68.9419 28.406 69.3358 27.5297L74.0633 13.5767H70.1237L68.154 20.4521ZM81.8766 17.2166C82.2049 17.8233 82.3363 18.6996 82.3363 19.7106L82.2706 19.778V19.9803C82.3363 20.7891 82.2049 21.5306 81.8766 22.2721C81.614 22.8113 81.1544 23.0809 80.4978 23.0809C80.1695 23.0809 79.7756 23.0135 79.4473 22.8787C79.1846 22.7439 78.7907 22.2721 78.7907 22.2721V17.1492C78.922 16.8796 79.1846 16.61 79.4473 16.4752C79.7099 16.3404 80.1039 16.273 80.4978 16.273C81.0888 16.273 81.614 16.61 81.8766 17.2166ZM84.8313 24.2942C85.6192 23.2157 86.0132 21.7328 86.0132 19.9129V19.778C86.0788 18.1603 85.6849 16.5426 84.8313 15.1945C84.0434 14.0486 82.8615 13.4419 81.417 13.4419C80.3008 13.3745 79.2503 13.9812 78.6594 14.9922L78.5281 13.6441H75.0481V30.4281H78.725V24.6987C79.3816 25.5075 80.3665 25.9794 81.417 25.9794C82.7959 25.9794 84.0434 25.3727 84.8313 24.2942ZM92.0538 13.5767V10.5435L91.9881 10.6109H88.2456V13.6441H86.6041V16.273H88.2456V21.8676C88.2456 23.3505 88.5739 24.3616 89.2304 25.0357C89.8214 25.7097 90.7406 26.0468 91.9881 26.0468C92.776 26.0468 93.5639 25.9794 94.2862 25.7771L94.0235 22.9461C93.6952 23.0135 93.3669 23.0135 92.973 23.0135C92.776 23.0135 92.5134 22.9461 92.3164 22.7439C92.1194 22.5417 92.0538 22.2046 92.0538 21.8002V16.2055H94.0892V13.5767H92.0538ZM99.1449 22.2046C98.8166 21.598 98.6853 20.7891 98.6853 19.778V19.5084C98.6853 18.5647 98.8166 17.7559 99.1449 17.1492C99.4732 16.5426 99.9985 16.273 100.721 16.273C101.443 16.273 101.968 16.5426 102.297 17.1492C102.625 17.8907 102.756 18.6996 102.756 19.5084V19.778C102.756 20.7891 102.625 21.598 102.297 22.2046C101.968 22.8113 101.443 23.0809 100.721 23.0809C99.9985 23.0809 99.4732 22.8113 99.1449 22.2046ZM96.5186 15.1271C95.468 16.3404 94.9427 17.9581 95.0084 19.5758H94.9428V19.8454C94.8771 21.4632 95.4024 23.0809 96.4529 24.2942C97.5034 25.3727 98.9479 25.9794 100.721 25.9794C102.494 25.9794 103.938 25.4401 104.923 24.2942C105.908 23.1483 106.433 21.6654 106.433 19.8454V19.5758C106.499 17.9581 105.973 16.3404 104.923 15.1271C103.938 13.9812 102.494 13.3745 100.721 13.3745C98.9479 13.3745 97.5034 13.9812 96.5186 15.1271ZM111.56 13.6441L111.554 13.5767L111.686 13.6441H111.56ZM111.56 13.6441H108.206V25.8445H111.883V17.0818C112.277 16.61 112.868 16.3404 113.459 16.3404C114.049 16.3404 114.443 16.4752 114.706 16.7448C114.969 17.0144 115.1 17.5537 115.1 18.2277V25.7771H118.777V18.2277C118.777 16.5426 118.449 15.3293 117.792 14.5204C117.135 13.7789 116.216 13.3745 115.034 13.3745C114.378 13.3071 113.721 13.5093 113.13 13.8463C112.539 14.1834 112.08 14.6552 111.686 15.2619L111.56 13.6441ZM124.752 16.8796C125.014 16.4752 125.408 16.273 125.934 16.273C126.525 16.273 126.853 16.4078 127.116 16.7448C127.378 17.0818 127.51 17.5537 127.51 18.1603V18.4299H124.292C124.358 17.7559 124.489 17.284 124.752 16.8796ZM121.994 24.2942C123.045 25.4401 124.424 25.9794 126.196 25.9794V26.0468C127.116 26.0468 127.969 25.912 128.823 25.6423C129.545 25.3727 130.267 25.0357 130.858 24.6312L130.005 22.3395C128.954 22.8787 127.838 23.0809 126.722 23.0809C126.065 23.0809 125.474 22.8787 125.08 22.4743C124.621 22.0698 124.424 21.5306 124.292 20.8565H131.121V18.8344C131.186 17.4188 130.727 15.9359 129.742 14.8574C128.823 13.8463 127.575 13.3745 125.934 13.3745C124.161 13.3745 122.848 13.9812 121.863 15.1271C120.878 16.273 120.418 17.7559 120.418 19.6432V20.0477C120.353 21.598 120.944 23.1483 121.994 24.2942ZM142.939 20.6543H142.874H142.808L140.773 13.5767H138.409L136.439 20.6543H136.373L135.06 13.5767H131.646L134.469 25.7771H137.621L139.591 19.3062H139.656L141.626 25.7771H144.778L147.601 13.5767H144.187L142.939 20.6543ZM154.692 21.5306C154.955 21.8002 155.152 22.3395 155.152 22.3395V22.4069C155.152 22.8113 155.021 23.0809 154.758 23.2157C154.495 23.4179 154.101 23.4854 153.642 23.4854C153.051 23.4854 152.591 23.3505 152.263 23.0809C151.935 22.8787 151.738 22.4743 151.738 21.8676L148.389 21.935C148.389 22.9461 148.849 23.9572 149.768 24.7661C150.687 25.6423 151.935 26.0468 153.576 26.0468C154.889 26.1142 156.202 25.7097 157.319 24.9683C158.303 24.2942 158.763 23.3505 158.763 22.2721C158.829 21.261 158.435 20.3847 157.713 19.778C156.728 19.104 155.677 18.6996 154.495 18.4973C153.839 18.4299 153.248 18.2277 152.657 17.8907C152.394 17.6885 152.197 17.4188 152.197 17.0818C152.197 16.7448 152.329 16.4752 152.591 16.273C152.854 16.0033 153.182 15.9359 153.576 15.9359C154.101 15.9359 154.43 16.0707 154.692 16.3404C154.955 16.61 155.086 16.947 155.086 17.4188L158.697 17.3514C158.697 16.2055 158.172 15.1271 157.319 14.5204C156.334 13.7789 155.086 13.4419 153.51 13.4419C152.066 13.4419 150.818 13.7789 149.965 14.5204C149.111 15.1271 148.652 16.1381 148.652 17.2166C148.652 18.1603 148.98 19.0366 149.702 19.6432C150.621 20.3173 151.738 20.7217 152.854 20.9239C153.51 20.9913 154.101 21.1936 154.692 21.5306Z" fill="black"/>
</g>
<defs>
<clipPath id="clip0_521_338">
<rect width="159" height="39" fill="white" transform="translate(0 0.5)"/>
</clipPath>
</defs>
</svg>
