<svg width="152" height="152" viewBox="0 0 152 152" fill="none" xmlns="http://www.w3.org/2000/svg">
<path d="M21.2676 116.377C21.2676 116.377 16.8232 107.508 19.2369 101.01C21.6507 94.5119 31.3589 88.8225 31.3589 88.8225C31.3589 88.8225 33.4687 83.4767 29.012 80.0506C24.5554 76.623 24.2499 67.655 24.2499 67.655C24.2499 67.655 27.945 66.8935 29.9955 65.0695C32.0475 63.2455 35.3337 59.0397 35.3337 59.0397C35.3337 59.0397 37.2261 63.7076 42.5112 64.2411C47.7962 64.7731 51.274 62.4262 51.274 62.4262C51.274 62.4262 53.2621 64.3201 56.4161 64.2411C59.5701 64.1621 61.5583 62.5737 61.5583 62.5737C61.5583 62.5737 63.852 64.6211 66.9862 64.5451C70.1204 64.4691 73.1787 61.7924 73.1787 61.7924C73.1787 61.7924 75.1668 64.2381 77.1535 64.5451C79.1401 64.8521 80.6966 64.5451 80.6966 64.5451C80.6966 64.5451 82.6148 67.2203 84.7003 68.9029C86.7857 70.5856 89.3849 70.9139 89.3849 70.9139C89.3849 70.9139 89.1265 74.3157 90.8228 75.8493C92.5192 77.383 97.0624 79.0109 97.0624 79.0109C97.0624 79.0109 97.6415 82.4705 96.801 83.2928C95.9604 84.1151 91.9172 85.591 90.4976 87.491C89.0794 89.391 89.7269 95.7993 89.0201 97.3345C88.3133 98.8697 87.7023 101.01 87.7023 101.01C87.7023 101.01 107.484 86.8192 114.948 67.6535C122.411 48.4893 121.665 39.4803 118.818 31.0671C117.365 26.7761 111.173 28.4193 111.173 28.4193C111.173 28.4193 102.306 11.1034 95.7294 11.1034C91.671 11.1034 91.671 11.8497 91.671 11.8497C91.671 11.8497 87.6248 6.13454 83.2669 5.14046C78.9091 4.14638 75.638 4.88966 72.4567 7.15598C72.4567 7.15598 65.7596 3.28302 61.0202 4.70878C56.2808 6.13454 54.4462 9.87982 52.458 10.0333C50.4699 10.1869 46.5711 8.42822 43.8199 9.5743C41.0687 10.7204 38.4482 14.6283 38.4482 14.6283C38.4482 14.6283 32.046 15.3077 29.7523 18.825C27.4586 22.3423 26.9692 25.4173 26.9692 25.4173C26.9692 25.4173 18.1699 29.7584 17.8066 35.2623C17.4433 40.7662 20.196 41.2253 20.196 41.2253C20.196 41.2253 11.3922 46.8827 12.0093 51.5461C12.6264 56.2094 15.4552 59.1141 15.4552 59.1141C15.4552 59.1141 15.4932 63.6802 17.8066 65.0665C17.8066 65.0665 15.0797 67.9818 13.5445 72.8747C12.0093 77.7676 16.1437 79.8515 16.1437 79.8515C16.1437 79.8515 12.938 80.6769 13.0885 82.893C13.239 85.1077 15.9142 85.2612 15.9142 85.2612C15.9142 85.2612 8.1166 92.0647 10.7918 95.4285C13.467 98.7922 14.4231 98.0854 14.4231 98.0854C14.4231 98.0854 12.6979 99.9429 12.5854 100.858C12.4729 101.773 12.0093 107.166 12.0093 107.166C12.0093 107.166 13.9276 110.49 15.3792 111.866C16.8308 113.241 21.2661 116.376 21.2661 116.376L21.2676 116.377Z" fill="#7C451B"/>
<path d="M21.2677 116.377C21.2677 116.377 36.4434 127.616 62.4749 116.491C88.5064 105.368 88.1219 99.6736 88.1219 99.6736C88.1219 99.6736 89.6692 92.3974 89.73 88.9485C89.7498 87.8586 96.0563 84.6712 96.5913 83.9811C97.1264 83.291 97.0625 79.0077 97.0625 79.0077C97.0625 79.0077 94.1259 79.0487 92.0997 76.9466C90.0735 74.8444 89.1175 70.6963 89.1175 70.6963C89.1175 70.6963 86.7052 70.821 84.7003 68.8997C82.6955 66.9784 80.6967 64.5418 80.6967 64.5418C80.6967 64.5418 78.9791 65.3307 77.1535 64.5418C75.328 63.753 73.1787 61.7891 73.1787 61.7891C73.1787 61.7891 71.2681 64.2546 68.219 64.5418C65.1699 64.8291 61.5583 62.8212 61.5583 62.8212C61.5583 62.8212 58.8436 64.2211 56.4162 64.2378C53.9888 64.2546 51.274 62.423 51.274 62.423C51.274 62.423 47.9103 65.0237 42.9232 64.2378C37.9345 63.452 35.0921 59.4194 35.0921 59.4194C35.0921 59.4194 33.2104 62.4777 30.5549 64.5418C27.8995 66.606 24.25 67.6517 24.25 67.6517C24.25 67.6517 23.6511 73.2834 26.0618 76.5954C28.4725 79.9075 30.2342 80.593 31.5323 83.2895C32.8304 85.986 30.8939 88.8193 30.8939 88.8193C30.8939 88.8193 21.821 95.2732 19.9864 98.7707C18.1517 102.268 18.2748 106.97 19.0728 109.78C19.8708 112.591 21.2662 116.374 21.2662 116.374L21.2677 116.377Z" fill="#EBC697"/>
<path d="M119.621 33.6861C119.621 33.6861 125.969 58.2675 104.217 84.8903C84.4164 109.127 55.2795 127.5 25.334 118.671C25.334 118.671 31.3593 126.68 49.049 132.547C66.9592 138.487 87.1296 146.193 90.9144 146.423C90.9144 146.423 108.966 141.906 124.122 131.22C136.555 122.454 141.888 103.304 141.888 103.304C141.888 103.304 126.578 49.4059 125.317 45.6211C124.055 41.8363 119.62 33.6846 119.62 33.6846L119.621 33.6861Z" fill="white"/>
<path d="M33.9203 72.4628C33.9203 72.4628 29.8573 82.6727 37.4786 83.9859C45.1014 85.3007 47.1716 79.2162 46.3964 73.8111C45.8979 70.3348 41.4853 69.0671 41.4853 69.0671C41.4853 69.0671 39.3664 70.6221 37.9057 71.1085C36.445 71.5949 33.9203 72.4613 33.9203 72.4613V72.4628Z" fill="white"/>
<path d="M72.9679 70.1174C72.9679 70.1174 65.1095 70.3424 64.2218 79.5703C63.3341 88.7982 76.9168 89.0627 79.3899 82.5951C81.9708 75.8478 80.6971 74.9602 80.6971 74.9602C80.6971 74.9602 78.2043 74.6151 76.2739 72.9918C74.3435 71.3684 72.9679 70.1174 72.9679 70.1174Z" fill="white"/>
<path d="M43.7257 70.1326C43.7257 70.1326 40.976 72.7425 39.4834 73.431C37.9908 74.1196 36.2868 74.5984 36.0208 74.9601C35.7548 75.3219 35.4493 79.3742 37.398 80.5401C39.3481 81.7059 45.3445 80.382 45.3445 80.382C45.3445 80.382 42.8836 85.933 37.398 83.8096C31.9123 81.6861 31.9868 78.9623 33.3548 73.96L34.3899 72.1725C34.3899 72.1725 37.29 71.5173 38.4483 70.8592C39.6065 70.201 41.2588 68.8999 41.2588 68.8999L43.7257 70.1311V70.1326Z" fill="#CED4D6"/>
<path d="M80.4809 77.8085C80.4809 77.8085 75.9681 76.7384 74.5149 75.4388C73.0618 74.1392 72.8262 73.2606 72.1984 73.4506C71.5707 73.6406 68.4745 75.4631 68.0929 77.3814C67.7114 79.2996 66.8693 85.258 73.7884 86.7704C73.7884 86.7704 69.1873 87.8238 66.7416 85.2626C64.296 82.7014 63.0101 79.4896 65.7993 74.1012C68.59 68.7113 73.7473 70.5672 73.7473 70.5672C73.7473 70.5672 74.8965 72.2286 76.272 72.9931C77.6476 73.7577 80.6953 74.9615 80.6953 74.9615L80.4794 77.8085H80.4809Z" fill="#CED4D6"/>
<path d="M56.2826 118.671C56.2826 118.671 66.833 129.504 77.8423 134.79C84.3829 137.932 90.5313 139.329 95.6172 140.46C97.2755 140.828 102.591 139.876 107.888 138.396C113.692 136.774 119.434 134.59 119.434 134.59C119.434 134.59 112.845 137.984 105.938 141.033C99.4096 143.915 92.5803 146.459 91.4114 146.423C91.4114 146.423 46.0394 132.984 37.4012 127.357C28.763 121.73 25.3354 118.672 25.3354 118.672C25.3354 118.672 37.0653 121.452 40.8258 121.209C44.5862 120.966 56.2842 118.672 56.2842 118.672L56.2826 118.671Z" fill="#CED4D6"/>
<path d="M81.5493 106.368C81.5493 106.368 89.8257 114.77 99.4002 121.221C108.976 127.672 120.615 133.883 120.615 133.883L117.696 135.628C117.696 135.628 102.235 126.911 97.0625 123.222C91.8899 119.533 78.8438 108.177 78.8438 108.177L81.5493 106.368Z" fill="#CED4D6"/>
<path d="M14.4248 98.0868C14.4248 98.0868 12.6996 99.9443 12.5872 100.859C12.4747 101.774 12.0111 107.167 12.0111 107.167C12.0111 107.167 6.74275 100.657 8.57739 87.0729C10.412 73.4887 16.0892 62.7666 16.0892 62.7666L17.8099 65.0694C17.8099 65.0694 12.4367 70.9868 13.0872 74.9616C13.7378 78.9364 16.147 79.8544 16.147 79.8544C16.147 79.8544 13.3046 80.7178 13.0918 82.896C12.879 85.0726 15.9175 85.2641 15.9175 85.2641C15.9175 85.2641 9.65659 89.6022 10.2646 93.387C10.8726 97.1718 14.4264 98.0884 14.4264 98.0884L14.4248 98.0868Z" fill="#CED4D6"/>
<path d="M105.21 17.7944C105.21 17.7944 109.72 19.3236 112.626 22.8788C115.531 26.4341 117.7 30.1414 117.7 30.1414C117.7 30.1414 115.531 28.4588 114.078 28.2308C112.625 28.0028 111.173 28.4223 111.173 28.4223C111.173 28.4223 109.338 24.294 108.268 23.1084C107.198 21.9228 105.21 17.7944 105.21 17.7944Z" fill="#CED4D6"/>
<path d="M110.715 69.7421C110.715 69.7421 108.27 71.1177 106.282 69.4366C104.293 67.7539 103.909 65.9193 103.909 65.9193C103.909 65.9193 99.7076 69.1295 99.1725 67.0653C98.6375 65.0012 99.1725 62.7653 99.1725 62.7653C99.1725 62.7653 94.3557 65.4937 92.1395 62.5722C89.9233 59.6508 89.8777 56.439 89.8777 56.439C89.8777 56.439 86.023 59.6493 84.4179 58.1217C82.8128 56.5926 83.9589 53.4583 83.9589 53.4583C83.9589 53.4583 79.449 58.4272 76.4668 56.6686C73.4845 54.9099 72.5969 52.9993 72.5969 52.9993C72.5969 52.9993 71.0115 56.6686 68.8455 54.9874C66.6795 53.3063 67.3681 50.8591 67.3681 50.8591C67.3681 50.8591 57.9653 55.752 57.1233 51.6237C56.2812 47.4954 61.9401 43.8382 61.9401 43.8382C61.9401 43.8382 54.9071 44.1316 54.6776 42.3729C54.4481 40.6143 56.7022 39.2387 56.4165 38.5501C56.1307 37.8616 53.1485 39.1612 52.2319 37.7856C51.3153 36.41 54.9071 32.8927 54.9071 32.8927C54.9071 32.8927 48.8681 32.1281 48.3331 27.3113C47.7981 22.4944 51.2758 21.5778 51.2758 21.5778C51.2758 21.5778 47.7221 21.0428 48.7161 19.2841C49.7102 17.5255 52.3854 16.9114 52.3854 16.9114C52.3854 16.9114 48.1036 17.6015 49.4032 15.2318C50.7028 12.8621 55.3661 9.34487 55.2141 7.73975C55.2141 7.73975 53.609 9.42239 52.0039 9.80391C50.3988 10.1854 46.1169 8.21399 43.4417 9.88751C40.7665 11.5625 38.9319 14.6193 38.9319 14.6193C38.9319 14.6193 30.7513 16.6834 29.4517 19.0531C28.1521 21.4228 27.2066 25.4158 27.2066 25.4158C27.2066 25.4158 18.7493 28.7629 18.0608 33.5782C17.3722 38.3951 20.2009 41.2238 20.2009 41.2238C20.2009 41.2238 10.8742 46.8813 12.0978 52.6147C13.3214 58.3481 15.3856 59.1127 15.3856 59.1127C15.3856 59.1127 15.074 61.4003 16.0924 62.7637C17.1108 64.1272 17.4604 65.4709 17.4604 65.4709C17.4604 65.4709 12.7058 71.3837 13.0904 74.9572C13.4734 78.5307 15.6379 80.0462 15.6379 80.0462C15.6379 80.0462 13.0205 81.2865 13.0934 82.8901C13.1664 84.4937 15.6288 85.4695 15.6288 85.4695C15.6288 85.4695 8.66414 91.4963 10.2662 94.4557C11.8668 97.4152 14.428 98.084 14.428 98.084C14.428 98.084 12.9277 99.1693 12.7028 100.47C12.4778 101.772 12.1723 106.818 12.1723 106.818C12.1723 106.818 12.6313 110.106 16.1471 112.857C19.6644 115.61 21.116 116.374 21.116 116.374C21.116 116.374 18.193 105.208 18.8132 102.191C19.4333 99.1738 22.2393 96.1475 22.2393 96.1475L30.5202 89.1586C30.5202 89.1586 32.8549 84.8372 31.5356 83.2898C30.2147 81.7425 26.1913 77.9987 25.3355 75.0925C24.4813 72.1862 24.1849 67.6521 24.1849 67.6521C24.1849 67.6521 28.7692 66.6063 30.6373 64.5422C32.5069 62.478 35.4253 59.4198 35.4253 59.4198C35.4253 59.4198 36.7112 63.8536 42.5115 64.2382C49.3165 64.6896 51.2743 62.4233 51.2743 62.4233C51.2743 62.4233 53.7595 64.3932 56.1292 64.2382C58.4989 64.0831 61.5571 62.7637 61.5571 62.7637C61.5571 62.7637 64.1563 64.3172 67.2905 64.2382C70.4248 64.1591 73.024 61.7894 73.024 61.7894C73.024 61.7894 75.0121 64.8386 77.3818 64.8051C79.7515 64.7717 80.89 64.8051 80.89 64.8051C80.89 64.8051 81.3566 67.4727 84.4149 69.0657C87.4731 70.6586 89.5373 70.5644 89.5373 70.5644C89.5373 70.5644 88.6967 74.3553 91.0664 76.5957C93.4361 78.8378 97.0612 78.9639 97.0612 78.9639C97.0612 78.9639 97.6708 82.7396 96.6235 83.8082C95.5762 84.8767 91.1424 86.3298 90.2258 87.7054C89.3093 89.081 89.7272 96.1004 89.0204 97.3316C88.3136 98.5628 84.4149 104.307 84.4149 104.307C84.4149 104.307 98.4095 93.3158 103.377 86.1155C108.344 78.9137 114.283 69.0642 114.283 69.0642L110.714 69.739L110.715 69.7421Z" fill="#5C2E06"/>
<path d="M102.229 59.421C102.611 59.345 107.581 57.5863 108.957 55.3687C110.332 53.151 110.486 51.3939 110.486 51.3939C110.486 51.3939 113.468 52.0049 116.297 51.3939C119.125 50.7828 120.425 48.4116 120.425 48.4116L119.584 54.2226C119.584 54.2226 118.323 55.6559 115.886 55.3687C113.45 55.0814 113.564 54.7379 112.933 54.7956C112.302 54.8534 112.551 56.7458 110.258 57.5103C107.964 58.2749 102.231 59.421 102.231 59.421H102.229Z" fill="#5C2E06"/>
<path d="M104.904 46.6546C104.904 46.6546 107.256 48.0014 109.864 46.913C112.472 45.8247 112.472 42.3257 112.472 42.3257L109.691 44.8322L104.903 46.6546H104.904Z" fill="#5C2E06"/>
<path d="M97.394 21.5792C97.394 21.5792 98.9186 22.1933 98.1783 25.4993C97.4381 28.8053 96.0762 30.152 96.0762 30.152C96.0762 30.152 101.007 30.6567 101.007 24.6937C101.007 18.7307 97.394 21.5777 97.394 21.5777V21.5792Z" fill="#5C2E06"/>
<path d="M97.4898 79.0093C97.4898 79.0093 92.9799 78.266 91.4098 76.4724C89.8411 74.6788 89.0021 70.9123 89.0021 70.9123L85.3298 69.3832C81.6575 67.854 81.3154 64.241 81.3154 64.241C81.3154 64.241 80.2119 64.621 77.8407 64.621C75.4695 64.621 73.0239 61.7923 73.0239 61.7923C73.0239 61.7923 70.2149 64.732 67.9015 64.808C65.588 64.884 61.5555 62.7666 61.5555 62.7666C61.5555 62.7666 58.4212 64.3915 55.6001 64.241C52.7805 64.0905 51.2711 62.4261 51.2711 62.4261C51.2711 62.4261 50.0871 63.7029 43.9706 64.241C37.8541 64.7791 35.4221 59.4226 35.4221 59.4226C33.2181 64.3915 24.1817 67.6549 24.1817 67.6549C24.1817 67.6549 24.7243 72.3152 25.3323 75.0953C25.9403 77.8754 30.8986 81.6693 31.5324 83.2927C32.1663 84.916 30.5171 89.1614 30.5171 89.1614C30.5171 89.1614 26.9998 92.6012 24.5541 93.8248C22.1084 95.0484 19.2797 99.8637 19.073 100.859C18.8663 101.855 16.7565 115.231 25.3323 118.671C33.9082 122.11 38.6202 122.417 54.1607 119.27C69.6996 116.122 83.1911 105.14 83.1911 105.14C83.1911 105.14 87.3195 100.858 88.6571 97.9288C89.9947 94.9982 89.6131 89.0094 90.2257 87.7098C90.8367 86.4102 95.1687 84.7534 96.6234 83.8125C98.0795 82.8717 97.4883 79.0108 97.4883 79.0108L97.4898 79.0093ZM87.3347 86.1168C85.8952 87.8132 85.9454 95.5819 85.9454 95.5819C85.9454 95.5819 66.6034 113.165 51.8898 117.008C37.1762 120.849 32.0827 111.025 32.0827 111.025C32.0827 111.025 31.3591 114.465 27.5363 113.013C23.7135 111.562 25.3339 102.194 25.3339 102.194L32.8381 94.0543C32.8381 94.0543 37.7036 88.7024 38.4484 87.9515C39.1932 87.1991 39.2525 87.3268 42.5114 86.4664C45.7703 85.6061 46.0089 79.5702 46.0089 79.5702C46.0089 79.5702 44.2031 85.7216 36.705 83.811C29.2068 81.9004 33.9203 72.4627 33.9203 72.4627C33.9203 72.4627 36.176 71.578 38.4484 70.8621C40.7223 70.1462 43.7441 66.3036 43.7441 66.3036C43.7441 66.3036 45.1197 65.7686 47.0349 66.3036C48.9501 66.8387 51.1602 66.3036 55.3645 66.3036C59.5688 66.3036 57.1991 68.9028 60.5629 69.7434C63.9267 70.584 67.1369 68.0608 69.2983 68.2188C71.4598 68.3754 74.0179 67.6792 76.2356 67.6549C78.4533 67.6306 85.9454 70.2587 85.9454 70.2587C85.9454 70.2587 86.6339 72.8776 86.9394 74.5603C87.245 76.2429 88.4686 77.7705 88.9975 79.5717C89.5265 81.3714 88.7741 84.4236 87.3362 86.1199L87.3347 86.1168Z" fill="#CD9F76"/>
<path d="M103.524 17.57C110.045 20.417 115.227 25.5819 117.776 32.2456C119.926 37.8696 120.247 44.0271 119.472 49.9567C118.555 56.9745 116.134 63.7765 112.942 70.0678C109.23 77.3805 104.419 84.1156 98.9017 90.1728C92.8795 96.7833 86.0076 102.647 78.4927 107.499C71.642 111.922 64.2275 115.539 56.3995 117.861C49.7343 119.839 42.7149 120.901 35.7594 120.295C29.8694 119.781 24.0083 117.937 19.2689 114.324C13.5385 109.954 10.155 103.336 9.15028 96.2711C7.89172 87.4155 10.0288 78.2803 13.4412 70.1331C14.4247 67.7832 15.5464 65.4926 16.7564 63.2521C17.2215 62.3918 15.9097 61.6227 15.4446 62.4845C10.8664 70.9555 7.52692 80.4083 7.2974 90.1151C7.1074 98.1133 9.30836 106.201 14.756 112.223C18.8236 116.72 24.3564 119.612 30.2266 120.957C36.9344 122.496 43.9598 122.176 50.6721 120.846C58.6035 119.275 66.2324 116.239 73.3095 112.36C81.3184 107.971 88.701 102.423 95.272 96.0856C101.522 90.0558 107.073 83.2447 111.525 75.7799C115.42 69.25 118.528 62.1471 120.168 54.7036C121.55 48.4336 121.904 41.8247 120.388 35.544C118.856 29.1965 115.306 23.533 110.071 19.5931C108.286 18.2495 106.339 17.149 104.293 16.2567C103.405 15.8691 102.63 17.1779 103.526 17.5685L103.524 17.57Z" fill="#381B09"/>
<path d="M112.6 23.8977C113.597 24.752 114.435 25.8449 115.211 26.8937C117.674 30.2149 119.624 33.9115 121.293 37.6841C123.537 42.7594 125.123 48.0642 126.7 53.3736C128.097 58.0765 129.468 62.7869 130.829 67.4989C133.45 76.5657 136.034 85.6417 138.601 94.7237C139.334 97.3153 140.065 99.9069 140.793 102.498C140.846 102.69 140.972 103.67 141.153 103.781C141.004 103.69 141.246 103.137 141.056 103.687C140.934 104.041 140.807 104.394 140.676 104.747C137.741 112.692 133.626 120.62 127.879 126.893C124.417 130.672 120.188 133.472 115.686 135.864C111.22 138.237 106.549 140.216 101.813 141.98C98.5811 143.184 95.3116 144.292 92.0087 145.282C91.6484 145.39 91.2897 145.496 90.9279 145.6C90.3458 145.767 90.9036 145.546 90.9979 145.691C90.8899 145.527 90.0631 145.422 89.8852 145.37C83.7931 143.602 77.7252 141.743 71.6847 139.805C63.1743 137.075 54.6683 134.235 46.4071 130.816C42.9598 129.39 39.6203 127.805 36.4131 125.897C31.3683 122.895 26.4784 119.623 21.7375 116.162C20.973 115.604 20.2115 115.043 19.4606 114.467C18.7097 113.891 17.9284 115.19 18.693 115.779C21.5582 117.983 24.5343 120.054 27.5363 122.067C31.8714 124.975 36.2885 127.864 41.0187 130.094C48.8832 133.803 57.1916 136.619 65.4315 139.36C72.6211 141.752 79.8593 144.002 87.128 146.145C88.0111 146.405 88.8942 146.665 89.7788 146.92C90.1725 147.034 90.5935 147.22 91.007 147.158C91.5542 147.076 92.1196 146.837 92.6471 146.677C94.1017 146.238 95.5503 145.774 96.9912 145.293C101.372 143.827 105.698 142.187 109.925 140.325C114.673 138.234 119.378 135.864 123.575 132.789C131.488 126.99 136.718 118.047 140.53 109.173C141.111 107.822 141.664 106.458 142.172 105.078C142.357 104.575 142.71 103.941 142.625 103.388C142.564 102.996 142.401 102.594 142.295 102.213C141.998 101.156 141.701 100.1 141.404 99.0435C139.085 90.8066 136.748 82.5758 134.388 74.3496C132.959 69.3685 131.523 64.3905 130.068 59.4171C128.712 54.7781 127.408 50.1117 125.897 45.5197C124.151 40.2089 122.004 34.977 119.168 30.1495C117.789 27.8041 116.244 25.4892 114.369 23.5056C114.147 23.2715 113.924 23.0344 113.679 22.8246C112.941 22.1908 111.86 23.2609 112.605 23.8993L112.6 23.8977Z" fill="#381B09"/>
<path d="M78.3055 108.714C82.5859 112.637 87.041 116.387 91.5934 119.988C98.0732 125.113 104.939 129.585 112.176 133.567C113.872 134.501 115.579 135.422 117.313 136.285C118.186 136.72 118.956 135.41 118.081 134.973C113.451 132.667 108.938 130.085 104.553 127.347C97.3192 122.83 90.6692 117.481 84.2199 111.918C82.5904 110.512 80.9686 109.095 79.3817 107.641C78.6612 106.981 77.5836 108.053 78.3071 108.715L78.3055 108.714Z" fill="#381B09"/>
<path d="M81.8551 119.593C81.1893 119.593 80.5175 119.302 80.0113 118.796C79.5569 118.342 79.2772 117.759 79.224 117.159C79.1662 116.518 79.3699 115.929 79.7955 115.504C80.1694 115.13 80.6847 114.923 81.2441 114.923C81.9098 114.923 82.5817 115.213 83.0878 115.72C83.5423 116.174 83.822 116.755 83.8752 117.357C83.9329 117.998 83.7293 118.586 83.3037 119.012C82.9297 119.386 82.4145 119.593 81.8551 119.593Z" fill="#CED4D6"/>
<path d="M81.2441 115.529C81.7305 115.529 82.2488 115.741 82.6577 116.148C83.3888 116.879 83.4861 117.969 82.8735 118.58C82.6029 118.85 82.2397 118.983 81.8551 118.983C81.3687 118.983 80.8504 118.771 80.4415 118.364C79.7104 117.633 79.6131 116.543 80.2257 115.932C80.4962 115.661 80.8595 115.529 81.2441 115.529ZM81.2441 114.313C80.5221 114.313 79.8548 114.582 79.3654 115.072C78.2801 116.157 78.3774 118.019 79.5812 119.224C80.2014 119.845 81.0298 120.199 81.8551 120.199C82.5771 120.199 83.2444 119.93 83.7338 119.44C84.8191 118.355 84.7218 116.493 83.518 115.288C82.8978 114.667 82.0694 114.313 81.2441 114.313Z" fill="#381B09"/>
<path d="M91.715 129.453C91.0492 129.453 90.3774 129.162 89.8712 128.656C89.4167 128.202 89.137 127.621 89.0838 127.019C89.0261 126.378 89.2298 125.789 89.6554 125.364C90.0293 124.99 90.5446 124.783 91.1039 124.783C91.7697 124.783 92.4415 125.074 92.9477 125.58C93.4022 126.034 93.6818 126.616 93.735 127.217C93.7928 127.858 93.5891 128.446 93.1635 128.872C92.7896 129.246 92.2743 129.453 91.715 129.453Z" fill="#CED4D6"/>
<path d="M91.1039 125.39C91.5903 125.39 92.1087 125.601 92.5175 126.008C93.2487 126.739 93.3459 127.829 92.7334 128.44C92.4628 128.711 92.0995 128.843 91.715 128.843C91.2286 128.843 90.7103 128.632 90.3014 128.224C89.5703 127.493 89.473 126.403 90.0855 125.792C90.3561 125.522 90.7194 125.39 91.1039 125.39ZM91.1039 124.174C90.3819 124.174 89.7147 124.443 89.2252 124.932C88.1399 126.017 88.2372 127.879 89.4411 129.085C90.0612 129.705 90.8896 130.059 91.715 130.059C92.437 130.059 93.1043 129.79 93.5937 129.301C94.679 128.215 94.5817 126.353 93.3779 125.148C92.7577 124.528 91.9293 124.174 91.1039 124.174Z" fill="#381B09"/>
<path d="M103.93 137.057C103.431 137.057 102.933 136.91 102.49 136.633C101.332 135.907 100.907 134.488 101.543 133.471C101.916 132.877 102.595 132.521 103.361 132.521C103.86 132.521 104.358 132.669 104.801 132.946C105.959 133.672 106.385 135.09 105.748 136.107C105.375 136.701 104.696 137.057 103.93 137.057Z" fill="#CED4D6"/>
<path d="M103.361 133.129C103.731 133.129 104.121 133.237 104.478 133.461C105.355 134.011 105.693 135.051 105.232 135.783C104.96 136.218 104.468 136.447 103.93 136.447C103.56 136.447 103.17 136.34 102.813 136.116C101.935 135.566 101.598 134.526 102.059 133.794C102.331 133.359 102.823 133.129 103.361 133.129ZM103.361 131.913C102.385 131.913 101.513 132.375 101.028 133.148C100.213 134.447 100.724 136.242 102.167 137.147C102.706 137.486 103.316 137.663 103.93 137.663C104.906 137.663 105.778 137.201 106.263 136.429C107.078 135.13 106.567 133.335 105.124 132.43C104.585 132.091 103.975 131.913 103.361 131.913Z" fill="#381B09"/>
<path d="M33.1874 72.3598C31.2965 76.2495 31.0351 81.8446 35.4932 84.0486C38.3676 85.4698 42.1402 85.6203 44.595 83.3144C46.5588 81.4691 47.3416 78.5629 47.3568 75.9409C47.3644 74.7203 47.2246 73.4238 46.7002 72.3081C45.7943 70.3853 43.5021 68.6616 41.4623 68.1676C40.5123 67.9381 40.1064 69.4034 41.058 69.6329C42.7132 70.0327 44.5646 71.428 45.3368 72.9663C45.6484 73.5895 45.7897 74.5547 45.8262 75.342C45.9235 77.4974 45.4629 79.9081 44.0873 81.6303C42.2983 83.8692 39.316 83.9285 36.8035 82.9709C34.4247 82.0635 33.2953 80.0069 33.3972 77.5293C33.4412 76.4668 33.6768 75.4195 34.0067 74.4103C34.1207 74.0622 34.2468 73.7187 34.3867 73.3797C34.3396 73.4937 34.4034 73.3447 34.452 73.2323C34.4672 73.1958 34.484 73.1608 34.5022 73.1259C34.9278 72.2503 33.6176 71.4782 33.1904 72.3583L33.1874 72.3598Z" fill="#381B09"/>
<path d="M72.9095 69.3731C70.8621 69.1436 68.6626 70.1787 67.1654 71.4874C64.1513 74.1231 62.2437 79.1877 63.9734 82.9953C65.1013 85.479 67.7674 87.3288 70.4076 87.8624C72.0188 88.1876 73.6726 88.0645 75.1834 87.4033C77.2309 86.5081 78.7281 84.7433 79.7921 82.8251C81.1282 80.4174 82.3913 76.3666 80.1402 74.0304C79.4607 73.3251 78.3861 74.3997 79.0655 75.105C79.0898 75.1293 79.1157 75.1552 79.1339 75.1841C79.0199 75.0138 79.1613 75.2205 79.2206 75.3178C79.4197 75.6446 79.5489 75.941 79.6507 76.3043C80.0474 77.7255 79.7222 79.2485 79.1886 80.5892C77.8906 83.8511 75.1804 86.8957 71.388 86.4868C69.225 86.2542 66.9694 84.9485 65.7731 83.1169C63.7485 80.0177 65.2974 75.6051 67.6564 73.1229C68.9758 71.7337 70.9958 70.6773 72.908 70.8916C73.8793 71.001 73.8702 69.4795 72.908 69.3716L72.9095 69.3731Z" fill="#381B09"/>
<path d="M42.7816 65.9196C41.8119 67.581 40.2432 69.0098 38.5788 69.9385C36.4995 71.0998 33.762 71.8279 31.3588 71.6971C30.3815 71.6439 30.3845 73.1639 31.3588 73.2171C34.0234 73.3615 37.0421 72.5331 39.3464 71.2503C41.2297 70.203 43.0005 68.5614 44.0934 66.6857C44.5874 65.8391 43.2741 65.073 42.7816 65.9181V65.9196Z" fill="#381B09"/>
<path d="M71.5994 67.8498C72.1679 70.4824 74.3232 72.7898 76.6002 74.0681C78.8772 75.3464 81.7332 76.1475 84.4176 76.4667C85.3873 76.5822 85.3782 75.0607 84.4176 74.9467C84.2397 74.9254 84.5392 74.9649 84.3856 74.9421C84.2078 74.9163 84.0315 74.8889 83.8552 74.8585C83.2973 74.7643 82.7425 74.6518 82.1923 74.5226C80.5963 74.1472 79.0094 73.6425 77.5624 72.8628C75.521 71.7623 73.5739 69.7939 73.0677 67.4455C72.861 66.4894 71.3957 66.8937 71.6024 67.8498H71.5994Z" fill="#381B09"/>
<path d="M71.9764 77.9808C70.8151 79.7668 70.6449 81.6106 71.9977 82.7339C73.3505 83.8571 76.1199 83.2613 77.5624 81.2047C79.0049 79.1482 78.6994 77.157 77.3998 76.2222C76.1017 75.2874 73.1377 76.1948 71.9764 77.9808Z" fill="#381B09"/>
<path d="M39.0412 76.2267C38.1626 77.9945 38.2021 79.709 39.5656 80.5982C40.929 81.4874 43.4157 80.6453 44.5253 78.5994C45.6349 76.5535 45.1409 74.7523 43.8459 74.0303C42.5508 73.3083 39.9197 74.4589 39.0412 76.2267Z" fill="#381B09"/>
<path d="M83.2275 106.104C84.404 104.991 85.5273 103.81 86.5882 102.588C88.0793 100.867 89.5841 99.0525 89.8881 96.73C90.0736 95.3148 90.0417 93.883 90.0812 92.4588C90.1161 91.2032 90.1009 89.7592 90.6573 88.5995C91.1497 87.575 92.3141 86.9913 93.2747 86.4928C94.3235 85.9471 95.4498 85.5154 96.4515 84.8816C97.4532 84.2477 97.7481 83.5424 97.8043 82.3416C97.856 81.2336 97.8119 80.1164 97.7374 79.0098C97.6705 78.0385 96.1505 78.0324 96.2174 79.0098C96.2813 79.9324 96.3132 80.8612 96.301 81.7868C96.2949 82.1775 96.3679 82.7946 96.2037 83.164C96.1536 83.2764 95.6763 83.5789 95.4453 83.7127C93.4981 84.839 90.8944 85.488 89.5705 87.4473C88.9138 88.4186 88.7497 89.665 88.6478 90.805C88.5247 92.1958 88.5566 93.5957 88.5034 94.9911C88.4609 96.1083 88.4077 97.265 87.8772 98.2728C87.3467 99.2805 86.6794 100.126 85.9787 100.966C84.7885 102.393 83.5026 103.754 82.1513 105.031C81.44 105.704 82.5161 106.777 83.226 106.105L83.2275 106.104Z" fill="#381B09"/>
<path d="M100.803 77.9018C98.2586 78.6618 95.208 78.2818 93.01 76.7968C91.1556 75.5458 89.59 73.246 89.7618 70.9113C89.8332 69.9355 88.3132 69.94 88.2418 70.9113C88.0366 73.6975 89.8682 76.4107 92.0312 77.9626C94.5711 79.7836 98.2176 80.2593 101.207 79.3671C102.142 79.0874 101.744 77.6206 100.803 77.9018Z" fill="#381B09"/>
<path d="M93.7702 69.2516C91.6118 69.8155 88.7086 70.3019 86.6323 69.288C85.2309 68.604 84.0741 67.3804 83.0466 66.2359C82.4508 65.5732 81.8732 64.8861 81.3533 64.1611C80.7879 63.3737 79.4686 64.1322 80.0416 64.9287C81.592 67.0871 83.5786 69.5267 86.0243 70.6773C88.4502 71.8204 91.6589 71.3735 94.1746 70.7168C95.12 70.4691 94.7187 69.0038 93.7702 69.2516Z" fill="#381B09"/>
<path d="M82.1528 62.8599C82.0494 62.945 82.3306 62.7337 82.1482 62.8629C82.0372 62.9404 81.9293 63.0195 81.8153 63.0924C81.5144 63.2885 81.1982 63.4664 80.8699 63.6123C79.9138 64.0379 78.8574 64.1914 77.8512 63.8494C76.3342 63.3341 74.802 62.3583 73.6377 61.2532C73.2927 60.9264 72.6847 60.966 72.4445 61.4068C72.1664 61.916 71.6891 62.3811 71.1191 62.7687C69.6903 63.7415 67.8876 63.9786 66.2019 63.7293C63.9705 63.398 61.6814 61.9935 60.6083 59.9536C60.1523 59.0872 58.8405 59.8548 59.2965 60.7212C60.622 63.2384 63.4689 64.9149 66.2232 65.2539C68.9774 65.5928 72.3503 64.7538 73.7593 62.1744L72.5661 62.3279C73.9858 63.6761 75.9831 65.0244 77.9074 65.4439C79.7755 65.8512 81.7834 65.1277 83.2304 63.933C83.9859 63.3098 82.9052 62.2397 82.1558 62.8584L82.1528 62.8599Z" fill="#381B09"/>
<path d="M61.0203 62.0358C61.3395 61.7881 60.8424 62.1483 60.7588 62.2015C60.4427 62.4022 60.1113 62.5815 59.7708 62.7411C58.7479 63.2199 57.6155 63.4874 56.4846 63.4783C54.8521 63.4662 53.0524 63.0375 51.6571 62.1544C50.8287 61.63 50.0641 62.9448 50.8895 63.4662C54.2137 65.5714 58.9607 65.5379 62.0934 63.109C62.8656 62.5101 61.7833 61.4415 61.0188 62.0343L61.0203 62.0358Z" fill="#381B09"/>
<path d="M52.6435 59.9552C52.5675 60.0951 52.4733 60.2273 52.3791 60.355C52.3867 60.3443 52.2119 60.5632 52.0933 60.6955C51.9246 60.8824 51.7452 61.0602 51.5598 61.2305C50.3955 62.2884 48.9104 62.9268 47.3859 63.2567C44.0282 63.9832 38.9924 63.6002 36.8082 60.5161C36.4023 59.9431 36.1591 59.5144 36.0664 58.8365C35.9737 58.1586 34.9827 58.1479 34.6771 58.6556C33.3943 60.7882 31.6539 62.749 29.7295 64.3146C28.2232 65.5412 26.4129 66.5703 24.4627 66.8317C22.5126 67.0931 20.2584 66.5323 18.7171 65.2403C16.7989 63.6321 16.3292 61.384 16.1377 59.101C16.1058 58.7164 15.9295 58.5219 15.6878 58.2559C15.2363 57.7573 14.832 57.2177 14.4657 56.6553C13.2467 54.7842 12.3651 52.4799 12.9609 50.2363C13.5978 47.8393 15.4765 45.8679 17.302 44.2871C18.3219 43.4024 19.4163 42.571 20.5791 41.8824C20.9637 41.6544 21.1233 41.0039 20.7327 40.6892C19.088 39.3653 17.9982 37.1066 18.3843 34.9923C19.0135 31.5388 22.3849 28.8499 25.2668 27.2099C25.7821 26.9165 26.3095 26.6429 26.8476 26.3936C26.9282 26.3556 27.3933 26.1519 27.2185 26.2264C27.2793 26.2006 27.3416 26.1763 27.4024 26.1519C28.3068 25.8069 27.9147 24.3371 26.9981 24.6867C21.5702 26.7569 14.2438 32.9342 17.6987 39.3273C18.1836 40.2256 18.857 41.1209 19.658 41.7654L19.8115 40.5722C17.5802 41.8946 15.4583 43.6578 13.8136 45.6596C12.5459 47.2024 11.4987 48.9808 11.2874 51.0009C11.0761 53.021 11.7191 54.924 12.6645 56.6188C13.2543 57.6767 13.9854 58.7179 14.8427 59.5798L14.6207 59.0417C14.4611 62.3249 16.2 65.8072 19.1443 67.3379C21.6264 68.6283 24.5205 68.7271 27.0954 67.6677C29.4514 66.6979 31.4623 65.0123 33.1602 63.1396C34.1983 61.9935 35.1909 60.7532 35.9904 59.4247L34.6011 59.2439C34.9082 61.4859 37.097 63.2247 39.0289 64.0349C43.0371 65.7145 48.5152 65.5154 52.0416 62.7991C52.7682 62.2383 53.513 61.5451 53.9568 60.7259C54.4219 59.8655 53.1102 59.0964 52.6451 59.9583L52.6435 59.9552Z" fill="#381B09"/>
<path d="M28.4226 26.5759C27.3297 23.4158 29.2723 19.6857 31.8654 17.9058C33.2851 16.9315 34.8993 16.2825 36.5546 15.828C37.1535 15.6638 37.7615 15.5225 38.3725 15.4115C38.5458 15.3796 38.7206 15.3522 38.8939 15.3249C39.169 15.2808 38.824 15.3309 38.9532 15.3157C39.9138 15.2033 39.9244 13.6833 38.9532 13.7957C33.3884 14.4448 27.4179 17.6185 26.7111 23.7289C26.5895 24.7793 26.6077 25.9664 26.9588 26.9787C27.2765 27.8968 28.7464 27.5031 28.4241 26.5744L28.4226 26.5759Z" fill="#381B09"/>
<path d="M38.1321 18.3406C39.4149 14.036 42.9292 8.86192 48.0911 10.1433C49.2144 10.4214 50.2982 10.8744 51.4777 10.7406C52.6572 10.6069 53.7774 9.90768 54.7335 9.15984C55.6896 8.412 56.6153 7.576 57.6914 6.9604C59.2479 6.0712 61.0643 5.62128 62.8488 5.56048C65.9374 5.45408 69.2632 6.39952 71.946 7.93928C72.2318 8.10344 72.6361 8.06544 72.8671 7.82072C74.4601 6.132 77.0684 5.33704 79.3317 5.34008C83.2107 5.34464 86.6049 7.5836 89.2512 10.2482C89.7239 10.7239 90.1799 11.2194 90.6101 11.7347C90.7302 11.8791 90.8487 12.025 90.9658 12.1725C91.0615 12.2926 90.8928 12.0722 91.0144 12.2363C91.5874 13.0161 92.9068 12.2591 92.3261 11.4687C88.3194 6.02104 81.0386 1.71488 74.3567 4.96464C73.4417 5.41 72.4978 5.99976 71.7925 6.74608L72.7136 6.62752C70.3515 5.27168 67.5775 4.41592 64.881 4.12256C61.2087 3.7228 57.7629 4.77312 54.9083 7.06984C53.9902 7.80856 53.0782 8.68864 51.9443 9.08536C50.8104 9.48208 49.6385 8.96224 48.4924 8.678C45.2031 7.86176 41.9716 9.24952 39.8816 11.8198C38.4391 13.5922 37.3158 15.743 36.6622 17.9378C36.3825 18.8772 37.8493 19.2785 38.1275 18.3422L38.1321 18.3406Z" fill="#381B09"/>
<path d="M89.7302 15.6654C89.566 16.0591 89.8412 15.4617 89.902 15.3538C90.098 15.0011 90.3215 14.6607 90.5738 14.346C91.4159 13.2927 92.5376 12.4688 93.8342 12.0751C95.1308 11.6815 96.2434 11.6784 97.4031 12.2469C98.5629 12.8154 99.5965 13.6635 100.54 14.5543C103.176 17.041 105.468 20.0111 107.259 23.1635C108.32 25.0301 109.381 26.8982 110.442 28.7647C110.645 29.125 111.127 29.239 111.481 29.0368C112.798 28.2875 114.451 28.897 115.555 29.8987C116.309 30.5827 117.008 31.3396 117.567 32.1923C117.727 32.4355 117.878 32.6848 118.01 32.9432C118.052 33.0283 118.212 33.4068 118.087 33.0922C118.443 33.992 119.913 33.5999 119.553 32.6879C118.873 30.9657 117.435 29.3955 115.993 28.2844C114.55 27.1733 112.383 26.7735 110.714 27.7235L111.753 27.9956C110.162 25.1958 108.703 22.285 106.832 19.6569C105.208 17.3769 103.438 15.1455 101.37 13.2486C100.357 12.3183 99.2424 11.42 97.9853 10.8424C96.6508 10.2283 95.3375 10.1508 93.9041 10.4791C91.4402 11.0415 89.2407 12.9218 88.2649 15.2565C87.8879 16.1579 89.3578 16.5515 89.7302 15.6608V15.6654Z" fill="#381B09"/>
<path d="M119.787 47.8774C118.955 49.4461 117.554 50.8201 115.74 51.0542C114.065 51.2716 112.272 51.0983 110.61 50.8156C110.081 50.7259 109.711 51.0253 109.648 51.5482C109.647 51.5649 109.68 51.3537 109.644 51.5665C109.619 51.7048 109.597 51.8416 109.568 51.9784C109.481 52.4009 109.37 52.8189 109.235 53.2293C108.856 54.3739 108.259 55.4318 107.271 56.1508C105.716 57.2817 103.839 58.069 102.025 58.6892C101.106 59.0038 101.501 60.4721 102.43 60.1545C104.532 59.4355 106.765 58.5205 108.501 57.1129C110.124 55.7966 110.928 53.5759 111.168 51.5482L110.206 52.2809C112.19 52.6198 114.313 52.8311 116.309 52.4967C118.403 52.1456 120.129 50.4766 121.098 48.645C121.556 47.7817 120.244 47.0125 119.787 47.8774Z" fill="#381B09"/>
<path d="M111.74 41.025C111.49 42.2303 110.84 43.4995 109.855 44.2565C108.45 45.3372 106.185 45.6671 104.445 45.6914C103.468 45.7051 103.465 47.2251 104.445 47.2114C106.527 47.181 109.101 46.7463 110.779 45.4527C112.012 44.5027 112.892 42.9508 113.206 41.4293C113.402 40.4747 111.939 40.0658 111.741 41.025H111.74Z" fill="#381B09"/>
<path d="M96.6717 22.2349C97.7417 22.8383 98.1476 24.1486 97.6855 25.3615C97.0988 26.9028 96.0591 28.5064 94.8112 29.6038C94.0755 30.2514 95.1532 31.323 95.8858 30.6785C98.3725 28.4897 101.441 23.1773 97.4393 20.9231C96.5865 20.4428 95.8189 21.7546 96.6717 22.2349Z" fill="#381B09"/>
<path d="M103.174 66.5048C103.869 69.7166 107.4 71.4874 110.458 70.7167C111.407 70.4781 111.004 69.0113 110.054 69.2515C107.76 69.8291 105.158 68.4945 104.639 66.1005C104.433 65.1444 102.968 65.5487 103.174 66.5048Z" fill="#381B09"/>
<path d="M16.8006 64.6854C15.4691 66.5002 14.3123 68.4975 13.4307 70.5662C12.1783 73.5059 11.6675 77.0734 14.1603 79.5783C14.7972 80.2182 15.6241 80.7077 16.5285 80.8232L16.3263 79.3306C14.3777 79.6102 12.3348 80.9676 12.3211 83.1138C12.3059 85.441 14.3899 86.5536 16.4814 86.1478L15.8962 84.7585C13.8244 86.049 11.8165 87.8274 10.5473 89.9234C9.64442 91.4146 9.26138 93.0866 9.7265 94.7905C10.1475 96.3318 11.1279 97.6314 12.654 98.1892C13.4703 98.4871 14.4248 98.5586 15.2775 98.3792L14.6923 96.9899C13.3563 97.9171 12.0719 99.3505 11.7815 100.994C11.5687 102.194 11.7055 103.486 11.5824 104.707C11.5064 105.462 11.4091 106.216 11.2799 106.964C11.1143 107.92 12.5795 108.332 12.7452 107.368C13.0523 105.599 13.2559 103.789 13.2423 101.992C13.2301 100.448 14.3154 99.0982 15.4599 98.3032C16.1667 97.8122 15.7381 96.733 14.8747 96.9139C14.6726 96.9565 14.931 96.9139 14.8291 96.923C14.6437 96.9398 14.4583 96.9519 14.2713 96.9489C13.7606 96.9413 13.2529 96.8364 12.7954 96.6008C11.2571 95.8058 10.7403 93.693 11.2009 92.129C11.9533 89.5738 14.4674 87.4382 16.6638 86.0702C17.4162 85.6006 16.9131 84.5198 16.0786 84.681C16.0497 84.687 15.9311 84.7007 16.0512 84.687C16.1622 84.6749 15.8825 84.7022 15.8247 84.7053C15.5268 84.7174 15.235 84.7129 14.9447 84.6445C14.0904 84.4393 13.7256 83.6671 13.8624 82.8159C14.0676 81.5467 15.6089 80.9554 16.7322 80.7958C17.6594 80.6636 17.2915 79.4005 16.53 79.3032C16.9389 79.3549 16.5726 79.3093 16.4768 79.2728C16.2488 79.1892 16.2351 79.2059 16.0178 79.0858C15.4645 78.7834 15.0237 78.3426 14.6923 77.8075C13.6663 76.1507 13.718 74.3769 14.2865 72.5878C15.0951 70.0388 16.5361 67.6007 18.1154 65.4514C18.6945 64.6626 17.3767 63.9026 16.8036 64.6838L16.8006 64.6854Z" fill="#381B09"/>
<path d="M23.4899 67.6175C23.3425 70.9143 23.7985 74.9363 25.8489 77.6251C26.7351 78.7879 27.7733 79.8398 28.7719 80.9053C29.4407 81.6182 30.146 82.3341 30.6324 83.1914C31.1598 84.1201 31.1629 85.102 30.9485 86.1311C30.8406 86.6494 30.6932 87.1586 30.5229 87.6587C30.4226 87.952 30.1718 88.4263 30.1414 88.6634C30.1034 88.9719 30.4819 88.4703 30.3101 88.5448C30.1855 88.5995 30.0563 88.7333 29.9484 88.8139C29.4817 89.1635 29.0166 89.5161 28.5545 89.8718C27.0665 91.0163 25.5951 92.1837 24.1648 93.3997C22.7998 94.5595 21.4045 95.7511 20.2584 97.1343C19.05 98.5935 18.4785 100.442 18.2246 102.298C17.7884 105.478 18.0589 108.972 18.8721 112.07C19.3509 113.897 20.0471 115.78 21.0503 117.391C21.5656 118.22 22.8819 117.458 22.3621 116.624C20.0061 112.839 19.3236 107.925 19.6139 103.55C19.7355 101.72 20.1383 99.6636 21.333 98.209C22.4533 96.844 23.8334 95.6706 25.1741 94.5306C26.5147 93.3906 27.98 92.2156 29.4225 91.1075C29.8602 90.7701 30.301 90.4372 30.7433 90.1059C30.9713 89.9341 31.2556 89.7669 31.4106 89.5267C31.7845 88.9491 31.9852 88.1223 32.1767 87.4717C32.4913 86.4031 32.7209 85.2434 32.5567 84.1277C32.2603 82.1122 30.567 80.6028 29.2461 79.1923C28.2095 78.0857 27.0695 76.9807 26.3825 75.6127C25.8292 74.5122 25.5221 73.2855 25.3109 72.0771C25.0555 70.6179 24.943 69.0995 25.0084 67.6175C25.0525 66.6401 23.5325 66.6416 23.4884 67.6175H23.4899Z" fill="#381B09"/>
<path d="M24.3854 118.861C26.942 118.384 30.2845 117.258 31.4473 114.725C32.4931 112.448 32.6572 109.647 32.6147 107.166C32.598 106.189 31.0977 106.186 31.0947 107.166C31.0916 108.334 31.2072 109.507 31.3744 110.659C31.6464 112.549 32.1085 114.582 33.2561 116.149C34.3399 117.627 36.1183 118.271 37.7918 118.847C39.78 119.533 41.8259 120.05 43.8733 120.518C45.1289 120.805 46.3889 121.074 47.6566 121.305C48.6127 121.479 49.0231 120.015 48.0609 119.84C45.1851 119.317 42.3138 118.662 39.5185 117.811C38.038 117.359 36.1517 116.899 34.9768 115.824C33.6817 114.64 33.2409 112.617 32.9506 110.963C32.7317 109.717 32.6101 108.434 32.6147 107.168H31.0947C31.1327 109.357 31.0187 111.816 30.1766 113.859C29.2509 116.104 26.1729 116.985 23.9811 117.396C23.0204 117.575 23.4278 119.041 24.3854 118.861Z" fill="#381B09"/>
<path d="M31.8836 92.7232C30.2982 92.7125 29.1126 92.6912 27.7765 92.6046C24.1574 92.372 22.2878 93.9787 22.4185 96.359C22.5508 98.7393 23.7576 103.582 28.0942 107.338C29.6324 108.671 30.5672 109.124 31.7376 109.138C32.908 109.145 34.2988 108.715 35.8629 107.411C40.2694 103.737 41.566 98.9172 41.7423 96.5399C41.9186 94.1626 40.0779 92.521 36.4557 92.6867C35.1181 92.7475 33.4704 92.7445 31.8851 92.7247L31.8836 92.7232Z" fill="#351D0D"/>
<path d="M48.7721 95.0505C48.5867 95.0292 48.4484 95.0125 48.2933 94.9836C47.8738 94.9076 47.6306 95.1082 47.6093 95.4411C47.588 95.774 47.658 96.4625 48.1094 97.0371C48.269 97.2408 48.3724 97.3153 48.5092 97.332C48.646 97.3472 48.8162 97.3046 49.0184 97.142C49.5899 96.6845 49.8133 96.0293 49.8696 95.701C49.9258 95.3727 49.7343 95.1219 49.3087 95.1006C49.1506 95.093 48.9576 95.0717 48.7721 95.0505Z" fill="#351D0D"/>
<path d="M47.0652 99.9098C46.8798 99.8886 46.7414 99.8718 46.5864 99.843C46.1669 99.767 45.9237 99.9676 45.9024 100.3C45.8826 100.633 45.951 101.322 46.4025 101.896C46.5621 102.1 46.6654 102.175 46.8022 102.191C46.939 102.207 47.1093 102.164 47.3114 102.001C47.883 101.544 48.1064 100.889 48.1626 100.56C48.2189 100.232 48.0274 99.9813 47.6018 99.96C47.4437 99.9524 47.2507 99.9311 47.0652 99.9098Z" fill="#351D0D"/>
<path d="M53.0539 98.5754C52.8684 98.5541 52.7301 98.5374 52.5751 98.5085C52.1555 98.4325 51.9123 98.6331 51.8911 98.966C51.8698 99.2989 51.9397 99.9874 52.3911 100.562C52.5507 100.766 52.6541 100.84 52.7909 100.857C52.9277 100.872 53.0979 100.83 53.3001 100.667C53.8716 100.209 54.0951 99.5542 54.1513 99.2259C54.2075 98.8976 54.016 98.6468 53.5904 98.6255C53.4323 98.6179 53.2393 98.5966 53.0539 98.5754Z" fill="#351D0D"/>
<path d="M26.9541 94.7007C26.831 94.4955 25.6485 94.0973 24.7152 95.1962C23.7819 96.2952 24.4385 98.6421 25.0693 98.6223C25.3824 98.6132 25.6257 97.5006 26.0452 96.5779C26.4647 95.6553 27.0757 94.8862 26.9526 94.7022L26.9541 94.7007Z" fill="#CCC3C3"/>
<path d="M45.4648 78.3819C45.217 78.3059 44.9404 78.879 44.4418 79.4232C44.1576 79.7348 43.852 80.1725 43.5511 80.3671C42.7196 80.9021 42.3032 80.3519 41.3744 80.6361C40.4457 80.9203 40.0748 81.7062 39.3483 81.7062C38.6217 81.7062 37.8952 80.9796 37.1306 80.8839C36.366 80.7881 35.296 80.6361 35.1044 80.5206C34.9129 80.4066 34.6378 80.0919 34.2821 79.6603C33.9264 79.2286 33.5936 78.2725 33.4978 78.2649C33.402 78.2573 33.1923 80.5966 33.5738 80.8839C33.9553 81.1711 34.6196 81.5907 35.0649 82.0117C35.5103 82.4327 35.4069 82.9298 36.0195 83.0058C36.632 83.0818 37.3404 83.0711 37.8556 83.2155C38.3709 83.3599 39.3696 83.6746 40.0916 83.6746C40.8136 83.6746 41.946 83.0438 42.3092 82.91C42.443 82.8599 42.6984 82.7489 42.9811 82.6091C42.9492 82.8401 42.8291 83.1122 42.7288 83.1395C42.595 83.1775 42.212 83.4451 42.212 83.6746C42.212 83.9041 40.9884 84.7067 40.8166 84.8024C40.6448 84.8982 41.0644 85.681 40.35 86.102C39.6356 86.5231 39.134 87.0201 39.2495 87.3256C39.3635 87.6311 40.052 87.5354 40.7984 87.3256C41.5432 87.1159 41.3152 86.5808 41.4489 85.988C41.5827 85.3952 41.984 85.1277 42.1177 84.8799C42.2515 84.6322 42.7288 84.4589 43.0358 84.2689C43.3413 84.0774 43.3413 83.7141 43.3991 83.5621C43.4568 83.4086 43.9919 83.1228 44.2214 82.8173C44.3856 82.5984 44.3156 82.03 44.2609 81.7229C44.5208 81.3292 45.0574 80.9295 45.3432 80.3853C45.6289 79.8411 45.711 78.4595 45.4632 78.3835L45.4648 78.3819Z" fill="#A2E4FF"/>
<path d="M76.7796 82.6911C76.4923 83.1501 75.4329 83.3508 74.6014 83.5803C73.77 83.8098 72.595 84.2688 72.0782 84.0393C71.5614 83.8098 71.5052 83.179 70.9595 83.1212C70.4138 83.0635 69.6979 83.5514 69.1537 83.293C68.6096 83.0346 68.982 82.4038 68.4363 82.3476C67.8906 82.2913 67.1169 82.2898 66.8312 81.8885C66.5454 81.4872 65.2504 80.37 64.878 80.256C64.5056 80.142 65.1455 82.4464 65.5377 82.9844C65.9298 83.5225 66.6503 84.1123 66.7658 84.4573C66.8813 84.8024 66.8038 85.2432 67.0333 86.0457C67.2629 86.8483 68.1232 87.508 67.9788 88.3683C67.8344 89.2286 67.1762 90.6331 67.4909 91.5785C67.8055 92.524 68.0077 93.6138 68.1794 94.0728C68.3512 94.5319 68.3223 95.8224 68.5518 95.8497C68.7813 95.8771 69.4121 94.7888 69.1826 93.9862C68.9531 93.1836 68.5807 92.4951 68.7525 92.0087C68.9242 91.5223 69.9563 89.8579 69.7557 88.9702C69.555 88.0825 69.8408 87.5384 69.6113 87.3377C69.3817 87.1371 68.8102 86.4972 68.982 86.3239C69.1537 86.1506 69.3498 86.6826 69.894 86.6537C70.4381 86.6248 70.2725 86.2281 71.1601 86.5139C72.0478 86.7996 73.0693 86.5245 74.188 86.3239C75.3067 86.1232 76.1777 84.813 76.6367 84.5561C77.0957 84.2992 77.7265 84.0971 78.1278 83.5529C78.5291 83.0088 79.0733 81.0297 78.8726 80.8868C78.672 80.744 77.0669 82.2336 76.7796 82.6926V82.6911Z" fill="#A2E4FF"/>
<path d="M70.7314 83.8283C71.075 83.9423 71.3045 84.4013 71.534 84.4393C71.7635 84.4773 72.2986 84.6491 72.1846 84.9166C72.0706 85.1841 71.5538 85.3377 71.3242 85.2221C71.0947 85.1066 70.8652 84.6491 70.6357 84.6491C70.4062 84.6491 69.8514 84.8741 69.6416 84.5321C69.4319 84.1901 70.3864 83.7128 70.7314 83.8268V83.8283Z" fill="white"/>
<path d="M75.0892 84.1535C75.3765 83.9787 75.7398 83.924 75.8538 84.0577C75.9678 84.1915 75.8538 84.7083 75.4723 84.8421C75.0907 84.9758 74.8035 84.9758 74.7275 84.7281C74.6515 84.4803 74.8035 84.3298 75.0907 84.155L75.0892 84.1535Z" fill="white"/>
<path d="M68.6098 87.4991C69.0111 87.4033 69.2786 88.2059 69.2983 88.6649C69.3181 89.1239 69.0688 90.156 68.7815 90.156C68.4943 90.156 68.514 89.1163 68.4943 88.8245C68.4745 88.5327 68.207 87.5963 68.6083 87.5006L68.6098 87.4991Z" fill="white"/>
<path d="M36.4053 81.4783C36.5193 81.1531 37.4952 81.4403 37.8387 81.6699C38.1822 81.8994 38.6793 82.3767 38.5455 82.5484C38.4117 82.7202 37.5332 82.3767 37.2079 82.2611C36.8826 82.1456 36.2898 81.8021 36.4053 81.4768V81.4783Z" fill="white"/>
<path d="M40.4943 81.963C40.628 82.223 40.8378 82.1242 41.3728 81.963C41.9079 81.8019 42.3669 82.0117 42.4809 81.8217C42.5949 81.6317 42.3851 81.1331 41.4868 81.2289C40.5885 81.3247 40.359 81.7031 40.4927 81.963H40.4943Z" fill="white"/>
<path d="M40.5522 86.467C40.5522 86.467 39.9974 86.543 40.0171 86.7148C40.0369 86.8866 40.2907 87.1358 40.4594 87.0583C40.6282 86.9808 40.8577 86.8106 40.8197 86.6768C40.7817 86.543 40.7999 86.5628 40.5522 86.467Z" fill="white"/>
<path d="M42.408 78.2667C42.0022 78.3807 41.6724 78.481 41.7529 78.7014C41.8335 78.9218 42.7455 79.0555 43.0844 78.7014C43.4234 78.3472 43.8612 77.3683 43.4386 77.1996C43.016 77.0309 42.8139 78.1527 42.408 78.2667Z" fill="white"/>
<path d="M75.5514 80.8309C75.0301 80.9783 74.6045 81.106 74.7094 81.3902C74.8142 81.6745 75.9862 81.8447 76.4209 81.3902C76.8556 80.9357 77.4195 79.6757 76.8769 79.4583C76.3342 79.2409 76.0728 80.6834 75.5514 80.8309Z" fill="white"/>
</svg>
