<svg width="397" height="304" viewBox="0 0 397 304" fill="none" xmlns="http://www.w3.org/2000/svg">
<path d="M343.363 116.798C343.363 116.798 303.707 87.8732 287.355 73.8327C270.821 59.6336 240.149 32.5684 240.149 32.5684C240.149 32.5684 196.606 73.9631 189.047 81.1628C181.489 88.3625 142.061 122.544 142.061 122.544C142.061 122.544 165.5 157.806 168.916 200.692C174.233 267.446 166.185 293.528 166.185 293.528L222.716 280.727C222.716 280.727 224.263 248.536 215.153 230.432C206.042 212.328 201.741 165.206 230.26 150.634C239.114 146.109 244.077 146.622 244.077 146.622C244.077 146.622 265.676 149.418 264.754 179.396C263.831 209.373 254.823 229.868 263.677 261.486L281.697 267.47L316.647 264.208C316.647 264.208 308.903 218.619 313.903 195.3C325.814 139.786 343.363 116.793 343.363 116.793V116.798Z" fill="#E5B989"/>
<path d="M55.3758 252.87L165.818 294.191C165.818 294.191 171.335 267.563 169.546 235.321C167.836 204.565 174.854 184.368 142.066 122.549L129.004 132.852L45.5898 133.234C45.5898 133.234 65.6977 179.298 62.8691 206.844C60.0358 234.389 55.3758 252.875 55.3758 252.875V252.87Z" fill="#D39863"/>
<path d="M10.5242 121.961C10.5242 121.961 36.9417 124.394 63.6575 123.332C90.378 122.269 115.85 120.419 115.85 120.419C115.85 120.419 145.161 102.455 170.987 78.3019C196.812 54.1492 240.267 12.7031 240.267 12.7031C240.267 12.7031 207.19 22.4006 174.253 26.287C140.906 30.2201 110.15 31.5668 110.15 31.5668C110.15 31.5668 82.4979 67.5793 63.6528 83.5398C44.8078 99.5003 10.5195 121.957 10.5195 121.957L10.5242 121.961Z" fill="#F92233"/>
<path d="M21.3339 133.91L10.5273 121.966C10.5273 121.966 36.5208 124.935 69.7653 123.299C103.01 121.663 115.853 120.424 115.853 120.424L128.486 133.234L66.7689 132.782L21.3339 133.91Z" fill="#7F0404"/>
<path d="M369.492 125.852C369.492 125.852 339.561 106.625 324.024 94.43C308.493 82.2348 245.387 25.8115 245.387 25.8115L239.119 31.6598C239.119 31.6598 292.071 78.1759 304.774 88.167C317.472 98.158 343.363 116.798 343.363 116.798L369.492 125.852Z" fill="#7F0404"/>
<path d="M384.685 117.982C384.685 117.982 363.249 107.479 341.296 89.873C319.343 72.2676 247.443 10.6064 247.443 10.6064H242.727C242.727 10.6064 174.971 74.3366 158.517 89.873C142.067 105.405 115.85 120.424 115.85 120.424L128.483 133.234C128.483 133.234 168.946 99.0905 180.74 88.6987C192.535 78.3069 245.384 25.8167 245.384 25.8167C245.384 25.8167 310.172 83.6659 324.021 94.4352C337.871 105.204 370.752 126.64 370.752 126.64L384.68 117.987L384.685 117.982Z" fill="#C31824"/>
<path d="M244.082 146.622C244.082 146.622 268.277 141.743 280.001 160.136C288.021 172.718 266.832 220.926 274.4 246.193C280.001 264.898 281.702 267.475 281.702 267.475L263.295 261.883C263.295 261.883 256.548 224.482 262.135 206.755C267.722 189.028 265.159 161.847 259.101 155.789C253.043 149.731 244.087 146.622 244.087 146.622H244.082Z" fill="#D39863"/>
<path d="M190.987 24.2186C190.987 24.2186 150.44 73.8988 128.487 92.7159C106.534 111.538 87.1155 122.75 87.1155 122.75L80.8711 122.54C80.8711 122.54 98.9286 114.515 125.393 90.5444C151.857 66.5733 187.716 23.8271 187.716 23.8271L190.982 24.2186H190.987Z" fill="#C31824"/>
<path d="M56.3083 123.113C56.3083 123.113 71.8401 116.235 110.467 81.9276C149.094 47.6207 161.932 27.4336 161.932 27.4336L157.687 27.839C157.687 27.839 148.11 42.9328 107.745 80.1382C67.3804 117.344 48.6426 123.318 48.6426 123.318L56.3036 123.113H56.3083Z" fill="#C31824"/>
<path d="M24.4343 122.6L30.4178 123.01C30.4178 123.01 58.1728 108.485 74.7391 93.3915C91.31 78.3024 128.483 30.626 128.483 30.626L123.823 31.05C123.823 31.05 95.97 70.5109 73.0848 89.9804C50.1995 109.45 24.4297 122.6 24.4297 122.6H24.4343Z" fill="#C31824"/>
<path d="M65.1479 149.125L51.9694 149.568L45.5898 133.234L129.004 132.852L142.066 122.549C144.256 124.879 154.657 146.114 154.657 146.114L120.965 147.247C125.308 160.071 137.914 198.698 138.049 215.493C138.212 235.787 130.966 281.096 130.966 281.096L125.239 278.999C125.239 278.999 133.752 247.059 131.842 214.915C129.666 178.268 120.476 155.598 116.538 147.401L94.9672 148.128C98.7045 160.02 110.294 199.392 108.258 224.402C105.834 254.143 101.803 270.252 101.803 270.252L96.3978 268.23C96.3978 268.23 104.119 245.759 103.616 212.053C103.197 183.93 93.5273 156.571 90.3398 148.281L69.7333 148.976C71.8629 155.653 74.2628 164.027 76.1734 173.035C79.3981 188.232 80.6377 205.548 79.6311 217.925C77.2079 247.665 72.3802 259.557 72.3802 259.557L66.9746 257.535C66.9746 257.535 75.8985 237.031 75.3952 203.325C75.0923 182.975 69.5096 162.313 65.1292 149.129L65.1479 149.125Z" fill="#BA7949"/>
<path d="M224.265 137.283L227.196 152.405L224.199 154.59L220.238 137.922L224.265 137.283Z" fill="#D39863"/>
<path d="M261.559 146.622V134.763L265.697 135.024L265.207 148.086L261.559 146.622Z" fill="#D39863"/>
<path d="M246.59 145.587L241.599 145.732L241.203 135.452L246.073 134.711L246.59 145.587Z" fill="#D39863"/>
<path d="M141.921 122.367C153.902 112.576 170.845 98.5312 177.467 92.1004C188.185 81.6946 239.119 31.6602 239.119 31.6602C239.119 31.6602 288.878 75.6645 297.383 82.4681C306.647 89.8822 343.363 116.798 343.363 116.798C341.033 118.975 333.517 136.053 333.517 136.053C333.517 136.053 322.426 127.102 309.466 116.365C306.531 121.98 298.334 137.596 294.787 143.826C290.426 151.487 283.408 178.725 283.408 178.725L281.725 172.201C281.725 172.201 286.134 158.328 289.307 150.043C296.087 132.344 303.856 118.821 306.708 114.086C300.421 108.862 293.855 103.35 288.016 98.3168C283.757 94.6494 279.013 90.4833 274.218 86.2194L273.738 88.885L270.36 88.0089L272.242 84.458C259.763 73.3392 247.339 61.9874 242.572 57.621L243.69 85.5204L239.119 85.7674L237.623 59.3359C231.104 67.3045 214.416 87.24 195.949 105.763C193.153 108.569 190.45 111.267 187.845 113.853C189.891 118.439 197.309 135.448 202.491 152.415C208.568 172.299 208.568 186.843 208.568 186.843L207.394 195.701C207.394 195.701 200.665 163.911 199.006 156.143C197.584 149.474 187.91 123.63 185.207 116.468C167.089 134.399 154.656 146.105 154.656 146.105L141.916 122.362L141.921 122.367Z" fill="#D39863"/>
<path d="M281.349 192.35C281.768 190.328 282.258 188.319 282.756 186.316C284.061 181.064 285.52 175.849 287.099 170.672C289.313 163.426 291.773 156.258 294.518 149.194C297.626 141.202 301.093 133.378 305.129 125.708C309.165 118.037 313.834 110.399 319.132 103.68C319.785 102.855 320.451 102.035 321.127 101.229C321.611 100.651 321.695 99.8166 321.127 99.2527C320.628 98.7541 319.636 98.6702 319.151 99.2527C313.466 106.047 308.615 113.508 304.351 121.262C300.082 129.016 296.391 137.083 293.078 145.289C290.147 152.549 287.537 159.935 285.189 167.401C283.46 172.909 281.871 178.459 280.445 184.055C279.816 186.525 279.159 189.009 278.674 191.511C278.669 191.544 278.66 191.577 278.655 191.609C278.502 192.346 278.87 193.119 279.634 193.329C280.328 193.52 281.2 193.096 281.354 192.35H281.349Z" fill="#3F260F"/>
<path d="M237.722 31.6597C237.768 32.6803 237.81 33.7055 237.857 34.726L238.216 43.0301C238.393 47.1216 238.57 51.2084 238.747 55.2999C238.966 60.2908 239.18 65.277 239.399 70.2678C239.637 75.734 239.875 81.1955 240.112 86.6617C240.355 92.1978 240.592 97.7292 240.835 103.265C241.058 108.391 241.282 113.517 241.501 118.643C241.692 123.005 241.879 127.367 242.07 131.729C242.205 134.851 242.34 137.978 242.475 141.1C242.54 142.582 242.587 144.064 242.666 145.541C242.666 145.606 242.671 145.667 242.675 145.732C242.708 146.487 243.295 147.13 244.073 147.13C244.805 147.13 245.504 146.491 245.471 145.732C245.425 144.711 245.383 143.686 245.336 142.666L244.977 134.361C244.8 130.27 244.623 126.183 244.446 122.092C244.227 117.101 244.013 112.115 243.794 107.124C243.556 101.658 243.318 96.1961 243.081 90.7299C242.838 85.1938 242.601 79.6624 242.359 74.1263C242.135 69.0003 241.911 63.8743 241.692 58.7483C241.501 54.3865 241.315 50.0248 241.124 45.663C240.988 42.5408 240.853 39.414 240.718 36.2918C240.653 34.8099 240.606 33.328 240.527 31.8508C240.527 31.7855 240.522 31.725 240.518 31.6597C240.485 30.9048 239.898 30.2617 239.12 30.2617C238.388 30.2617 237.689 30.9001 237.722 31.6597Z" fill="#3F260F"/>
<path d="M278.651 67.0707C277.892 69.4566 277.165 71.8519 276.447 74.2518C274.774 79.8531 273.176 85.4824 271.689 91.1349C269.979 97.6217 268.385 104.15 267.146 110.744C265.682 118.512 264.844 126.411 264.317 134.291C264.014 138.802 263.73 143.364 263.814 147.889C263.814 147.954 263.814 148.02 263.814 148.089C263.832 149.888 266.628 149.893 266.61 148.089C266.572 144.403 266.74 140.708 266.945 137.027C267.383 129.179 268.12 121.304 269.471 113.554C270.608 107.026 272.146 100.567 273.8 94.1546C275.31 88.2923 276.946 82.458 278.661 76.6517C279.518 73.7438 280.497 70.8593 281.317 67.9421C281.331 67.9002 281.345 67.8582 281.359 67.8163C281.587 67.0987 281.088 66.2925 280.38 66.0968C279.625 65.8917 278.889 66.3531 278.661 67.0754L278.651 67.0707Z" fill="#3F260F"/>
<path d="M201.151 68.4553C201.989 71.1861 202.819 73.9215 203.644 76.6569C205.508 82.8268 207.353 89.0013 209.161 95.1898C211.076 101.732 212.968 108.284 214.739 114.869C216.51 121.454 218.076 128.667 219.422 135.643C220.662 142.088 221.813 148.551 222.861 155.033C222.88 155.141 222.899 155.252 222.913 155.36C223.034 156.105 223.961 156.52 224.632 156.338C225.425 156.119 225.727 155.369 225.611 154.619C224.739 149.157 223.77 143.714 222.759 138.276C221.375 130.857 219.893 123.448 217.973 116.146C216.282 109.71 214.446 103.317 212.586 96.9326C210.727 90.5484 208.835 84.1875 206.92 77.8266C205.918 74.504 204.967 71.1581 203.891 67.8542C203.877 67.8076 203.863 67.7563 203.844 67.7097C203.317 65.9948 200.619 66.7265 201.146 68.4553H201.151Z" fill="#3F260F"/>
<path d="M174.593 94.3876C175.18 95.7064 175.753 97.0252 176.326 98.3486C176.969 99.8305 177.608 101.317 178.237 102.808C178.409 103.214 178.582 103.614 178.75 104.02C178.796 104.132 178.847 104.248 178.894 104.36C178.908 104.388 179.066 104.77 178.95 104.49C179.066 104.765 179.183 105.045 179.299 105.32C179.723 106.327 180.143 107.333 180.562 108.34C184.677 118.242 188.629 128.224 192.194 138.341C193.913 143.224 195.567 148.145 196.965 153.132C198.228 157.633 199.291 162.191 200.283 166.762C202.371 176.376 204.128 186.059 205.754 195.761C206.668 201.223 207.544 206.689 208.345 212.164C208.359 212.248 208.368 212.332 208.382 212.416C208.49 213.166 209.44 213.576 210.102 213.395C210.904 213.176 211.188 212.425 211.081 211.675C210.424 207.113 209.697 202.556 208.951 198.007C207.381 188.44 205.684 178.887 203.704 169.395C202.725 164.698 201.677 160.01 200.47 155.364C199.226 150.592 197.739 145.89 196.15 141.221C192.618 130.829 188.615 120.591 184.439 110.441C182.072 104.682 179.649 98.9404 177.128 93.2412C177.091 93.1527 177.049 93.0688 177.011 92.9803C176.704 92.2906 175.697 92.1275 175.101 92.477C174.392 92.8917 174.29 93.6979 174.597 94.3876H174.593Z" fill="#3F260F"/>
<path d="M131.566 281.24C132.955 276.04 133.929 270.704 134.823 265.401C137.032 252.329 138.323 239.09 138.612 225.837C138.77 218.498 138.687 211.144 137.876 203.842C137.125 197.118 135.909 190.454 134.367 183.869C131.622 172.145 127.903 160.649 123.57 149.418C122.06 145.508 120.471 141.626 118.798 137.787C118.005 135.965 117.237 134.11 116.337 132.334C116.3 132.255 116.263 132.176 116.225 132.101C115.899 131.421 114.93 131.239 114.315 131.598C113.62 132.004 113.485 132.828 113.811 133.509C114.408 134.744 114.972 135.993 115.526 137.246C117.045 140.657 118.262 143.556 119.655 147.055C123.924 157.764 127.628 168.72 130.508 179.89C132.163 186.302 133.542 192.789 134.497 199.345C135.508 206.242 135.867 213.167 135.872 220.134C135.886 233.82 134.8 247.525 132.708 261.053C131.711 267.498 130.462 273.896 128.933 280.234C128.91 280.322 128.887 280.411 128.863 280.494C128.397 282.233 131.095 282.978 131.561 281.24H131.566Z" fill="#3F260F"/>
<path d="M103.025 270.951C104.344 267.875 105.146 264.543 105.877 261.29C108.067 251.551 109.06 241.532 109.475 231.569C109.782 224.201 109.824 216.787 109.409 209.42C108.995 202.052 108.081 194.918 106.823 187.756C104.61 175.146 101.334 162.717 97.3447 150.555C95.3642 144.515 93.2393 138.499 90.7834 132.632C90.7042 132.446 90.6297 132.26 90.5504 132.078C90.2522 131.384 89.2316 131.23 88.6398 131.575C87.9222 131.994 87.8383 132.791 88.1365 133.485C88.2484 133.751 87.9455 133.029 88.1179 133.439C88.2298 133.704 88.3369 133.97 88.4488 134.24C88.8495 135.219 89.2363 136.202 89.6184 137.185C90.9978 140.736 92.2933 144.324 93.5235 147.931C97.4565 159.474 100.742 171.259 103.132 183.217C104.516 190.141 105.598 197.127 106.227 204.163C106.893 211.605 106.986 219.094 106.832 226.559C106.609 237.212 105.789 247.744 103.696 258.094C102.904 262.027 101.963 265.969 100.523 269.72C100.453 269.897 100.392 270.023 100.607 269.529C100.308 270.224 100.402 271.03 101.11 271.44C101.697 271.785 102.722 271.636 103.021 270.937L103.025 270.951Z" fill="#3F260F"/>
<path d="M62.4503 133.602C62.9349 134.59 63.3729 135.606 63.8063 136.617C63.9088 136.854 64.0114 137.097 64.1139 137.334C63.9275 136.892 64.1465 137.418 64.1931 137.521C64.2583 137.679 64.3236 137.833 64.3888 137.991C64.6638 138.663 64.9387 139.334 65.2043 140.009C65.8427 141.622 66.4579 143.248 67.045 144.884C70.5447 154.581 73.2568 164.572 75.1627 174.708C77.6745 188.049 78.5366 201.605 78.1638 215.166C77.8795 225.646 76.8823 235.935 74.8925 246.15C74.049 250.475 72.9679 254.715 71.7097 258.937C71.6957 258.993 71.6724 259.044 71.6538 259.1C71.4021 259.813 71.938 260.629 72.6324 260.82C73.4059 261.029 74.1003 260.559 74.3519 259.841C75.5542 256.416 76.3557 252.814 77.106 249.272C79.1564 239.593 80.2981 229.71 80.7827 219.835C81.4631 206.037 80.8759 192.178 78.6577 178.538C76.9056 167.764 74.2261 157.135 70.6798 146.818C69.5568 143.542 68.3405 140.298 67.0171 137.101C66.3647 135.526 65.7356 133.905 64.9527 132.386C64.9201 132.325 64.8921 132.264 64.8641 132.199C64.5333 131.519 63.5687 131.337 62.9535 131.696C62.2592 132.101 62.1194 132.926 62.4503 133.606V133.602Z" fill="#3F260F"/>
<path d="M93.2435 132.073C91.3748 129.086 89.5108 126.104 87.6421 123.117C87.3765 122.688 87.1062 122.264 86.8406 121.835L86.0065 123.89C86.794 123.616 87.5629 123.275 88.3225 122.935C90.303 122.054 92.2369 121.062 94.1335 120.018C97.3443 118.252 100.462 116.318 103.514 114.286C107.881 111.374 112.107 108.247 116.222 104.989C121.544 100.782 126.674 96.3312 131.647 91.7132C137.616 86.1724 143.334 80.3707 148.944 74.4712C154.555 68.5716 159.597 63.0402 164.779 57.1965C169.239 52.1637 173.638 47.075 177.972 41.9304C181.145 38.1651 184.291 34.3719 187.394 30.546C188.871 28.7239 190.344 26.8972 191.793 25.0565C191.854 24.9773 191.919 24.8981 191.98 24.8189C192.446 24.2224 192.557 23.4209 191.98 22.843C191.495 22.3584 190.47 22.2465 190.004 22.843C189.011 24.1152 188 25.3687 186.989 26.6269C184.281 29.9915 181.536 33.3327 178.768 36.6506C174.728 41.4923 170.637 46.2875 166.489 51.036C161.484 56.7585 156.4 62.4157 151.219 67.9751C145.659 73.9446 140.002 79.8348 134.135 85.506C128.962 90.5062 123.617 95.334 118.072 99.9194C113.766 103.48 109.53 106.742 104.921 109.952C101.631 112.245 98.2623 114.431 94.7906 116.439C92.5957 117.711 90.3636 118.918 88.0662 119.995C87.6934 120.172 87.3159 120.344 86.9385 120.512C86.78 120.582 86.6263 120.652 86.4678 120.717C86.4026 120.745 86.3373 120.773 86.2674 120.801C85.9739 120.927 86.6169 120.656 86.3746 120.754C86.0438 120.889 85.7082 121.025 85.3727 121.15C85.3308 121.164 85.2935 121.178 85.2516 121.192C84.4314 121.477 83.9095 122.437 84.4174 123.247C86.2861 126.234 88.1501 129.217 90.0187 132.204C90.2844 132.633 90.5546 133.057 90.8203 133.485C91.7709 135.009 94.1941 133.607 93.2341 132.073H93.2435Z" fill="#351D0D"/>
<path d="M62.5891 132.144C60.7437 129.483 58.8984 126.817 57.053 124.156L56.2701 123.024L55.7668 124.935C57.3512 124.119 58.8937 123.224 60.4362 122.33C64.5882 119.916 68.6517 117.353 72.6454 114.687C78.5775 110.722 84.3466 106.514 89.9526 102.091C96.7143 96.7555 103.122 91.0237 109.445 85.1754C115.177 79.8723 120.839 74.4947 126.417 69.0238C130.989 64.5409 135.499 60.0021 139.936 55.3887C143.426 51.7585 146.87 48.0864 150.248 44.3538C152.695 41.651 155.113 38.9156 157.481 36.1382C158.977 34.386 160.449 32.6152 161.889 30.8165C162.565 29.9684 163.301 29.1342 163.907 28.2348C163.93 28.2022 163.953 28.1743 163.977 28.1416C164.424 27.5358 164.079 26.5805 163.473 26.231C162.76 25.8163 162.01 26.1239 161.563 26.7343C161.465 26.8695 161.362 26.9999 161.26 27.1304C161.204 27.2003 161.148 27.2749 161.097 27.3448C160.929 27.5591 161.223 27.1817 161.204 27.205C161.167 27.2516 161.129 27.3028 161.087 27.3541C160.906 27.5871 160.729 27.8154 160.547 28.0438C159.317 29.6049 158.054 31.138 156.777 32.6572C154.633 35.2109 152.443 37.7226 150.225 40.2064C147.117 43.6874 143.948 47.1172 140.737 50.505C136.567 54.904 132.321 59.2378 128.025 63.511C122.731 68.7768 117.353 73.9541 111.911 79.0615C105.657 84.9284 99.3751 90.7767 92.7672 96.2429C87.0308 100.991 81.0939 105.488 74.9754 109.729C70.5297 112.809 65.9909 115.764 61.3495 118.546C59.1453 119.864 56.9225 121.16 54.6531 122.367C54.5552 122.418 54.4574 122.469 54.3642 122.521C53.7304 122.847 53.4462 123.835 53.8609 124.431C55.7063 127.092 57.5516 129.758 59.397 132.418L60.1799 133.551C60.6086 134.171 61.4054 134.455 62.0905 134.054C62.7056 133.695 63.0225 132.763 62.5937 132.144H62.5891Z" fill="#351D0D"/>
<path d="M35.0444 132.526C33.4181 129.692 31.7871 126.854 30.1607 124.021C29.9277 123.616 29.6994 123.215 29.4664 122.809L28.6323 124.864C29.8672 124.347 31.0881 123.788 32.2997 123.215C35.3193 121.784 38.2878 120.251 41.2096 118.643C45.5201 116.271 49.7374 113.736 53.8522 111.034C58.9129 107.711 63.8152 104.137 68.5125 100.316C73.6199 96.1589 78.4104 91.6666 82.9492 86.8948C87.488 82.123 91.696 77.4816 95.9506 72.6678C100.205 67.854 104.162 63.2406 108.188 58.4595C111.706 54.2795 115.192 50.0668 118.64 45.8309C121.185 42.704 123.715 39.5632 126.222 36.4084C127.434 34.8845 128.641 33.3561 129.838 31.8183C129.889 31.753 129.941 31.6831 129.997 31.6179C130.458 31.0214 130.579 30.2199 129.997 29.642C129.517 29.1621 128.487 29.0409 128.021 29.642C125.006 33.5285 121.925 37.3637 118.831 41.1895C111.771 49.9177 104.576 58.5434 97.2042 67.0106C92.9869 71.8477 88.7136 76.6381 84.3425 81.3354C79.9715 86.0327 75.428 90.7113 70.5443 94.9706C62.0025 102.417 52.6312 108.909 42.808 114.547C37.9383 117.343 32.9474 119.99 27.7888 122.218C27.4486 122.362 27.8214 122.204 27.896 122.171C27.0758 122.516 26.5632 123.364 27.0618 124.226C28.6882 127.059 30.3192 129.897 31.9455 132.731C32.1785 133.136 32.4068 133.537 32.6398 133.942C33.5346 135.503 35.9531 134.096 35.0537 132.53L35.0444 132.526Z" fill="#351D0D"/>
<path d="M223.243 270.271C223.243 270.271 223.541 250.336 215.158 230.433C207.031 211.131 205.321 191.037 210.917 174.583C214.571 163.846 220.866 156.614 229.143 151.488C242.219 143.393 246.962 146.693 251.897 149.945C256.25 152.816 259.624 157.564 262.07 165.659C267.275 182.878 260.02 220.885 260.02 220.885L260.104 234.953L263.515 261.948L223.238 270.271H223.243Z" fill="#351D0D"/>
<path d="M115.854 119.025C113.37 119.249 110.886 119.445 108.398 119.636C102.06 120.125 95.7177 120.554 89.3708 120.931C80.871 121.435 72.3665 121.84 63.8573 122.106C54.8355 122.39 45.8045 122.525 36.7827 122.367C28.8654 122.227 20.9154 121.91 13.054 120.913C12.8676 120.89 12.6812 120.866 12.4901 120.838C12.1127 120.792 12.793 120.88 12.4156 120.829C12.3037 120.815 12.1965 120.801 12.0847 120.782C11.6886 120.726 11.2878 120.67 10.8917 120.61C10.2673 120.517 9.65218 120.67 9.312 121.253C8.97182 121.835 9.11162 122.483 9.53102 122.949C11.5441 125.172 13.5573 127.4 15.5704 129.622L19.3077 133.751C19.9088 134.417 20.4541 135.284 21.4373 135.298C24.1494 135.336 26.8895 135.135 29.6016 135.056C35.0771 134.902 40.5526 134.758 46.0281 134.627C52.1327 134.483 58.2373 134.357 64.3419 134.278C68.8016 134.222 73.2612 134.203 77.7208 134.189C82.9167 134.175 88.1126 134.17 93.3038 134.17C98.4951 134.17 103.891 134.18 109.185 134.189C113.468 134.198 117.75 134.208 122.033 134.217C124.251 134.222 126.474 134.231 128.692 134.236C128.794 134.236 128.892 134.236 128.995 134.236C130.183 134.236 130.873 132.689 129.983 131.85C126.152 128.229 122.317 124.608 118.486 120.987C117.937 120.465 117.382 119.948 116.832 119.426C115.523 118.191 113.542 120.163 114.856 121.402C118.687 125.023 122.522 128.644 126.353 132.265C126.902 132.786 127.457 133.304 128.007 133.826L128.995 131.44C125.178 131.426 121.362 131.416 117.545 131.407C109.339 131.388 101.137 131.375 92.931 131.37C85.0556 131.37 77.1756 131.37 69.3002 131.426C59.8078 131.496 50.3153 131.71 40.8276 131.952C34.4294 132.115 28.0266 132.293 21.6284 132.488C21.5259 132.488 21.4233 132.493 21.3255 132.498L22.3134 132.908C19.1586 129.422 16.0038 125.936 12.8489 122.451C12.4016 121.957 11.9496 121.458 11.5022 120.964L10.1415 123.299C17.8258 124.459 25.6127 124.869 33.3716 125.079C42.3887 125.321 51.4198 125.233 60.4369 124.99C69.454 124.748 77.8093 124.371 86.4863 123.881C93.1873 123.504 99.8884 123.061 106.585 122.558C109.632 122.329 112.685 122.115 115.723 121.821C115.765 121.821 115.802 121.812 115.844 121.812C116.595 121.747 117.242 121.216 117.242 120.414C117.242 119.711 116.599 118.946 115.844 119.016L115.854 119.025Z" fill="#351D0D"/>
<path d="M116.556 121.631C117.968 120.979 119.306 120.121 120.625 119.315C125.606 116.267 130.415 112.936 135.178 109.562C140.43 105.838 145.686 102.101 150.677 98.0236C154.363 95.0132 157.96 91.8863 161.521 88.7269C170.803 80.5066 179.876 72.0487 188.908 63.5535C198.339 54.6762 207.701 45.729 217.045 36.7679C223.969 30.1274 230.871 23.4542 237.852 16.8697C239.534 15.2853 241.197 13.6636 242.968 12.1724C243.075 12.0838 243.183 11.9953 243.29 11.9021C243.555 11.6784 242.959 12.0512 243.276 11.9161C244.45 11.3988 245.452 11.3755 246.692 11.7763C246.445 11.6971 246.463 11.6318 246.719 11.8136C246.864 11.9161 247.027 12 247.172 12.0978C247.605 12.3821 248.02 12.699 248.434 13.0112C248.709 13.2209 249.455 13.808 249.981 14.2321C250.704 14.8146 251.417 15.4018 252.125 15.9936C253.938 17.5034 255.732 19.0366 257.517 20.579C262.27 24.6752 266.981 28.8226 271.692 32.9653C283.44 43.3105 295.156 53.6883 306.997 63.9217C320.203 75.334 333.549 86.5553 347.837 96.6069C359.193 104.594 370.96 112.097 383.155 118.747C383.751 119.073 384.353 119.399 384.954 119.716V117.302C379.982 120.009 375.014 122.722 370.042 125.429H371.454C363.881 120.774 356.444 115.881 349.095 110.881C337.235 102.809 325.744 94.3095 314.984 84.8125C305.943 76.8345 296.936 68.824 287.909 60.8274C278.557 52.542 269.209 44.2565 259.791 36.0456C256.622 33.2822 253.449 30.5188 250.228 27.816C249.315 27.0518 248.397 26.2875 247.456 25.5512C246.873 25.0992 246.184 24.4235 245.396 24.4095C243.989 24.3862 242.311 26.5997 241.416 27.4572C238.751 30.0202 236.137 32.6344 233.518 35.244C224.976 43.7579 216.467 52.3043 207.897 60.7855C198.134 70.4503 188.311 80.0639 178.283 89.4538C168.045 99.0394 157.383 108.094 146.571 117.032C140.723 121.869 134.632 126.971 128.817 131.259C128.644 131.385 128.477 131.51 128.3 131.631L129.996 131.851C125.611 127.708 121.23 123.565 116.845 119.422C115.536 118.187 113.555 120.159 114.869 121.398C119.254 125.541 123.635 129.684 128.02 133.826C128.439 134.222 129.204 134.404 129.716 134.045C133.537 131.361 137.144 128.318 140.774 125.382C151.595 116.617 162.392 107.763 172.709 98.4057C182.575 89.4538 192.151 80.1851 201.662 70.8558C210.898 61.8014 220.05 52.6585 229.198 43.5109C234.529 38.1845 239.734 32.6438 245.34 27.6063C245.568 27.4013 245.797 27.1962 246.034 27.0098C245.965 27.0657 245.722 27.131 245.979 27.0611C246.067 27.0378 245.224 27.1636 245.065 27.1543C244.781 27.1403 244.739 26.9213 244.925 27.117C245.005 27.2009 245.149 27.2661 245.242 27.336C245.382 27.4339 245.513 27.5411 245.648 27.6389C245.401 27.4525 245.774 27.7368 245.951 27.8766C248.504 29.9083 250.96 32.0613 253.43 34.1909C262.219 41.7774 270.91 49.4803 279.605 57.174C289.111 65.5853 298.599 74.0152 308.101 82.4265C312.109 85.9728 316.079 89.575 320.203 92.9861C326.196 97.9397 332.449 102.586 338.787 107.087C348.447 113.951 358.34 120.508 368.387 126.79C368.942 127.135 369.496 127.484 370.056 127.824C370.489 128.09 371.03 128.062 371.468 127.824C376.44 125.117 381.407 122.405 386.38 119.697C387.279 119.208 387.302 117.763 386.38 117.283C377.46 112.623 368.858 107.26 360.442 101.756C345.027 91.6766 330.59 80.3808 316.582 68.4465C304.462 58.12 292.523 47.5837 280.584 37.0521C271.534 29.0742 262.568 20.9705 253.267 13.2908C251.435 11.7809 249.334 9.5255 246.948 8.91504C243.509 8.0343 241.645 9.5488 239.394 11.6039C233.504 16.9815 227.8 22.5642 222.045 28.0863C213.06 36.7073 204.076 45.3283 195.045 53.898C185.622 62.8406 176.153 71.7412 166.535 80.4693C159.498 86.8535 152.308 93.4661 144.796 99.1187C138.305 104.007 131.673 108.737 124.907 113.238C122.013 115.163 119.091 117.088 116.039 118.742C115.75 118.9 115.461 119.059 115.158 119.199C113.527 119.954 114.944 122.367 116.57 121.612L116.556 121.631Z" fill="#351D0D"/>
<path d="M238.733 148.128C238.225 148.212 238.724 148.128 238.999 148.109C239.53 148.072 240.061 148.067 240.593 148.086C242.461 148.146 244.302 148.501 246.091 149.036C250.006 150.211 253.794 152.224 256.525 155.309C260.817 160.151 262.387 166.968 263.012 173.236C264.461 187.747 261.637 202.291 259.521 216.592C259.158 219.048 258.79 221.513 258.627 223.988C258.329 228.494 258.492 233.042 258.781 237.544C259.079 242.19 259.563 246.822 260.206 251.431C260.64 254.516 261.064 257.661 261.907 260.667C262.108 261.384 262.322 262.214 262.872 262.75C263.524 263.383 264.564 263.677 265.388 263.98C268.301 265.052 271.307 265.877 274.289 266.715C276.731 267.4 279.177 268.095 281.642 268.71C282.528 268.929 283.306 268.798 284.21 268.71C294.723 267.708 305.241 266.701 315.754 265.7C316.047 265.672 316.341 265.644 316.634 265.616C317.706 265.513 318.354 264.511 317.841 263.514C317.93 263.691 317.972 263.929 317.874 263.561C317.776 263.192 317.678 262.866 317.599 262.517C317.431 261.776 317.291 261.026 317.166 260.275C316.947 258.98 316.788 257.815 316.658 256.78C315.078 244.287 314.514 231.64 313.946 219.067C313.605 211.522 313.927 204.076 315.087 196.606C316.248 189.136 318 181.847 320.129 174.638C323.988 161.567 329.049 148.855 334.827 136.52C337.809 130.154 341.085 123.966 344.408 117.777C344.455 117.689 344.506 117.6 344.557 117.516C344.958 116.827 344.683 116.034 344.054 115.606C338.453 111.77 332.916 107.833 327.413 103.858C317.459 96.6673 307.557 89.3418 298.213 81.3686C290.967 75.1894 283.791 68.9264 276.614 62.6726C268.744 55.8085 260.887 48.935 253.035 42.0475C248.785 38.3195 244.591 34.5216 240.29 30.8542C240.224 30.7982 240.159 30.7423 240.099 30.6864C238.752 29.5028 236.767 31.4739 238.123 32.6622C241.646 35.7611 245.169 38.8554 248.696 41.9496C256.376 48.688 264.06 55.417 271.759 62.1367C279.233 68.6607 286.713 75.1801 294.248 81.6435C303.256 89.3698 312.692 96.5602 322.268 103.559C326.616 106.738 330.992 109.869 335.391 112.968C337.674 114.576 339.925 116.342 342.316 117.796C342.428 117.866 342.535 117.95 342.647 118.024L342.143 116.114C339.193 121.207 336.547 126.501 333.988 131.799C328.163 143.882 323.005 156.325 318.909 169.107C314.356 183.315 310.907 198.255 310.963 213.247C310.996 221.756 311.662 230.316 312.24 238.802C312.599 244.096 313.009 249.394 313.61 254.669C313.904 257.246 314.216 259.837 314.715 262.386C314.854 263.104 314.975 263.868 315.26 264.549C315.311 264.679 315.362 264.809 315.423 264.935L316.63 262.834C306.751 263.775 296.867 264.721 286.988 265.662L284.094 265.937C283.674 265.979 282.98 265.909 282.588 266.082C282.328 266.198 282.663 266.086 282.794 266.138C282.579 266.058 282.337 266.021 282.113 265.96C281.055 265.681 279.993 265.401 278.94 265.112C275.78 264.26 272.625 263.383 269.503 262.419C268.198 262.018 266.898 261.603 265.626 261.114C265.291 260.984 265.286 260.956 264.811 260.741C264.484 260.592 264.867 260.872 264.969 260.979C264.904 260.914 264.797 260.583 264.862 260.802C264.932 261.035 264.778 260.55 264.75 260.476C264.68 260.257 264.615 260.038 264.554 259.814C264.396 259.227 264.261 258.635 264.13 258.038C263.79 256.445 263.51 254.837 263.259 253.229C262.569 248.844 262.075 244.431 261.73 240.004C261.162 232.763 261.017 225.526 262.052 218.345C264.112 203.996 267.015 189.522 265.934 174.955C265.435 168.278 264.112 161.199 260.23 155.588C255.849 149.255 247.848 145.383 240.196 145.299C239.451 145.29 238.705 145.327 237.964 145.448C236.194 145.737 236.944 148.431 238.71 148.146L238.733 148.128Z" fill="#351D0D"/>
<path d="M283.464 266.482C283.241 266.268 283.04 266.03 282.844 265.793C282.733 265.662 282.625 265.527 282.518 265.392C282.374 265.21 282.719 265.662 282.518 265.387C282.448 265.294 282.378 265.196 282.309 265.103C282.006 264.688 281.717 264.264 281.442 263.836C279.615 260.988 278.296 257.847 277.327 254.613C273.301 241.225 275.277 227.236 277.597 213.736C278.953 205.851 280.496 197.999 281.712 190.091C282.728 183.488 283.627 176.759 283.352 170.062C283.143 164.988 282.243 159.573 279.168 155.383C277.532 153.156 275.426 151.567 273.063 150.173C269.848 148.277 266.348 146.837 262.751 145.844C256.814 144.209 250.509 143.71 244.381 144.302C241.524 144.577 238.738 145.052 236.072 146.138C229.399 148.85 223.327 153.216 218.592 158.641C210.824 167.537 207.133 178.986 206.928 190.706C206.719 202.673 207.87 214.859 212.012 226.15C213.355 229.813 214.944 233.378 216.244 237.059C218.154 242.483 219.189 248.145 220.112 253.807C221.076 259.707 221.78 265.676 221.896 271.66C221.929 273.375 221.915 275.094 221.808 276.804C221.771 277.377 221.729 277.951 221.668 278.519C221.645 278.748 221.617 278.976 221.589 279.204C221.552 279.521 221.626 278.948 221.589 279.181C221.575 279.269 221.565 279.363 221.547 279.451C221.496 279.749 221.454 280.052 221.379 280.351L222.358 279.372C218.397 280.309 214.431 281.245 210.47 282.187C202.487 284.074 194.505 285.961 186.527 287.853L167.654 292.317C167.034 292.467 166.391 292.583 165.781 292.76C165.03 292.979 166.186 292.867 166.121 292.807C165.594 292.35 164.383 292.154 163.74 291.917C159.443 290.309 155.147 288.701 150.85 287.094C144.032 284.545 137.215 281.991 130.397 279.442C122.452 276.469 114.507 273.496 106.561 270.523C98.616 267.55 91.2393 264.791 83.5782 261.925C77.5062 259.656 71.4343 257.381 65.3623 255.112C62.31 253.97 59.2763 252.698 56.1821 251.678C56.0423 251.631 55.9025 251.57 55.7627 251.519L56.7413 253.239C57.9855 249.287 58.9548 245.237 59.8588 241.197C61.8952 232.064 63.3538 222.767 63.9876 213.424C64.3511 208.046 64.4349 202.645 64.0994 197.263C63.7406 191.536 62.7573 185.916 61.5877 180.305C59.3089 169.396 56.3964 158.617 52.962 148.016C51.3124 142.923 49.5882 137.824 47.5751 132.857C46.9087 131.212 44.2012 131.93 44.8769 133.603C50.3804 147.168 54.4579 161.465 57.7199 175.71C59.034 181.456 60.3341 187.267 60.9539 193.134C61.5224 198.512 61.6203 203.936 61.4106 209.337C61.0285 219.006 59.6678 228.625 57.6733 238.084C56.6527 242.921 55.5297 247.773 54.0431 252.493C53.8008 253.262 54.3321 253.956 55.0217 254.213C57.1514 255.009 59.281 255.806 61.4153 256.603C66.9187 258.663 72.4175 260.718 77.921 262.778C85.3583 265.56 92.7957 268.342 100.233 271.124C108.244 274.12 116.254 277.117 124.265 280.113C131.469 282.806 138.673 285.505 145.878 288.198L160.976 293.846L164.709 295.244C165.366 295.491 165.818 295.612 166.54 295.454C171.503 294.363 176.433 293.114 181.378 291.945C189.505 290.02 197.632 288.1 205.759 286.176C211.262 284.875 216.761 283.571 222.264 282.27C222.549 282.205 222.833 282.135 223.122 282.07C223.583 281.963 223.984 281.548 224.101 281.092C224.422 279.791 224.515 278.403 224.604 277.065C224.874 273.002 224.683 268.91 224.334 264.856C223.364 253.681 221.496 242.46 217.325 232.012C215.857 228.34 214.352 224.682 213.215 220.889C211.649 215.665 210.736 210.273 210.256 204.845C209.608 197.561 209.23 189.965 210.433 182.719C211.365 177.094 213.224 171.656 216.146 166.749C220.293 159.778 226.449 154.111 233.616 150.346C235.713 149.246 237.204 148.505 239.483 147.909C243.878 146.762 248.64 146.669 253.146 147C260.239 147.527 267.243 149.628 273.217 153.538C277.276 156.194 279.247 160.439 280.081 165.104C281.148 171.074 280.594 177.337 279.876 183.311C278.967 190.893 277.527 198.404 276.176 205.916C273.576 220.358 270.607 235.111 273.315 249.767C274.484 256.109 276.712 262.801 280.939 267.811C281.125 268.03 281.311 268.253 281.521 268.454C282.817 269.707 284.792 267.731 283.497 266.478L283.464 266.482Z" fill="#351D0D"/>
<path d="M140.859 123.248C142.234 125.251 143.469 127.353 144.681 129.455C147.863 134.972 150.729 140.681 153.316 146.501C156.974 154.74 160.035 163.254 162.435 171.945C165.287 182.266 167.184 192.854 167.841 203.549C168.53 214.789 168.759 226.084 168.894 237.348C168.996 245.484 168.973 253.625 168.708 261.757C168.53 267.19 168.251 272.619 167.729 278.029C167.631 279.031 167.529 280.029 167.412 281.026C167.361 281.469 167.305 281.911 167.249 282.354C167.221 282.564 167.193 282.773 167.165 282.983C167.221 282.564 167.137 283.202 167.114 283.346C166.923 284.721 166.699 286.096 166.433 287.461C166.117 289.083 165.758 290.714 165.194 292.266C165.115 292.489 164.779 293.142 165.087 292.559C165.012 292.699 164.961 292.853 164.886 292.993C164.826 293.114 164.667 293.286 164.639 293.421C164.607 293.58 164.891 293.109 164.821 293.184C163.642 294.535 165.613 296.52 166.797 295.16C167.104 294.805 167.305 294.405 167.491 293.981C168.064 292.666 168.447 291.278 168.768 289.88C169.421 287.042 169.826 284.153 170.166 281.263C170.739 276.454 171.065 271.613 171.294 266.776C171.648 259.338 171.751 251.887 171.732 244.44C171.709 233.825 171.434 223.209 171.024 212.603C170.795 206.666 170.544 200.748 169.821 194.844C169.164 189.452 168.232 184.098 167.03 178.799C164.896 169.386 161.941 160.164 158.32 151.222C155.585 144.465 152.491 137.847 149 131.449C147.29 128.313 145.501 125.2 143.525 122.218C143.436 122.087 143.348 121.952 143.259 121.822C142.248 120.349 139.825 121.742 140.845 123.234L140.859 123.248Z" fill="#351D0D"/>
<path d="M242.024 9.39916C241.963 9.42712 241.902 9.45042 241.837 9.47838C241.553 9.6042 242.205 9.3246 241.926 9.4411C241.809 9.4877 241.693 9.53896 241.576 9.58556C240.859 9.87914 240.132 10.1587 239.405 10.4337C236.511 11.5241 233.57 12.4981 230.616 13.4068C219.199 16.9297 207.493 19.5347 195.731 21.6084C178.046 24.7306 160.166 26.3522 142.29 27.9693C133.32 28.7848 124.331 29.6236 115.332 30.0942C113.948 30.1688 112.555 30.2433 111.171 30.234C110.924 30.234 110.663 30.1967 110.416 30.2107C110.062 30.2294 110.826 30.3226 110.551 30.2247C110.793 30.3086 110.947 30.3831 111.152 30.5789C110.439 29.9032 109.503 30.1362 108.957 30.8631C108.757 31.1287 108.552 31.3944 108.351 31.66C108.24 31.8091 108.123 31.9536 108.011 32.1027C107.727 32.4708 108.002 32.1167 107.75 32.4382C107.401 32.8902 107.051 33.3422 106.697 33.7896C104.54 36.5437 102.354 39.2744 100.136 41.9819C93.0714 50.6215 85.7505 59.0561 78.0988 67.1832C69.4871 76.3307 60.4607 85.2174 50.5302 92.9343C40.8561 100.451 30.865 107.651 20.5851 114.314C17.104 116.57 13.5019 118.569 9.95094 120.689C9.909 120.713 9.86707 120.731 9.82513 120.75C8.20811 121.537 9.62474 123.947 11.2371 123.164C14.2009 121.724 17.0108 119.897 19.7929 118.14C29.5229 111.98 38.8709 105.204 48.0744 98.284C58.4569 90.4738 67.9773 81.755 76.9897 72.407C85.0235 64.0703 92.6846 55.3701 100.066 46.4508C102.601 43.3892 105.099 40.3043 107.564 37.1821C108.771 35.6489 110.174 34.1344 111.213 32.4801C111.259 32.4056 111.32 32.3403 111.371 32.2704L109.176 32.5547C110.15 33.4727 112.452 33.0207 113.594 32.9741C121.274 32.6665 128.949 31.9489 136.605 31.2779C154.383 29.7214 172.198 28.2162 189.832 25.4202C202.805 23.3652 215.713 20.7043 228.328 17.0183C231.781 16.007 235.215 14.9213 238.603 13.7003C240.141 13.1458 241.8 12.6472 243.258 11.8923C243.319 11.8596 243.38 11.841 243.445 11.813C245.085 11.0861 243.664 8.67686 242.033 9.39916H242.024Z" fill="#351D0D"/>
<path d="M342.991 118.145C346.081 119.254 349.175 120.368 352.265 121.477L366.986 126.766C368.118 127.172 369.25 127.577 370.378 127.987C371.086 128.244 371.907 127.698 372.098 127.009C372.312 126.235 371.837 125.545 371.119 125.289C368.03 124.18 364.935 123.066 361.846 121.957C356.939 120.196 352.032 118.434 347.125 116.668C345.992 116.263 344.86 115.857 343.732 115.447C343.024 115.191 342.204 115.736 342.013 116.426C341.798 117.199 342.274 117.889 342.991 118.145Z" fill="#351D0D"/>
<path d="M306.806 107.865C306.806 107.865 293.772 86.0375 251.441 85.8697C208.494 85.6973 190.973 99.8637 188.014 103.186L209.678 139.73C209.678 139.73 234.297 134.548 253.692 134.585C272.961 134.623 284.238 137.973 284.238 137.973L306.806 107.87V107.865Z" fill="#A5E7FF"/>
<path d="M209.655 91.4803C205.298 96.1869 200.684 101.024 195.954 105.768C194.594 107.133 193.252 108.475 191.933 109.789L188.014 103.182C189.719 101.271 196.243 95.7721 209.65 91.4756L209.655 91.4803Z" fill="#6EADEA"/>
<path d="M277.71 89.3086C299.416 95.4971 306.807 107.865 306.807 107.865L303.899 111.742C298.493 107.231 292.995 102.599 288.013 98.3117C284.793 95.539 281.293 92.4774 277.705 89.3086H277.71Z" fill="#6EADEA"/>
<path d="M308.213 107.269C307.701 106.365 307.025 105.531 306.368 104.729C304.714 102.711 302.803 100.908 300.767 99.2817C297.458 96.6348 293.842 94.412 290.016 92.5853C284.708 90.0502 279.084 88.2189 273.343 86.956C265.574 85.2505 257.629 84.5654 249.688 84.4536C241.748 84.3417 234.241 84.7751 226.593 85.8935C220.731 86.751 214.925 88.0325 209.291 89.8685C205.125 91.2292 201.038 92.8975 197.152 94.9339C194.644 96.2527 192.212 97.7299 189.952 99.4308C188.871 100.246 187.752 101.085 186.816 102.068C186.778 102.106 186.741 102.143 186.704 102.18C186.28 102.632 186.163 103.327 186.485 103.876C187.202 105.088 187.925 106.3 188.642 107.516L193.82 116.253C195.898 119.758 197.976 123.262 200.055 126.766C201.863 129.814 203.666 132.862 205.474 135.909C206.35 137.387 207.175 138.92 208.112 140.36C208.126 140.378 208.135 140.402 208.149 140.425C208.466 140.961 209.128 141.231 209.729 141.068C211.532 140.583 213.382 140.238 215.218 139.894C220.829 138.854 226.039 138.183 231.687 137.61C240.308 136.734 248.994 136.114 257.666 136.231C261.329 136.282 264.992 136.459 268.645 136.79C270.127 136.925 271.614 137.084 273.091 137.275C273.245 137.293 273.403 137.317 273.557 137.335C273.897 137.377 273.534 137.335 273.771 137.363C274.107 137.41 274.442 137.456 274.778 137.503C275.384 137.592 275.985 137.685 276.586 137.783C279.182 138.207 281.712 138.803 284.261 139.432C284.294 139.442 284.326 139.451 284.354 139.46C284.993 139.661 285.57 139.311 285.934 138.817C288.441 135.429 290.943 132.037 293.45 128.649L305.441 112.423C306.363 111.174 307.286 109.925 308.209 108.676C308.656 108.07 308.311 107.115 307.705 106.766C306.992 106.351 306.242 106.658 305.795 107.269C303.288 110.657 300.785 114.049 298.278 117.437C294.28 122.847 290.286 128.253 286.288 133.663C285.365 134.912 284.443 136.161 283.52 137.41L285.1 136.767C283.068 136.128 280.948 135.728 278.86 135.35C272.863 134.264 266.772 133.71 260.686 133.505C251.921 133.211 243.15 133.742 234.427 134.549C228.266 135.117 222.111 135.858 216.015 136.921C214.389 137.205 212.767 137.512 211.15 137.862C210.465 138.011 209.738 138.123 209.067 138.346C209.039 138.356 209.011 138.36 208.983 138.37L210.563 139.013C209.845 137.801 209.123 136.59 208.405 135.373C206.681 132.461 204.952 129.548 203.228 126.636C201.15 123.132 199.072 119.627 196.993 116.123C195.185 113.075 193.382 110.028 191.574 106.98L189.779 103.951C189.5 103.48 189.248 102.972 188.936 102.53C188.922 102.511 188.913 102.488 188.899 102.464L188.68 104.161C189.248 103.55 189.91 103.005 190.558 102.478C190.725 102.339 190.898 102.204 191.07 102.073C191.387 101.821 190.861 102.231 191.108 102.045C191.205 101.971 191.308 101.896 191.406 101.817C191.858 101.477 192.319 101.146 192.79 100.82C193.941 100.023 195.124 99.2817 196.331 98.578C197.855 97.6926 199.421 96.8771 201.015 96.1222C201.937 95.6842 202.865 95.2694 203.801 94.8687C203.988 94.7895 203.578 94.9619 203.764 94.8827C203.815 94.864 203.862 94.8407 203.913 94.8221C204.048 94.7662 204.179 94.7102 204.314 94.6543C204.57 94.5518 204.827 94.4446 205.083 94.3468C205.609 94.1371 206.141 93.932 206.677 93.7316C211.779 91.8257 217.064 90.423 222.409 89.4072C229.334 88.0884 236.338 87.4453 243.453 87.2729C251.483 87.0772 259.582 87.3801 267.508 88.6709C273.618 89.6681 279.657 91.2292 285.398 93.5685C285.561 93.6338 285.724 93.7037 285.883 93.7689C285.943 93.7922 286.004 93.8202 286.064 93.8435C286.269 93.932 285.883 93.7643 286.088 93.8528C286.381 93.9786 286.675 94.1045 286.968 94.2349C287.537 94.4866 288.101 94.7475 288.66 95.0131C289.713 95.5164 290.748 96.0523 291.773 96.6162C293.576 97.6134 295.324 98.7039 297.001 99.9015C297.37 100.162 297.733 100.433 298.092 100.703C298.171 100.764 298.255 100.829 298.334 100.889C298.53 101.039 298.115 100.717 298.357 100.908C298.535 101.048 298.712 101.188 298.884 101.327C299.495 101.821 300.091 102.325 300.678 102.851C301.633 103.709 302.551 104.613 303.414 105.568C303.749 105.936 304.071 106.314 304.388 106.696C304.523 106.859 304.653 107.027 304.784 107.19C304.956 107.409 304.546 106.873 304.765 107.162C304.816 107.232 304.872 107.302 304.923 107.371C305.198 107.744 305.459 108.126 305.706 108.513C305.739 108.564 305.767 108.611 305.795 108.662C306.68 110.228 309.094 108.821 308.209 107.25L308.213 107.269Z" fill="#0A2233"/>
<path d="M212.209 110.777C211.826 110.912 211.477 110.861 211.169 110.623C210.862 110.385 210.629 110.068 210.475 109.672C210.321 109.276 210.284 108.894 210.363 108.531C210.442 108.167 210.671 107.916 211.058 107.78C210.512 107.971 210.107 107.995 209.841 107.846C209.576 107.697 209.492 107.482 209.594 107.203C209.697 106.923 210.018 106.69 210.564 106.499C210.098 106.662 209.706 106.676 209.389 106.536C209.072 106.396 208.858 106.182 208.746 105.893C208.634 105.604 208.653 105.306 208.802 105.003C208.951 104.7 209.254 104.467 209.72 104.304C209.301 104.449 208.947 104.444 208.644 104.276C208.345 104.113 208.136 103.875 208.015 103.558C207.893 103.242 207.893 102.929 208.005 102.612C208.117 102.296 208.387 102.063 208.802 101.918C208.401 102.058 208.043 102.007 207.73 101.76C207.418 101.513 207.185 101.187 207.027 100.781C206.873 100.376 206.831 99.9843 206.901 99.6021C206.975 99.22 207.208 98.9637 207.614 98.8239C207.101 99.001 206.728 99.0383 206.491 98.9264C206.258 98.8192 206.193 98.6468 206.295 98.4232C206.398 98.1948 206.71 97.9944 207.222 97.8174C206.882 97.2582 206.747 96.8387 206.817 96.5545C206.887 96.2702 207.073 96.1677 207.367 96.2469C207.66 96.3261 207.977 96.6477 208.322 97.2022C208.187 96.8481 208.201 96.5265 208.359 96.2283C208.518 95.9301 208.765 95.6784 209.105 95.478C209.445 95.273 209.809 95.1472 210.2 95.1006C210.592 95.054 210.946 95.0913 211.267 95.2217C211.589 95.3522 211.817 95.5945 211.952 95.944C211.766 95.4547 211.743 95.0959 211.892 94.8629C212.036 94.6299 212.246 94.56 212.516 94.6486C212.786 94.7371 213.015 95.026 213.201 95.5153C213.075 95.0913 213.145 94.7278 213.406 94.4202C213.667 94.1127 214.021 93.8983 214.459 93.7678C214.897 93.642 215.317 93.6373 215.718 93.7585C216.118 93.8796 216.384 94.1406 216.519 94.5414C216.449 93.9263 216.486 93.5069 216.636 93.2832C216.785 93.0595 216.952 93.0455 217.144 93.2366C217.335 93.4276 217.465 93.8331 217.54 94.4482C217.6 93.9962 217.768 93.6746 218.038 93.4836C218.309 93.2925 218.597 93.2226 218.9 93.2599C219.203 93.3018 219.455 93.4509 219.655 93.7119C219.851 93.9729 219.916 94.3177 219.851 94.7557C220.061 94.4575 220.317 94.2991 220.611 94.2711C220.909 94.2478 221.174 94.3177 221.421 94.4808C221.664 94.6486 221.818 94.8629 221.887 95.1332C221.953 95.4035 221.873 95.6877 221.65 95.9906C221.934 95.8928 222.209 95.9161 222.475 96.0652C222.74 96.2143 222.969 96.4427 223.164 96.7409C223.36 97.0438 223.504 97.37 223.593 97.7148C223.681 98.0597 223.686 98.3812 223.607 98.6655C223.528 98.9497 223.346 99.1548 223.066 99.2666C223.458 99.3552 223.709 99.5555 223.821 99.8678C223.933 100.18 223.942 100.52 223.854 100.874C223.765 101.233 223.593 101.522 223.337 101.741C223.08 101.96 222.763 102.025 222.386 101.932C222.68 102.226 222.838 102.501 222.866 102.762C222.894 103.018 222.819 103.232 222.652 103.405C222.484 103.577 222.26 103.656 221.985 103.638C221.71 103.624 221.421 103.479 221.118 103.204C221.3 103.54 221.314 103.852 221.156 104.15C220.997 104.449 220.75 104.7 220.415 104.901C220.079 105.106 219.725 105.222 219.357 105.245C218.989 105.269 218.686 105.162 218.448 104.919C218.723 105.357 218.737 105.786 218.49 106.201C218.243 106.615 217.908 106.881 217.479 106.998C217.656 107.231 217.777 107.487 217.833 107.78C217.889 108.069 217.856 108.349 217.735 108.619C217.61 108.89 217.381 109.081 217.05 109.197C217.637 108.987 218.076 108.959 218.36 109.109C218.644 109.258 218.728 109.481 218.616 109.78C218.504 110.078 218.155 110.329 217.563 110.539C217.698 110.889 217.684 111.196 217.521 111.462C217.358 111.727 217.13 111.914 216.827 112.021C216.524 112.128 216.221 112.138 215.923 112.044C215.624 111.951 215.41 111.727 215.275 111.378C215.452 111.835 215.461 112.175 215.312 112.403C215.163 112.627 214.953 112.701 214.688 112.622C214.422 112.543 214.198 112.273 214.026 111.816C214.166 112.184 214.203 112.473 214.142 112.683C214.077 112.897 213.942 112.99 213.737 112.972C213.527 112.948 213.29 112.767 213.019 112.422C212.749 112.077 212.479 111.527 212.209 110.772V110.777ZM213.616 100.599C213.905 100.497 214.166 100.548 214.403 100.739C214.641 100.935 214.841 101.173 215.005 101.461C215.168 101.75 215.284 101.983 215.359 102.17C215.368 101.96 215.466 101.764 215.652 101.587C215.839 101.41 216.062 101.275 216.323 101.182C216.584 101.089 216.841 101.051 217.083 101.07C216.864 100.87 216.799 100.693 216.887 100.529C216.98 100.366 217.19 100.315 217.516 100.376C217.367 100.222 217.269 100.012 217.223 99.7513C217.176 99.4903 217.223 99.2759 217.358 99.1082C217.134 99.1874 216.938 99.1594 216.771 99.0289C216.603 98.8985 216.514 98.7307 216.51 98.5257C216.379 98.6562 216.23 98.6981 216.067 98.6422C215.899 98.5863 215.797 98.4558 215.755 98.2461C215.685 98.4418 215.531 98.6096 215.293 98.7447C215.056 98.8798 214.8 98.9497 214.52 98.9637C214.245 98.973 214.035 98.8892 213.895 98.7167C214.082 99.0662 214.082 99.3179 213.886 99.4717C213.998 99.672 214.045 99.8911 214.017 100.129C213.989 100.362 213.854 100.52 213.616 100.604V100.599Z" fill="#0A2233"/>
<path d="M231.949 106.951C231.893 107.198 231.758 107.371 231.539 107.464C231.325 107.557 231.092 107.58 230.845 107.524C230.598 107.469 230.393 107.357 230.23 107.189C230.071 107.021 230.015 106.811 230.076 106.564C229.941 106.709 229.745 106.737 229.484 106.648C229.223 106.564 228.953 106.415 228.668 106.201C228.384 105.987 228.133 105.744 227.909 105.469C227.685 105.194 227.531 104.933 227.448 104.682C227.364 104.435 227.387 104.244 227.527 104.118C227.084 104.225 226.758 104.193 226.548 104.011C226.338 103.829 226.273 103.61 226.362 103.354C226.45 103.093 226.716 102.911 227.159 102.804C226.912 102.827 226.711 102.762 226.571 102.599C226.427 102.436 226.338 102.24 226.306 102.012C226.273 101.783 226.306 101.569 226.413 101.373C226.516 101.178 226.693 101.066 226.944 101.042C226.674 101.024 226.478 100.898 226.362 100.665C226.245 100.437 226.199 100.18 226.227 99.8914C226.255 99.6025 226.348 99.3601 226.497 99.1504C226.651 98.9407 226.86 98.8475 227.135 98.8708C226.832 98.7217 226.655 98.5307 226.595 98.2977C226.534 98.06 226.558 97.8456 226.665 97.6499C226.767 97.4542 226.94 97.3191 227.173 97.2398C227.406 97.1606 227.676 97.1932 227.974 97.3424C227.802 97.1513 227.736 96.9509 227.783 96.7459C227.83 96.5408 227.937 96.3684 228.105 96.2333C228.272 96.0981 228.468 96.0236 228.682 96.0189C228.897 96.0143 229.093 96.1075 229.265 96.2985C229.111 95.977 229.093 95.7253 229.209 95.5436C229.326 95.3619 229.489 95.2873 229.698 95.3153C229.908 95.3432 230.099 95.5156 230.272 95.8372C230.192 95.5855 230.216 95.3852 230.332 95.2267C230.449 95.0683 230.607 94.9611 230.812 94.9005C231.012 94.8399 231.213 94.8493 231.404 94.9285C231.595 95.0077 231.73 95.1615 231.805 95.3945C231.777 95.1568 231.879 94.9658 232.108 94.8213C232.336 94.6768 232.606 94.593 232.918 94.5603C233.231 94.5277 233.515 94.5603 233.767 94.6582C234.018 94.7561 234.158 94.9192 234.181 95.1568C234.209 94.8166 234.349 94.5697 234.587 94.4205C234.829 94.2668 235.095 94.2062 235.379 94.2341C235.663 94.2621 235.905 94.3739 236.101 94.5743C236.297 94.7747 236.381 95.0496 236.353 95.4038C236.446 95.1708 236.6 95.0357 236.819 94.9984C237.038 94.9611 237.257 94.9844 237.476 95.0683C237.69 95.1522 237.858 95.2826 237.97 95.4644C238.082 95.6461 238.082 95.8558 237.975 96.0888C238.217 95.8884 238.478 95.8279 238.753 95.9024C239.028 95.9816 239.265 96.1308 239.461 96.3498C239.661 96.5688 239.783 96.8204 239.829 97.0954C239.876 97.3703 239.778 97.6033 239.531 97.7851C239.806 97.7431 240.053 97.813 240.263 97.9994C240.472 98.1858 240.64 98.4375 240.766 98.7543C240.892 99.0712 240.962 99.3974 240.985 99.7423C241.003 100.087 240.957 100.381 240.845 100.632C240.733 100.884 240.538 101.038 240.263 101.098C240.617 101.126 240.864 101.266 241.004 101.518C241.148 101.769 241.204 102.049 241.181 102.366C241.157 102.683 241.045 102.953 240.845 103.181C240.645 103.41 240.379 103.508 240.044 103.48C240.309 103.615 240.463 103.787 240.51 103.997C240.556 104.207 240.524 104.407 240.412 104.593C240.3 104.78 240.137 104.915 239.932 104.989C239.722 105.069 239.489 105.041 239.223 104.906C239.396 105.111 239.461 105.32 239.414 105.525C239.368 105.73 239.261 105.898 239.084 106.029C238.906 106.159 238.706 106.229 238.482 106.234C238.259 106.243 238.068 106.14 237.914 105.931C238.044 106.224 238.021 106.467 237.844 106.662C237.667 106.858 237.448 106.947 237.187 106.933C236.926 106.919 236.73 106.76 236.6 106.453C236.707 106.825 236.66 107.1 236.465 107.273C236.269 107.445 236.036 107.497 235.77 107.427C235.505 107.357 235.328 107.142 235.239 106.784C235.346 107.464 235.137 107.832 234.61 107.883C234.083 107.939 233.198 107.627 231.954 106.951H231.949ZM235.458 102.813C235.276 102.813 235.132 102.701 235.034 102.473C234.936 102.24 234.871 101.965 234.843 101.639C234.815 101.313 234.829 101.019 234.885 100.758C234.941 100.497 235.048 100.334 235.206 100.269C235.043 100.283 234.871 100.19 234.689 99.9846C234.507 99.7795 234.358 99.5326 234.233 99.2483C234.111 98.964 234.046 98.7077 234.037 98.4841C233.902 98.6285 233.725 98.6938 233.506 98.6798C233.287 98.6705 233.109 98.5819 232.979 98.4188C232.979 98.5493 232.937 98.6332 232.858 98.6705C232.779 98.7124 232.685 98.7031 232.578 98.6518C232.653 98.8708 232.667 99.1271 232.625 99.43C232.583 99.7329 232.499 100.003 232.373 100.236C232.247 100.474 232.094 100.6 231.912 100.618C232.117 100.646 232.257 100.767 232.341 100.986C232.424 101.205 232.434 101.425 232.373 101.644C232.313 101.867 232.177 101.988 231.963 102.012C232.14 101.96 232.313 102.035 232.476 102.235C232.639 102.436 232.765 102.678 232.853 102.958C232.942 103.237 232.974 103.484 232.946 103.694C233.165 103.545 233.501 103.438 233.962 103.372C234.424 103.312 234.918 103.125 235.453 102.813H235.458Z" fill="#0A2233"/>
<path d="M247.834 106.443C247.736 106.676 247.578 106.821 247.349 106.877C247.126 106.933 246.897 106.919 246.664 106.825C246.431 106.732 246.254 106.592 246.128 106.401C246.003 106.21 245.989 106.001 246.082 105.768C245.928 105.884 245.732 105.879 245.495 105.754C245.257 105.628 245.019 105.441 244.782 105.19C244.544 104.938 244.339 104.658 244.171 104.356C244.003 104.053 243.896 103.773 243.859 103.517C243.817 103.26 243.878 103.083 244.031 102.981C243.584 103.018 243.276 102.93 243.099 102.72C242.922 102.51 242.904 102.287 243.034 102.049C243.165 101.811 243.453 101.676 243.896 101.639C243.649 101.625 243.472 101.527 243.36 101.345C243.248 101.163 243.197 100.958 243.206 100.73C243.211 100.502 243.286 100.301 243.421 100.124C243.556 99.9472 243.747 99.8726 243.989 99.8866C243.733 99.8214 243.565 99.6676 243.491 99.4253C243.416 99.1829 243.416 98.9266 243.491 98.6517C243.565 98.3814 243.696 98.1531 243.882 97.976C244.069 97.7989 244.288 97.7384 244.544 97.8036C244.278 97.6125 244.134 97.3982 244.12 97.1605C244.106 96.9229 244.162 96.7178 244.297 96.5407C244.432 96.3683 244.618 96.2611 244.861 96.2192C245.098 96.1772 245.355 96.2565 245.62 96.4475C245.485 96.2332 245.457 96.0281 245.536 95.8371C245.616 95.646 245.746 95.4969 245.933 95.3897C246.119 95.2825 246.319 95.2452 246.529 95.2732C246.739 95.3012 246.911 95.427 247.046 95.6413C246.953 95.3012 246.976 95.0542 247.121 94.9004C247.261 94.742 247.433 94.6954 247.633 94.7559C247.834 94.8165 247.988 95.0169 248.095 95.3571C248.062 95.1008 248.118 94.9097 248.258 94.7746C248.398 94.6395 248.57 94.5602 248.775 94.5369C248.98 94.5136 249.171 94.5509 249.344 94.6581C249.516 94.7653 249.619 94.9377 249.651 95.1753C249.665 94.9377 249.796 94.7699 250.038 94.6674C250.28 94.5649 250.555 94.523 250.868 94.5416C251.175 94.5602 251.445 94.6394 251.674 94.7699C251.902 94.9051 252.009 95.0868 251.991 95.3245C252.079 94.9983 252.252 94.7793 252.508 94.6721C252.769 94.5649 253.034 94.5462 253.305 94.6161C253.575 94.6907 253.789 94.8352 253.948 95.0588C254.106 95.2825 254.139 95.5621 254.05 95.907C254.176 95.6926 254.353 95.5854 254.572 95.5854C254.791 95.5854 255.001 95.6413 255.197 95.7578C255.392 95.8743 255.528 96.0281 255.607 96.2238C255.681 96.4196 255.649 96.6199 255.504 96.8343C255.775 96.6805 256.035 96.6619 256.287 96.7784C256.539 96.8995 256.744 97.0813 256.898 97.3236C257.051 97.5706 257.126 97.8316 257.126 98.1065C257.126 98.3814 256.991 98.5911 256.72 98.7309C256.995 98.7309 257.219 98.8428 257.392 99.0571C257.564 99.2715 257.685 99.5464 257.75 99.8726C257.82 100.199 257.834 100.53 257.797 100.87C257.76 101.205 257.662 101.49 257.513 101.713C257.359 101.942 257.145 102.063 256.87 102.077C257.205 102.161 257.419 102.338 257.517 102.603C257.615 102.869 257.625 103.153 257.545 103.456C257.471 103.759 257.317 104.006 257.084 104.197C256.851 104.388 256.576 104.444 256.259 104.36C256.492 104.533 256.613 104.724 256.623 104.938C256.632 105.152 256.567 105.343 256.427 105.507C256.287 105.67 256.11 105.777 255.896 105.819C255.681 105.861 255.458 105.795 255.225 105.623C255.355 105.851 255.383 106.061 255.304 106.257C255.225 106.448 255.089 106.597 254.898 106.695C254.703 106.793 254.498 106.83 254.283 106.797C254.064 106.769 253.901 106.639 253.785 106.411C253.864 106.714 253.799 106.947 253.594 107.11C253.389 107.273 253.16 107.324 252.913 107.268C252.666 107.212 252.503 107.026 252.424 106.704C252.466 107.086 252.373 107.343 252.154 107.482C251.935 107.618 251.702 107.632 251.455 107.524C251.208 107.413 251.073 107.18 251.049 106.811C251.035 107.492 250.77 107.813 250.252 107.781C249.73 107.748 248.929 107.305 247.839 106.448L247.834 106.443ZM251.93 102.972C251.753 102.944 251.636 102.813 251.576 102.571C251.52 102.328 251.506 102.049 251.534 101.727C251.562 101.406 251.627 101.122 251.725 100.875C251.823 100.628 251.953 100.488 252.121 100.45C251.958 100.441 251.809 100.32 251.669 100.092C251.529 99.8633 251.422 99.5977 251.352 99.2994C251.282 99.0012 251.264 98.7449 251.292 98.5259C251.138 98.6424 250.956 98.6797 250.746 98.6331C250.537 98.5865 250.383 98.4746 250.28 98.2929C250.257 98.4187 250.201 98.4933 250.117 98.5212C250.033 98.5492 249.945 98.5259 249.852 98.456C249.884 98.6797 249.856 98.936 249.763 99.2202C249.67 99.5091 249.544 99.7561 249.381 99.9658C249.223 100.176 249.05 100.278 248.873 100.264C249.064 100.325 249.181 100.464 249.223 100.688C249.264 100.912 249.237 101.126 249.143 101.336C249.045 101.546 248.896 101.639 248.682 101.629C248.864 101.611 249.018 101.709 249.139 101.932C249.264 102.151 249.344 102.408 249.381 102.697C249.418 102.986 249.409 103.228 249.344 103.428C249.581 103.316 249.926 103.265 250.383 103.279C250.84 103.293 251.352 103.191 251.921 102.972H251.93Z" fill="#0A2233"/>
<path d="M261.521 105.656C261.195 105.824 260.938 105.87 260.757 105.791C260.575 105.712 260.496 105.577 260.524 105.381C260.552 105.185 260.729 105.003 261.055 104.831C260.701 104.882 260.421 104.831 260.216 104.677C260.011 104.523 259.89 104.323 259.843 104.071C259.797 103.824 259.843 103.591 259.978 103.372C260.118 103.153 260.356 103.018 260.696 102.967C260.342 102.925 260.085 102.776 259.936 102.524C259.783 102.273 259.722 101.993 259.755 101.676C259.787 101.359 259.904 101.094 260.109 100.87C260.314 100.651 260.593 100.553 260.952 100.581C260.621 100.493 260.412 100.297 260.328 99.9939C260.244 99.691 260.249 99.3741 260.351 99.0386C260.454 98.7031 260.626 98.4328 260.868 98.2277C261.111 98.0227 261.395 97.9714 261.726 98.074C261.465 97.8689 261.33 97.6359 261.32 97.3796C261.306 97.1233 261.381 96.895 261.539 96.6993C261.698 96.5035 261.898 96.3824 262.15 96.3358C262.397 96.2892 262.658 96.3731 262.933 96.5781C262.816 96.3032 262.84 96.0562 263.003 95.8325C263.166 95.6135 263.389 95.4457 263.669 95.3339C263.953 95.222 264.228 95.1941 264.499 95.25C264.769 95.3059 264.96 95.469 265.076 95.744C265.128 95.5436 265.281 95.4178 265.538 95.3665C265.794 95.3152 266.092 95.3152 266.437 95.3665C266.782 95.4178 267.113 95.5063 267.434 95.6368C267.756 95.7626 268.017 95.9117 268.213 96.0841C268.413 96.2566 268.483 96.4383 268.432 96.6387C268.511 96.3824 268.623 96.1867 268.767 96.0608C268.912 95.935 269.065 95.8698 269.233 95.8651C269.294 95.6042 269.433 95.3898 269.643 95.2174C269.853 95.045 270.091 95.0077 270.351 95.1009C270.053 95.017 269.853 94.8353 269.75 94.5557C269.643 94.2761 269.625 93.9732 269.69 93.647C269.755 93.3254 269.895 93.0551 270.105 92.8454C270.314 92.6357 270.575 92.5565 270.892 92.6124C270.752 92.1884 270.715 91.8901 270.771 91.7177C270.827 91.5453 270.934 91.508 271.097 91.6059C271.26 91.7037 271.414 91.9694 271.568 92.3934C271.614 92.1325 271.773 91.96 272.038 91.8762C272.304 91.7969 272.598 91.783 272.914 91.8389C273.231 91.8948 273.502 92.0066 273.725 92.1697C273.949 92.3375 274.038 92.5519 273.991 92.8128C274.173 92.701 274.373 92.7103 274.583 92.8454C274.797 92.9759 274.979 93.167 275.128 93.4186C275.277 93.6656 275.366 93.9126 275.389 94.1549C275.412 94.3972 275.328 94.5743 275.147 94.6861C275.417 94.7327 275.585 94.9191 275.659 95.2407C275.734 95.5622 275.734 95.9164 275.664 96.3032C275.594 96.6899 275.473 97.0208 275.291 97.3004C275.109 97.58 274.886 97.6965 274.62 97.6499C274.858 97.6918 275.021 97.841 275.114 98.1066C275.207 98.3675 275.244 98.6798 275.23 99.0339C275.217 99.3881 275.156 99.7376 275.044 100.078C274.937 100.418 274.792 100.698 274.615 100.912C274.438 101.131 274.233 101.215 273.996 101.178C274.359 101.238 274.587 101.359 274.676 101.532C274.769 101.709 274.741 101.863 274.592 101.998C274.448 102.133 274.191 102.17 273.828 102.105C274.285 102.184 274.569 102.352 274.681 102.608C274.788 102.864 274.751 103.097 274.559 103.302C274.368 103.508 274.042 103.573 273.586 103.494C273.777 103.526 273.912 103.661 273.991 103.894C274.07 104.132 274.103 104.416 274.084 104.747C274.066 105.078 274.01 105.404 273.912 105.721C273.814 106.038 273.688 106.299 273.53 106.495C273.371 106.69 273.199 106.774 273.008 106.742C273.348 106.849 273.576 107.007 273.693 107.217C273.809 107.427 273.833 107.641 273.763 107.851C273.693 108.06 273.548 108.219 273.325 108.326C273.101 108.433 272.821 108.433 272.481 108.326C272.439 108.573 272.313 108.741 272.113 108.825C271.908 108.908 271.694 108.932 271.465 108.894C271.237 108.857 271.041 108.764 270.878 108.615C270.715 108.47 270.659 108.27 270.701 108.023C270.617 108.298 270.454 108.47 270.207 108.536C269.955 108.606 269.694 108.601 269.424 108.526C269.154 108.447 268.93 108.317 268.758 108.126C268.585 107.939 268.539 107.716 268.618 107.455C268.562 107.767 268.432 107.981 268.222 108.107C268.012 108.233 267.784 108.279 267.546 108.256C267.309 108.233 267.094 108.14 266.917 107.981C266.74 107.823 266.642 107.608 266.628 107.333C266.549 107.674 266.283 107.865 265.822 107.916C265.361 107.967 264.759 107.818 264.019 107.469C263.278 107.119 262.448 106.509 261.535 105.632L261.521 105.656ZM269.214 102.114C268.991 102.077 268.874 101.96 268.86 101.765C268.846 101.569 268.926 101.438 269.103 101.373C268.944 101.345 268.786 101.233 268.623 101.038C268.46 100.842 268.334 100.628 268.236 100.385C268.138 100.143 268.091 99.924 268.096 99.7143C267.928 99.8308 267.714 99.8867 267.448 99.8914C267.187 99.8914 266.973 99.8354 266.815 99.7096C266.829 99.9193 266.773 100.157 266.651 100.423C266.53 100.688 266.381 100.912 266.199 101.089C266.022 101.266 265.864 101.317 265.729 101.247C265.85 101.299 265.924 101.434 265.952 101.644C265.98 101.858 265.966 102.068 265.911 102.282C265.855 102.496 265.761 102.65 265.631 102.739C265.841 102.757 266.092 102.892 266.381 103.144C266.675 103.396 266.95 103.652 267.215 103.922C267.476 104.193 267.667 104.374 267.779 104.472C267.644 104.323 267.625 104.118 267.728 103.866C267.83 103.615 267.989 103.382 268.208 103.167C268.427 102.958 268.632 102.86 268.823 102.878C268.581 102.757 268.506 102.58 268.599 102.347C268.688 102.114 268.893 102.035 269.205 102.105L269.214 102.114Z" fill="#0A2233"/>
<path d="M276.042 109.636C275.851 109.584 275.73 109.44 275.678 109.207C275.627 108.974 275.622 108.704 275.669 108.387C275.711 108.07 275.799 107.772 275.935 107.478C276.065 107.189 276.219 106.956 276.387 106.788C276.554 106.616 276.736 106.56 276.927 106.611C276.648 106.532 276.475 106.355 276.405 106.071C276.335 105.786 276.349 105.488 276.443 105.171C276.536 104.854 276.685 104.594 276.899 104.388C277.109 104.183 277.356 104.118 277.635 104.197C277.342 104.114 277.141 103.983 277.034 103.806C276.927 103.629 276.899 103.447 276.955 103.261C277.011 103.074 277.128 102.935 277.319 102.837C277.505 102.739 277.743 102.734 278.041 102.818C277.747 102.734 277.566 102.543 277.496 102.236C277.426 101.928 277.444 101.597 277.547 101.238C277.649 100.88 277.817 100.586 278.041 100.362C278.265 100.139 278.526 100.069 278.814 100.148C278.507 100.059 278.297 99.9195 278.19 99.7285C278.083 99.5374 278.05 99.3417 278.106 99.1553C278.162 98.9689 278.288 98.8198 278.484 98.7173C278.679 98.6101 278.936 98.6008 279.243 98.6847C279.024 98.6241 278.875 98.4703 278.791 98.2326C278.712 97.9903 278.693 97.7154 278.735 97.4032C278.777 97.0909 278.866 96.788 278.996 96.4991C279.127 96.2102 279.294 95.9865 279.49 95.8234C279.686 95.6603 279.896 95.6137 280.115 95.6743C280.152 95.3295 280.25 95.1104 280.413 95.0172C280.576 94.924 280.72 94.9427 280.846 95.0732C280.977 95.2036 281.019 95.4413 280.981 95.7861C281.051 95.5438 281.214 95.3807 281.466 95.2968C281.718 95.213 282.007 95.1897 282.328 95.2269C282.65 95.2642 282.957 95.3528 283.26 95.4926C283.558 95.6324 283.791 95.8048 283.964 96.0052C284.131 96.2102 284.183 96.4339 284.113 96.6762C284.388 96.7554 284.556 96.9511 284.616 97.2727C284.677 97.5942 284.653 97.9344 284.556 98.3025C284.458 98.6707 284.299 98.9782 284.085 99.2252C283.871 99.4722 283.624 99.5607 283.349 99.4815C283.582 99.5467 283.74 99.7099 283.824 99.9662C283.908 100.222 283.926 100.516 283.875 100.842C283.829 101.168 283.735 101.485 283.6 101.788C283.465 102.091 283.293 102.329 283.083 102.501C282.873 102.674 282.654 102.73 282.421 102.664C282.696 102.744 282.883 102.879 282.976 103.074C283.069 103.27 283.088 103.47 283.027 103.671C282.967 103.871 282.845 104.03 282.664 104.151C282.477 104.272 282.249 104.291 281.969 104.211C282.188 104.272 282.333 104.393 282.407 104.58C282.482 104.761 282.491 104.948 282.435 105.134C282.379 105.32 282.272 105.474 282.114 105.591C281.955 105.707 281.764 105.735 281.545 105.675C281.825 105.754 281.988 105.959 282.044 106.29C282.095 106.621 282.067 106.984 281.955 107.371C281.843 107.758 281.676 108.079 281.452 108.336C281.228 108.592 280.977 108.68 280.697 108.601C280.991 108.68 281.182 108.829 281.27 109.039C281.359 109.249 281.368 109.473 281.303 109.701C281.238 109.929 281.107 110.111 280.921 110.246C280.73 110.381 280.492 110.405 280.198 110.325C280.315 110.638 280.306 110.875 280.171 111.038C280.035 111.201 279.868 111.257 279.672 111.201C279.476 111.145 279.318 110.964 279.201 110.652C279.08 111.071 278.884 111.313 278.609 111.383C278.334 111.453 278.106 111.392 277.915 111.192C277.729 110.992 277.696 110.684 277.817 110.265C277.752 110.493 277.608 110.642 277.393 110.707C277.174 110.773 276.955 110.768 276.731 110.698C276.508 110.628 276.321 110.498 276.177 110.311C276.032 110.125 275.99 109.897 276.051 109.636H276.042Z" fill="#0A2233"/>
<path d="M231.52 128.83C231.236 128.848 231.013 128.732 230.835 128.489C230.663 128.247 230.533 127.94 230.453 127.571C230.369 127.203 230.351 126.83 230.393 126.453C230.435 126.076 230.528 125.763 230.672 125.507C230.817 125.251 231.031 125.116 231.315 125.102C230.961 125.12 230.691 124.999 230.5 124.729C230.309 124.459 230.202 124.146 230.183 123.792C230.164 123.438 230.234 123.112 230.393 122.823C230.551 122.534 230.812 122.38 231.162 122.357C230.863 122.376 230.616 122.259 230.425 122.017C230.234 121.774 230.099 121.467 230.015 121.099C229.931 120.731 229.913 120.358 229.955 119.98C229.997 119.603 230.099 119.291 230.262 119.034C230.425 118.778 230.658 118.643 230.957 118.624C230.64 118.643 230.402 118.568 230.239 118.396C230.081 118.228 229.987 118.028 229.969 117.799C229.945 117.571 230.011 117.366 230.16 117.189C230.309 117.012 230.542 116.914 230.859 116.895C230.84 116.592 230.938 116.359 231.152 116.206C231.367 116.052 231.618 115.968 231.907 115.959C232.201 115.949 232.452 116.019 232.676 116.159C232.895 116.299 233.016 116.523 233.03 116.825C233.016 116.574 233.105 116.383 233.291 116.252C233.478 116.122 233.706 116.052 233.967 116.038C234.228 116.024 234.466 116.071 234.675 116.178C234.885 116.285 234.997 116.467 235.011 116.718C235.262 116.499 235.491 116.429 235.7 116.504C235.906 116.578 236.031 116.714 236.069 116.914C236.106 117.114 235.999 117.324 235.747 117.543C236.064 117.524 236.306 117.655 236.469 117.935C236.632 118.214 236.726 118.54 236.749 118.908C236.768 119.281 236.712 119.612 236.581 119.896C236.446 120.185 236.222 120.334 235.906 120.353C236.185 120.339 236.404 120.47 236.563 120.749C236.721 121.029 236.81 121.355 236.828 121.728C236.847 122.101 236.796 122.431 236.674 122.73C236.549 123.023 236.348 123.182 236.064 123.196C236.274 123.182 236.455 123.303 236.6 123.559C236.744 123.815 236.851 124.137 236.917 124.533C236.982 124.929 237.005 125.321 236.982 125.712C236.959 126.103 236.889 126.434 236.772 126.705C236.656 126.975 236.493 127.115 236.278 127.129C236.67 127.175 236.917 127.324 237.019 127.581C237.122 127.837 237.089 128.084 236.926 128.322C236.763 128.559 236.488 128.657 236.097 128.615C236.12 129.039 236.045 129.328 235.882 129.482C235.714 129.636 235.537 129.645 235.356 129.515C235.174 129.379 235.067 129.105 235.043 128.68C235.062 129.035 234.908 129.319 234.573 129.524C234.237 129.729 233.841 129.845 233.37 129.864C232.904 129.883 232.49 129.813 232.126 129.645C231.763 129.482 231.562 129.212 231.525 128.839L231.52 128.83ZM230.756 112.72C230.379 112.655 230.118 112.515 229.964 112.305C229.81 112.091 229.759 111.881 229.81 111.662C229.861 111.448 229.997 111.275 230.22 111.145C230.444 111.014 230.752 110.991 231.148 111.07C231.134 110.819 231.246 110.609 231.483 110.455C231.721 110.297 232.024 110.185 232.392 110.115C232.76 110.045 233.133 110.026 233.515 110.054C233.897 110.087 234.214 110.166 234.47 110.297C234.727 110.427 234.857 110.618 234.871 110.875C235.239 110.805 235.533 110.861 235.752 111.042C235.975 111.224 236.12 111.462 236.19 111.755C236.26 112.049 236.227 112.324 236.092 112.585C235.957 112.846 235.714 113.014 235.365 113.083C235.463 113.284 235.416 113.484 235.225 113.689C235.034 113.894 234.778 114.071 234.461 114.216C234.144 114.36 233.836 114.435 233.548 114.444C233.259 114.453 233.068 114.356 232.988 114.155C233.002 114.426 232.909 114.626 232.704 114.756C232.499 114.887 232.252 114.915 231.968 114.836C231.679 114.756 231.423 114.551 231.19 114.216C230.957 113.88 230.817 113.382 230.761 112.725L230.756 112.72Z" fill="#0A2233"/>
<path d="M239.176 128.55C238.897 128.532 238.687 128.424 238.552 128.219C238.412 128.019 238.351 127.781 238.365 127.511C238.379 127.241 238.459 127.012 238.608 126.817C238.757 126.626 238.976 126.528 239.256 126.528C238.925 126.528 238.673 126.369 238.501 126.057C238.328 125.745 238.249 125.381 238.254 124.971C238.258 124.557 238.351 124.198 238.529 123.886C238.706 123.573 238.962 123.42 239.293 123.424C238.981 123.424 238.748 123.256 238.603 122.93C238.459 122.599 238.389 122.227 238.393 121.807C238.398 121.388 238.477 121.01 238.631 120.684C238.785 120.358 239.018 120.195 239.33 120.195C238.962 120.195 238.692 120.088 238.51 119.887C238.328 119.682 238.24 119.454 238.244 119.193C238.244 118.932 238.342 118.699 238.529 118.499C238.715 118.298 238.99 118.2 239.358 118.2C239.097 118.149 238.915 118.028 238.813 117.842C238.71 117.655 238.678 117.455 238.715 117.236C238.752 117.017 238.85 116.835 239.009 116.695C239.167 116.555 239.377 116.499 239.638 116.537C239.638 116.252 239.773 116.024 240.038 115.856C240.304 115.689 240.635 115.581 241.036 115.526C241.436 115.47 241.833 115.474 242.224 115.535C242.615 115.595 242.942 115.712 243.198 115.884C243.459 116.052 243.585 116.28 243.58 116.569C243.79 116.355 244.032 116.285 244.302 116.36C244.573 116.439 244.792 116.579 244.964 116.779C245.141 116.513 245.411 116.36 245.78 116.318C246.143 116.28 246.437 116.453 246.66 116.84C246.614 116.555 246.707 116.318 246.945 116.127C247.182 115.936 247.471 115.81 247.821 115.745C248.17 115.679 248.487 115.693 248.781 115.791C249.074 115.884 249.247 116.075 249.293 116.36C249.414 116.159 249.619 116.057 249.908 116.052C250.193 116.047 250.505 116.113 250.84 116.248C251.176 116.383 251.488 116.555 251.782 116.756C252.071 116.961 252.29 117.18 252.434 117.413C252.578 117.65 252.588 117.865 252.467 118.065C252.849 117.902 253.152 117.888 253.375 118.023C253.599 118.158 253.697 118.354 253.664 118.615C253.636 118.876 253.431 119.086 253.049 119.249C253.361 119.216 253.608 119.319 253.795 119.556C253.981 119.794 254.093 120.074 254.135 120.4C254.172 120.726 254.135 121.029 254.009 121.304C253.883 121.579 253.669 121.733 253.357 121.765C253.683 121.765 253.93 121.942 254.088 122.283C254.247 122.627 254.326 123.023 254.321 123.475C254.317 123.927 254.228 124.324 254.06 124.668C253.893 125.013 253.646 125.181 253.315 125.181C253.678 125.181 253.911 125.302 254.023 125.535C254.13 125.768 254.13 126.006 254.014 126.239C253.897 126.472 253.66 126.588 253.296 126.588C253.608 126.621 253.827 126.747 253.953 126.956C254.079 127.166 254.126 127.395 254.088 127.632C254.051 127.875 253.939 128.08 253.757 128.247C253.576 128.415 253.329 128.48 253.017 128.448C253.017 128.713 252.877 128.918 252.606 129.063C252.336 129.203 252.024 129.277 251.67 129.273C251.316 129.273 251.003 129.198 250.738 129.058C250.472 128.914 250.342 128.709 250.342 128.443C250.342 128.746 250.221 128.974 249.997 129.133C249.769 129.291 249.503 129.375 249.2 129.384C248.897 129.394 248.631 129.324 248.408 129.179C248.184 129.035 248.063 128.807 248.054 128.485C247.844 128.485 247.695 128.317 247.606 127.982C247.513 127.646 247.485 127.259 247.518 126.826C247.55 126.388 247.63 126.011 247.755 125.684C247.881 125.358 248.049 125.195 248.254 125.195C247.974 125.195 247.76 125.088 247.606 124.878C247.452 124.668 247.369 124.421 247.355 124.133C247.341 123.848 247.392 123.578 247.508 123.326C247.625 123.075 247.802 122.916 248.049 122.851C247.825 122.832 247.606 122.711 247.401 122.483C247.196 122.255 247.014 121.98 246.851 121.649C246.688 121.323 246.595 120.996 246.562 120.679C246.353 120.847 246.101 120.964 245.817 121.029C245.528 121.094 245.272 121.094 245.048 121.029C245.132 121.229 245.155 121.458 245.118 121.709C245.081 121.961 244.997 122.18 244.876 122.362C244.75 122.548 244.587 122.627 244.377 122.613C244.689 122.613 244.894 122.697 244.987 122.856C245.081 123.014 245.081 123.182 244.983 123.345C244.885 123.513 244.68 123.597 244.368 123.592C244.629 123.592 244.824 123.755 244.964 124.072C245.099 124.393 245.164 124.762 245.16 125.181C245.155 125.6 245.081 125.973 244.936 126.299C244.792 126.626 244.591 126.789 244.33 126.789C244.591 126.943 244.726 127.138 244.74 127.381C244.754 127.623 244.689 127.856 244.549 128.075C244.405 128.294 244.214 128.448 243.971 128.541C243.724 128.634 243.473 128.592 243.217 128.424C243.217 128.676 243.081 128.872 242.816 129.016C242.555 129.156 242.224 129.259 241.833 129.314C241.441 129.37 241.04 129.38 240.64 129.338C240.239 129.296 239.899 129.212 239.619 129.081C239.339 128.956 239.195 128.783 239.181 128.564L239.176 128.55Z" fill="#0A2233"/>
<path d="M258.176 128.523C257.985 128.709 257.766 128.765 257.519 128.7C257.272 128.634 257.053 128.499 256.858 128.299C256.662 128.098 256.536 127.875 256.48 127.632C256.424 127.39 256.49 127.185 256.681 127.013C256.387 127.097 256.145 127.087 255.958 126.989C255.767 126.892 255.646 126.747 255.581 126.565C255.52 126.384 255.539 126.197 255.646 126.006C255.753 125.815 255.949 125.675 256.243 125.591C255.907 125.591 255.66 125.507 255.497 125.321C255.334 125.139 255.25 124.925 255.25 124.678C255.25 124.431 255.334 124.217 255.502 124.03C255.669 123.844 255.921 123.751 256.252 123.746C255.935 123.718 255.711 123.588 255.576 123.345C255.441 123.103 255.385 122.828 255.418 122.525C255.446 122.222 255.553 121.961 255.73 121.742C255.907 121.528 256.154 121.43 256.471 121.458C256.107 121.43 255.874 121.332 255.772 121.169C255.669 121.006 255.683 120.852 255.814 120.712C255.944 120.568 256.191 120.512 256.555 120.545C256.163 120.512 255.907 120.391 255.791 120.181C255.674 119.971 255.693 119.771 255.846 119.585C256 119.398 256.271 119.319 256.667 119.356C256.326 119.249 256.107 119.086 256 118.862C255.893 118.639 255.879 118.42 255.954 118.201C256.028 117.986 256.182 117.818 256.406 117.707C256.629 117.595 256.914 117.59 257.249 117.697C257.277 117.422 257.408 117.217 257.655 117.073C257.897 116.933 258.19 116.849 258.531 116.826C258.871 116.803 259.206 116.826 259.533 116.91C259.859 116.994 260.124 117.124 260.339 117.301C260.548 117.478 260.642 117.707 260.618 117.982C260.949 117.828 261.224 117.828 261.448 117.982C261.672 118.135 261.783 118.35 261.788 118.62C261.793 118.89 261.634 119.1 261.303 119.258C261.508 119.277 261.648 119.38 261.737 119.571C261.821 119.762 261.853 119.981 261.83 120.223C261.807 120.465 261.737 120.675 261.616 120.847C261.494 121.02 261.336 121.099 261.131 121.085C261.364 121.104 261.536 121.22 261.644 121.425C261.751 121.635 261.793 121.868 261.765 122.124C261.741 122.385 261.658 122.609 261.513 122.805C261.369 123 261.178 123.089 260.945 123.07C261.182 123.07 261.359 123.168 261.476 123.345C261.592 123.522 261.644 123.732 261.63 123.97C261.616 124.207 261.546 124.403 261.42 124.562C261.704 124.552 262.016 124.631 262.357 124.799C262.697 124.967 262.958 125.163 263.139 125.391C263.219 125.228 263.33 125.088 263.475 124.972C263.619 124.855 263.773 124.785 263.932 124.767C263.708 124.627 263.643 124.436 263.736 124.198C263.829 123.96 264.057 123.858 264.416 123.886C264.197 123.867 264.043 123.718 263.95 123.434C263.857 123.15 263.829 122.828 263.862 122.474C263.894 122.115 263.983 121.807 264.127 121.551C264.272 121.295 264.449 121.174 264.668 121.192C264.356 121.164 264.155 121.067 264.071 120.889C263.988 120.712 264.001 120.545 264.118 120.386C264.234 120.228 264.449 120.162 264.761 120.186C264.528 120.135 264.374 120.009 264.29 119.799C264.207 119.594 264.193 119.37 264.248 119.128C264.304 118.886 264.407 118.685 264.565 118.522C264.724 118.359 264.924 118.303 265.171 118.354C265.204 118.019 265.316 117.777 265.511 117.627C265.707 117.474 265.917 117.408 266.145 117.427C266.369 117.446 266.564 117.548 266.728 117.73C266.891 117.912 266.956 118.173 266.923 118.504C266.956 118.154 267.077 117.93 267.291 117.837C267.506 117.739 267.706 117.758 267.897 117.888C268.088 118.019 268.168 118.261 268.135 118.611C268.279 118.392 268.456 118.28 268.661 118.266C268.867 118.252 269.053 118.303 269.225 118.415C269.393 118.527 269.505 118.685 269.556 118.881C269.607 119.077 269.556 119.282 269.393 119.496C269.705 119.524 269.929 119.617 270.069 119.785C270.209 119.948 270.269 120.135 270.251 120.34C270.232 120.545 270.134 120.722 269.966 120.866C269.794 121.011 269.556 121.071 269.244 121.048C269.631 121.08 269.878 121.206 269.985 121.421C270.092 121.635 270.069 121.845 269.924 122.045C269.78 122.245 269.514 122.334 269.127 122.301C269.374 122.32 269.552 122.469 269.649 122.744C269.747 123.019 269.78 123.331 269.747 123.681C269.715 124.03 269.621 124.333 269.472 124.585C269.323 124.841 269.123 124.958 268.876 124.939C269.188 124.967 269.407 125.093 269.533 125.326C269.659 125.559 269.71 125.82 269.682 126.109C269.654 126.398 269.556 126.64 269.388 126.84C269.221 127.041 268.983 127.129 268.671 127.101C268.853 127.162 268.955 127.32 268.978 127.572C269.002 127.828 268.964 128.108 268.862 128.411C268.764 128.718 268.629 128.97 268.461 129.17C268.293 129.371 268.116 129.441 267.935 129.38C267.897 129.776 267.762 130.028 267.534 130.14C267.305 130.251 267.086 130.233 266.881 130.088C266.676 129.939 266.592 129.669 266.63 129.277C266.592 129.66 266.457 129.902 266.22 130.014C265.982 130.126 265.749 130.112 265.53 129.972C265.306 129.832 265.213 129.562 265.25 129.166C265.111 129.478 264.952 129.669 264.77 129.748C264.589 129.827 264.44 129.804 264.314 129.688C264.193 129.571 264.151 129.385 264.188 129.124C264.039 129.357 263.796 129.496 263.452 129.548C263.107 129.594 262.795 129.548 262.506 129.413C262.221 129.273 262.091 129.054 262.119 128.746C262.114 128.961 261.988 129.133 261.741 129.259C261.494 129.385 261.168 129.445 260.767 129.445C260.367 129.445 259.933 129.371 259.472 129.226C259.011 129.082 258.577 128.839 258.167 128.499L258.176 128.523Z" fill="#0A2233"/>
<path d="M296.154 105.787C295.627 106.812 296.238 108.173 297.515 108.825C298.792 109.478 300.25 109.18 300.777 108.154C301.303 107.129 300.693 105.773 299.416 105.116C298.139 104.459 296.681 104.762 296.154 105.787Z" fill="#0A2233"/>
<path d="M199.393 102.119C199.868 103.196 199.146 104.533 197.785 105.106C196.425 105.679 194.933 105.279 194.463 104.202C193.992 103.126 194.71 101.788 196.07 101.21C197.431 100.633 198.918 101.038 199.393 102.115V102.119Z" fill="#0A2233"/>
<path d="M198.518 121.416C198.518 121.416 202.218 120.861 204.459 121.141C206.701 121.421 207.805 121.63 209.431 121.295C211.067 120.955 214.157 119.943 214.157 119.943C214.157 119.943 212.502 122.422 211.286 122.847C210.07 123.271 206.225 123.466 204.305 124.445C202.381 125.419 201.463 126.37 201.463 126.37L198.527 121.416H198.518Z" fill="#0A2233"/>
<path d="M297.91 120.284C297.91 120.284 296.931 120.414 296.265 120.233C295.599 120.051 294.741 119.529 294.741 119.529C294.741 119.529 294.723 120.083 295.114 120.363C295.505 120.643 295.696 120.726 295.696 120.726C295.696 120.726 293.371 121.151 291.759 120.023C290.146 118.895 287.551 119.31 287.551 119.31C287.551 119.31 291.144 121.015 292.42 122.134C293.697 123.252 294.671 124.673 294.671 124.673L297.91 120.288V120.284Z" fill="#0A2233"/>
</svg>
