<svg width="40" height="40" viewBox="0 0 40 40" fill="none" xmlns="http://www.w3.org/2000/svg">
<rect width="40" height="40" rx="20" fill="#DE985F"/>
<g clip-path="url(#clip0_460_7446)">
<path fill-rule="evenodd" clip-rule="evenodd" d="M27.7767 12.43C28.0238 12.326 28.2943 12.2901 28.5599 12.3261C28.8256 12.3621 29.0768 12.4686 29.2873 12.6347C29.4979 12.8007 29.6601 13.0201 29.757 13.27C29.854 13.52 29.8822 13.7914 29.8387 14.056L27.5707 27.813C27.3507 29.14 25.8947 29.901 24.6777 29.24C23.6597 28.687 22.1477 27.835 20.7877 26.946C20.1077 26.501 18.0247 25.076 18.2807 24.062C18.5007 23.195 22.0007 19.937 24.0007 18C24.7857 17.239 24.4277 16.8 23.5007 17.5C21.1987 19.238 17.5027 21.881 16.2807 22.625C15.2027 23.281 14.6407 23.393 13.9687 23.281C12.7427 23.077 11.6057 22.761 10.6777 22.376C9.42365 21.856 9.48465 20.132 10.6767 19.63L27.7767 12.43Z" fill="black"/>
</g>
<defs>
<clipPath id="clip0_460_7446">
<rect width="24" height="24" fill="white" transform="translate(8 8)"/>
</clipPath>
</defs>
</svg>
