<svg width="82" height="82" viewBox="0 0 82 82" fill="none" xmlns="http://www.w3.org/2000/svg">
<path d="M41.0002 79.567C62.3002 79.567 79.5672 62.2999 79.5672 40.9999C79.5672 19.6999 62.3002 2.43286 41.0002 2.43286C19.7002 2.43286 2.43311 19.6999 2.43311 40.9999C2.43311 62.2999 19.7002 79.567 41.0002 79.567Z" fill="#351D0D"/>
<path d="M41.0003 76.5329C60.6247 76.5329 76.5334 60.6242 76.5334 40.9999C76.5334 21.3755 60.6247 5.4668 41.0003 5.4668C21.376 5.4668 5.46729 21.3755 5.46729 40.9999C5.46729 60.6242 21.376 76.5329 41.0003 76.5329Z" fill="#A5E7FF"/>
<path d="M26.9073 39.0458C26.9073 39.0458 26.6867 41.5279 29.0598 43.3008C29.5059 43.8977 29.3771 44.7669 29.3771 44.7669L25.5567 48.6947L25.2427 51.7968L25.8987 55.2137C25.8987 55.2137 26.5817 55.9804 27.6789 55.8583C27.6789 57.8919 36.6677 57.6188 37.1327 55.9804C37.1327 55.9804 40.2897 55.7377 42.9596 53.3228C45.5377 52.5897 45.8886 52.4831 45.8886 52.4831L47.7017 50.7078C47.7017 50.7078 47.2794 49.3261 49.9255 46.3176C50.1141 43.3123 49.6746 41.8518 52.0616 41.3779C52.0616 39.7379 52.1452 38.7662 52.7233 38.1405C51.8837 37.391 51.1202 36.562 51.445 34.2783L49.9845 34.7277C49.9845 34.7277 50.8956 35.8675 49.5286 36.4366C48.6233 36.3898 48.6922 36.2742 45.1105 38.6899C45.1105 38.6899 43.5369 38.6596 42.5422 37.7691C42.5422 37.7691 40.6726 38.7686 38.2274 36.6416C37.6386 36.4776 35.3631 39.1491 32.257 37.6362C30.1807 39.1073 29.4616 40.4677 26.9089 39.0474L26.9073 39.0458Z" fill="#EAC596"/>
<path d="M29.0599 39.346C29.0599 39.346 29.246 42.5612 31.542 42.471C33.838 42.38 34.8491 40.1849 34.7671 37.961C32.936 37.961 32.1841 37.5281 32.1841 37.5281C32.1841 37.5281 30.622 39.5781 29.0591 39.346H29.0599Z" fill="#F1F5F9"/>
<path d="M42.586 37.8209C42.586 37.8209 41.3552 41.451 44.2662 42.4424C47.1772 43.433 47.9972 39.6101 47.9972 39.6101L47.5241 37.0107C47.5241 37.0107 45.3748 40.1366 42.586 37.8217V37.8209Z" fill="#F1F5F9"/>
<path d="M22.6314 35.4921C22.6314 35.4921 20.6363 38.4728 19.4924 39.2149C19.2317 40.0013 19.317 40.7967 19.317 40.7967C19.317 40.7967 17.2752 41.2781 16.8332 42.4416C16.3912 43.6052 16.4371 45.6331 16.4371 45.6331C16.4371 45.6331 14.0345 47.0837 13.4474 47.7528C12.8595 48.4211 12.9005 51.182 14.1305 52.3571C13.7869 54.7326 13.6114 56.8671 14.2535 58.111C14.8955 59.355 18.3395 58.7531 18.3395 58.7531C18.3395 58.7531 18.3854 60.5333 19.367 61.2492C20.3485 61.965 21.7442 61.979 21.7442 61.979C21.7442 61.979 21.9615 64.0806 24.5855 64.5464C27.2095 65.013 27.7515 61.35 27.7515 61.35C27.7515 61.35 29.3005 60.899 29.9835 59.888C30.6666 58.8769 30.3246 57.25 30.3246 57.25C30.3246 57.25 27.9261 57.5969 27.6769 55.8175C26.3616 55.8011 25.8146 55.4321 25.5957 54.1471C25.3768 52.8622 25.2292 49.7298 25.4702 49.2124C25.7113 48.6958 29.4226 44.7655 29.4226 44.7655C29.4226 44.7655 29.4333 43.1058 28.7035 42.996C27.9737 42.8861 26.5034 39.6331 27.0061 39.1272C27.0061 39.1272 27.7482 39.8595 28.947 39.5544C30.1467 39.2494 32.1828 37.5274 32.1828 37.5274C32.1828 37.5274 33.8908 38.235 35.1069 37.9767C36.3238 37.7184 38.0048 36.5024 38.0048 36.5024C38.0048 36.5024 38.8108 37.6274 40.1228 37.9603C41.4348 38.2933 42.7296 37.6955 42.7296 37.6955C42.7296 37.6955 43.3749 38.7484 44.7624 38.7672C46.1498 38.7861 48.6984 36.2777 48.6984 36.2777H49.6414C49.6414 36.2777 50.0309 36.3392 50.3728 35.8062C50.7148 35.2732 49.9153 34.6033 49.9153 34.6033C49.9153 34.6033 50.9468 34.5934 51.5618 34.2769C51.4798 35.6283 51.3298 36.4302 51.6709 37.1428C52.0128 37.8554 52.6172 38.1063 52.6172 38.1063C52.6172 38.1063 52.0399 39.2904 51.9989 39.7135C51.9579 40.1366 52.0546 41.3281 52.0546 41.3281C52.0546 41.3281 50.7549 41.7709 50.3179 42.4712C49.8808 43.1714 50.1727 45.6306 50.0858 45.8602C49.9989 46.0898 48.0662 48.2456 47.7849 49.6101C47.5028 50.9746 48.076 53.4411 48.076 53.4411C48.076 53.4411 47.256 55.5395 47.3659 56.3316C47.4758 57.1245 48.3769 58.6457 48.3769 58.6457C48.3769 58.6457 48.1801 60.5062 49.0649 61.3303C49.9497 62.1544 51.3568 62.3045 51.3568 62.3045C51.3568 62.3045 52.1063 64.2003 52.9755 64.6595C53.8447 65.1196 55.4708 64.3545 55.4708 64.3545C55.4708 64.3545 56.9328 65.2704 58.6007 64.9695C60.2678 64.6686 62.5998 61.7248 62.5998 61.7248C62.5998 61.7248 63.966 62.8203 65.6634 62.0158C67.3616 61.2114 68.0586 58.5325 68.0586 58.5325C68.0586 58.5325 69.9585 58.0266 70.4636 56.3595C70.9696 54.6924 69.3337 52.4374 69.3337 52.4374C69.3337 52.4374 70.2996 49.7314 69.2197 48.6654C68.1398 47.5994 66.4907 47.2985 66.4907 47.2985C66.4907 47.2985 68.3997 45.1804 67.7158 43.2461C67.3378 42.0095 66.2218 41.7471 66.2218 41.7471C66.2218 41.7471 67.0377 38.3056 66.8712 37.6086C66.7048 36.9116 64.8598 36.8574 64.8598 36.8574C64.8598 36.8574 65.3239 35.4766 64.9139 34.6836C64.5039 33.8907 62.6449 34.4516 62.6449 34.4516C62.6449 34.4516 63.3559 33.1945 60.54 32.0736C59.0501 30.5295 58.6729 29.4233 58.6729 29.4233C58.6729 29.4233 60.1751 28.7206 59.6651 26.9256C59.155 25.1306 58.6729 24.7116 58.6729 24.7116C58.6729 24.7116 58.6171 23.5087 58.18 22.7707C57.743 22.0327 56.1391 21.4537 56.1391 21.4537C56.1391 21.4537 56.3121 19.4907 55.219 18.8347C54.126 18.1787 53.2978 18.7937 53.2978 18.7937C53.2978 18.7937 52.4515 16.5231 50.9485 16.0401C49.3634 15.7121 48.2671 16.4567 48.2671 16.4567C48.2671 16.4567 47.3741 14.6108 45.3511 14.1164C43.3282 13.6219 41.4602 15.1127 41.4602 15.1127C41.4602 15.1127 39.6267 14.2894 37.7055 14.6395C35.7842 14.9897 34.7641 16.3287 34.7641 16.3287C34.7641 16.3287 33.0003 16.1016 31.2947 17.1856C29.5891 18.2697 29.6112 18.7002 29.6112 18.7002C29.6112 18.7002 28.0729 18.9905 27.0906 20.1786C26.109 21.3668 25.9631 22.9699 25.9631 22.9699C25.9631 22.9699 23.5441 23.9146 23.1341 26.1138C22.7241 28.313 23.7761 28.846 23.7761 28.846C23.7761 28.846 21.5178 30.3491 21.3899 31.716C21.2612 33.083 22.6281 35.488 22.6281 35.488L22.6314 35.4921Z" fill="#7C451B"/>
<path d="M26.9502 39.1189C26.9502 39.1189 27.0945 40.7408 27.2044 41.1418C27.384 41.2336 28.5263 41.2279 29.5373 40.8868C30.7353 40.4825 31.8153 39.7207 31.8153 39.7207C31.8153 39.7207 35.6939 39.4559 37.8103 38.2784C39.9062 39.6092 40.4163 39.8659 42.2744 39.3378C44.6253 40.1266 45.8414 39.9536 46.7524 39.8085C47.6634 39.6633 48.9984 39.0287 48.9984 39.0287C48.9984 39.0287 49.4723 40.1701 49.1443 41.4395C48.8163 42.7096 47.5224 46.7112 47.3223 47.7535C47.1222 48.7957 44.3703 49.3607 43.2223 50.2536C42.0743 51.1466 39.1494 54.2446 35.4274 54.2807C31.7054 54.3167 31.4143 54.0617 30.3754 53.2056C29.6103 54.4447 28.7698 55.8255 27.6776 55.819C27.8612 56.5906 28.3713 57.2335 29.8653 57.2696C31.3594 57.3056 35.2043 57.2146 36.1154 56.9235C37.0264 56.6324 37.4675 55.86 37.4675 55.86C37.4675 55.86 39.5413 55.9034 40.8894 54.8645C42.2375 53.8256 42.7114 53.4615 43.2764 53.2245C43.8414 52.9875 45.3174 52.7874 46.0464 52.4225C46.7754 52.0585 47.8594 50.5095 47.8594 50.5095C47.8594 50.5095 47.7225 49.728 47.8594 49.1352C47.9963 48.5423 48.9992 48.1151 49.6905 46.6645C50.4375 45.0975 49.5994 43.8216 50.2185 42.9286C50.8385 42.0356 52.0225 41.4165 52.0225 41.4165C52.0225 41.4165 51.8946 40.298 52.0225 39.8093C52.1505 39.3206 52.6548 38.1094 52.6548 38.1094C52.6548 38.1094 51.7856 37.6445 51.6396 36.9336C51.4936 36.2226 51.5305 34.2366 51.5305 34.2366L50.0726 34.6925C50.0726 34.6925 50.7286 35.3583 50.4186 35.8085C50.1087 36.2595 49.3797 36.4055 49.3797 36.4055C49.3797 36.4055 48.4334 36.1324 47.5216 36.8245C46.6097 37.5166 45.9726 38.7876 44.5876 38.7564C43.2026 38.7253 42.6557 37.6634 42.6557 37.6634C42.6557 37.6634 41.2887 38.1373 40.2318 37.8274C39.1748 37.5174 38.2088 36.4383 38.2088 36.4383C38.2088 36.4383 36.2728 37.7363 35.1904 37.9643C34.108 38.1923 32.1589 37.5543 32.1589 37.5543C32.1589 37.5543 30.5795 39.1574 29.3741 39.4493C28.1679 39.7412 26.9478 39.1213 26.9478 39.1213L26.9502 39.1189Z" fill="#CDA16A"/>
<path d="M21.8932 37.1443C21.8932 37.1443 22.322 38.6088 23.6791 39.155C25.0362 39.7019 25.83 39.182 26.0342 40.467C26.2384 41.7519 25.001 42.681 25.3052 43.938C25.6094 45.1951 25.9653 45.346 25.9653 45.346C25.9653 45.346 25.7103 45.7379 25.6463 46.152C25.5881 46.5284 25.7275 46.9146 25.5914 47.191C25.3052 47.7715 23.9793 48.8859 23.9743 49.678C23.9694 50.471 24.5434 52.9408 24.4614 53.564C24.3794 54.1872 24.3884 56.976 25.7644 58.0141C27.1404 59.0531 26.3745 62.0871 24.5434 62.4971C22.7124 62.9071 22.1761 61.8714 21.7784 61.2991C21.7784 61.2991 21.3528 63.782 24.1236 64.602C26.8944 65.422 27.8374 61.322 27.8374 61.322C27.8374 61.322 29.6684 60.6931 30.0104 59.7501C30.3523 58.8071 30.3244 57.2737 30.3244 57.2737C30.3244 57.2737 29.7373 57.4672 28.7943 57.1531C27.8513 56.8391 27.6775 55.8165 27.6775 55.8165C27.6775 55.8165 26.1293 56.2921 25.8702 54.9121C25.6102 53.532 25.0034 50.753 25.4503 49.3066C25.8972 47.8601 29.3765 44.7654 29.3765 44.7654C29.3765 44.7654 29.5052 43.0081 28.5491 42.8712C26.8025 41.3542 26.9501 39.1172 26.9501 39.1172C26.9501 39.1172 27.9497 40.0775 29.3765 39.4452C30.8041 38.8122 32.1612 37.5502 32.1612 37.5502C32.1612 37.5502 34.0702 38.2374 35.0952 37.9783C36.1202 37.7191 38.2112 36.435 38.2112 36.435C38.2112 36.435 38.8393 37.5986 40.1652 37.8028C41.4912 38.007 42.6572 37.6601 42.6572 37.6601C42.6572 37.6601 43.2263 38.6982 44.4834 38.7491C45.7412 38.7991 47.1967 36.8048 48.2939 36.435C49.3902 36.0652 49.3255 36.3899 49.3255 36.3899C49.3255 36.3899 50.1176 36.4891 50.3619 35.8807C50.6063 35.2723 50.0323 34.754 50.0323 34.754L51.5313 34.235C51.5313 34.235 51.2303 35.424 51.4558 36.2489C51.6805 37.0746 52.6563 38.1078 52.6563 38.1078C52.6563 38.1078 52.1454 39.3509 52.0725 39.642C51.9987 39.9331 52.0241 41.4141 52.0241 41.4141C52.0241 41.4141 50.7031 41.7683 50.3341 42.4702C49.9651 43.1721 50.1971 45.6592 50.02 46.1241C49.8421 46.5891 47.9151 48.4341 47.765 49.7182C47.6149 51.0031 48.1201 53.4353 48.1201 53.4353C48.1201 53.4353 47.1213 54.8022 47.3673 56.2503C47.6141 57.6993 48.3931 58.6464 48.3931 58.6464C48.3931 58.6464 48.1758 60.5652 48.9614 61.2097C49.7461 61.8534 51.3591 62.2913 51.3591 62.2913C51.3591 62.2913 51.8101 63.8222 52.9441 64.6283C54.0782 65.4343 55.5542 64.3273 55.5542 64.3273C55.5542 64.3273 56.6153 65.4204 58.5201 64.9563C60.4242 64.4913 63.9321 60.3913 63.9321 60.3913C63.9321 60.3913 62.0461 61.1023 61.4082 61.5943C61.4082 61.5943 59.0277 63.4835 57.2442 63.2802C56.2873 63.1711 55.9142 62.7701 55.9142 62.7701C55.9142 62.7701 54.8662 62.9522 54.1561 62.4151C53.446 61.878 53.5362 61.3491 52.817 60.7111C52.0971 60.0732 51.569 60.2101 50.858 59.199C50.1471 58.188 50.348 57.2753 50.348 57.2753C50.348 57.2753 49.3632 56.7759 49.6461 54.744C50.1602 51.054 52.0962 50.0044 51.332 49.851C50.8761 49.76 50.275 50.0511 50.275 50.0511C50.275 50.0511 51.5509 48.5759 52.2069 46.571C52.8629 44.567 52.6571 44.1225 52.6571 44.1225C52.6571 44.1225 52.808 44.676 53.063 44.5481C53.318 44.4202 53.3426 42.9466 53.9593 41.6428C54.5759 40.339 54.357 39.1361 54.357 39.1361C54.357 39.1361 55.6329 38.8081 56.5251 37.6601C57.418 36.5121 57.71 36.3497 57.6181 36.157C57.5722 36.0611 57.0261 37.0295 54.9941 36.2489C53.6821 35.7446 54.2971 34.235 54.2971 34.235C54.2971 34.235 55.0696 34.0275 55.7256 32.959C56.3816 31.8906 56.5251 31.4601 56.5251 31.4601C56.5251 31.4601 56.9966 31.7676 57.6526 31.4601C58.3086 31.1526 59.1491 30.3391 59.1491 30.3391C59.1491 30.3391 58.803 29.8086 58.785 29.4248C58.7669 29.0411 59.4828 29.0952 59.7214 28.4121C59.96 27.7291 59.5689 26.2892 59.1679 25.8242C59.1679 25.8242 58.958 27.4372 57.8649 28.0112C56.7719 28.5852 55.8969 28.5671 55.8969 28.5671C55.8969 28.5671 57.072 27.5561 56.507 26.2621C56.507 26.2621 56.243 27.7381 53.628 28.0571C53.628 28.0571 53.546 28.7951 54.366 28.8312C55.186 28.8672 53.8469 31.1452 52.767 31.6511L52.398 30.8172C52.398 30.8172 51.865 32.5663 50.8129 33.0312C49.7609 33.4961 49.0089 33.4002 48.7769 33.7011C48.5448 34.0021 47.7191 36.5818 44.8269 36.7622C44.1709 36.8032 42.4325 35.9832 42.2087 36.1743C41.9848 36.3653 42.3128 37.0082 42.3128 37.0082C42.3128 37.0082 40.5359 36.9057 39.8668 36.6392C39.1976 36.3727 38.7598 36.1333 38.7598 36.1333C38.7598 36.1333 39.9963 35.8118 40.2768 35.5388C40.5572 35.2657 40.7622 34.5343 40.5638 34.4178C40.3653 34.3014 39.7651 35.7282 37.9463 35.2854C36.982 35.0509 36.2407 34.5285 36.2407 34.5285C36.2407 34.5285 35.8807 35.1247 35.1058 35.0976C34.3309 35.0705 33.4019 34.7245 33.4019 34.7245C33.4019 34.7245 33.6389 35.8996 34.6409 35.8364C35.6429 35.7733 35.898 35.6085 35.898 35.6085C35.898 35.6085 35.8799 35.8085 35.907 35.9184C35.934 36.0283 36.016 36.1915 36.016 36.1915C36.016 36.1915 34.923 36.5556 34.176 36.5556C33.4289 36.5556 32.463 36.0726 32.1169 36.1365C31.7709 36.2005 29.8619 37.6216 28.659 37.6355C27.4561 37.6494 26.896 36.3645 26.1851 36.2276C25.4741 36.0906 24.2909 36.9926 23.68 36.4736C23.0691 35.9545 22.8641 35.3026 22.8641 35.3026L21.894 37.141L21.8932 37.1443Z" fill="#572F10"/>
<path d="M52.6193 56.7029C52.6193 56.7029 52.247 58.4388 53.1416 59.0743C54.0371 59.7098 55.2252 59.9353 55.2252 59.9353C55.2252 59.9353 55.65 60.5159 56.1551 60.5569C56.6603 60.5979 57.6861 59.9771 57.5147 59.8943C57.3433 59.8115 55.8476 59.7984 55.6287 59.3744C55.4098 58.9505 55.2244 58.4724 55.2244 58.4724C55.2244 58.4724 54.0502 58.848 53.4352 58.3289C52.8202 57.8099 52.6185 56.7029 52.6185 56.7029H52.6193Z" fill="#572F10"/>
<path d="M67.4174 54.0789C67.4174 54.0789 68.2513 55.1999 67.6634 55.992C67.0754 56.7849 65.3403 56.3405 65.3403 56.3405C65.3403 56.3405 66.8229 55.951 67.0623 55.5681C67.3018 55.1851 67.4174 54.0781 67.4174 54.0781V54.0789Z" fill="#572F10"/>
<path d="M20.0894 45.3459C20.0894 45.3459 19.0054 45.341 18.7134 46.4259C18.4215 47.5099 18.7134 47.8109 18.7134 47.8109C18.7134 47.8109 17.8205 48.0569 17.5384 49.4008C17.2563 50.7448 18.2124 51.7378 18.2124 51.7378C18.2124 51.7378 18.0025 50.0978 18.6405 49.0499C19.2784 48.0019 19.6794 47.9199 19.6794 47.9199C19.6794 47.9199 19.2145 47.282 19.3973 46.717C19.5802 46.152 20.0894 45.3459 20.0894 45.3459Z" fill="#572F10"/>
<path d="M29.0598 31.9209C29.0598 31.9209 28.6809 33.424 30.0298 33.7069C31.3787 33.9898 32.2799 32.7409 32.2799 32.7409C32.2799 32.7409 31.4254 33.2337 30.3701 32.9402C29.3139 32.6466 29.0598 31.9209 29.0598 31.9209Z" fill="#572F10"/>
<path d="M50.3815 19.475C50.3815 19.475 50.3676 19.393 50.6005 19.3586C50.8334 19.3241 52.1855 19.6521 52.0494 21.429C51.9133 23.206 50.3274 23.1921 50.2454 23.1166C50.1634 23.0412 50.2454 22.8362 50.2454 22.8362C50.2454 22.8362 50.9268 22.1875 50.9514 21.4627C51.0039 19.9596 50.3815 19.4742 50.3815 19.4742V19.475Z" fill="#572F10"/>
<path d="M29.3774 40.9375C29.3774 40.9375 30.263 40.63 30.7582 40.3537C31.2543 40.0774 31.816 39.7198 31.816 39.7198C31.816 39.7198 32.8451 39.6264 33.3839 39.5411C33.9226 39.4558 34.768 39.2975 34.768 39.2975L34.8459 38.0224C34.8459 38.0224 33.9341 37.9839 33.3191 37.8798C32.7041 37.7756 32.1621 37.5518 32.1621 37.5518C32.1621 37.5518 30.764 38.8064 30.2646 39.0606C29.7652 39.3148 29.001 39.6091 29.001 39.6091C29.001 39.6091 29.1125 40.6013 29.3774 40.9375Z" fill="#ECE4D9"/>
<path d="M47.9268 39.6093C47.9268 39.6093 45.6972 40.1669 44.6058 39.966C43.5144 39.7659 42.2754 39.3371 42.2754 39.3371C42.2754 39.3371 42.3754 38.5441 42.4214 38.426C42.4673 38.308 42.7321 37.7799 42.7321 37.7799C42.7321 37.7799 43.6874 38.7901 44.4845 38.7491C45.2823 38.7081 47.5234 37.196 47.5234 37.196C47.5234 37.196 47.7973 38.2875 47.8243 38.6023C47.8514 38.9172 47.9268 39.6085 47.9268 39.6085V39.6093Z" fill="#ECE4D9"/>
<path d="M44.8812 38.736C44.8812 38.736 44.4761 39.9406 45.0345 40.7237C45.593 41.5068 46.3736 41.7134 46.613 41.6339C46.8525 41.5543 47.7061 40.4982 47.8611 39.4986C48.0161 38.499 47.5495 37.2969 47.5495 37.2969C47.5495 37.2969 46.7738 37.9299 46.1104 38.2784C45.447 38.6269 44.882 38.7368 44.882 38.7368L44.8812 38.736Z" fill="#351D0D"/>
<path d="M31.264 38.5169C31.264 38.5169 31.633 41.1589 32.4169 41.3049C33.2008 41.4509 33.747 41.4222 33.747 41.4222C33.747 41.4222 34.2914 40.6784 34.5333 39.924C34.7752 39.1696 34.8449 38.0224 34.8449 38.0224C34.8449 38.0224 33.8921 38.0618 33.3181 37.8798C32.7441 37.6977 32.1611 37.5518 32.1611 37.5518L31.2632 38.5177L31.264 38.5169Z" fill="#351D0D"/>
<path d="M26.0347 37.9497C24.2569 38.2465 22.4406 37.4675 22.3012 35.488L22.3701 35.6668C22.2823 35.5233 22.193 35.3806 22.1069 35.2355C21.045 33.4749 20.7112 31.6398 22.0413 29.9104C22.466 29.361 22.99 28.9133 23.5378 28.5197L23.4254 29.0395C22.3168 27.2109 22.4185 24.9658 24.2405 23.6431C24.762 23.2553 25.3459 22.992 25.9428 22.8174L26.0691 23.1077C25.5689 23.4012 25.063 23.7202 24.6489 24.1236C23.8707 24.851 23.4713 25.8112 23.5615 26.86C23.6124 27.4733 23.7854 28.09 24.0757 28.6361L24.2495 28.9641C24.1314 29.0428 23.8854 29.2068 23.7698 29.2839C22.8481 29.9112 21.9232 30.7509 21.7182 31.8956C21.4968 33.1174 22.1577 34.3367 22.9457 35.2379L22.9834 35.283L23.0146 35.4167C23.1688 36.563 23.7452 37.1887 24.8973 37.3921C25.2376 37.4511 25.6066 37.4691 25.9502 37.4372L26.033 37.9505L26.0347 37.9497Z" fill="#351D0D"/>
<path d="M26.131 23.5339C25.83 23.005 25.8989 22.3662 26.0047 21.7906C26.3794 19.9645 28.1113 18.8173 29.7841 18.2925L29.9579 18.8517C29.4233 19.0116 28.9026 19.2133 28.4196 19.4774C27.4536 19.9874 26.6156 20.7976 26.3056 21.8677C26.1343 22.413 26.1646 22.9583 26.131 23.5331V23.5339Z" fill="#351D0D"/>
<path d="M29.2065 19.9719C29.3386 18.7066 30.102 17.5545 31.1524 16.8436C32.2077 16.1015 33.5566 15.9145 34.8006 16.081L34.6218 16.1728C34.6817 16.1015 34.7325 16.0474 34.7899 15.99C36.0773 14.7452 37.9297 14.1015 39.714 14.3147C40.3315 14.377 40.9506 14.5656 41.532 14.7805L41.1736 14.8116C41.7583 14.423 42.4003 14.0958 43.0973 13.8916C45.363 13.1766 47.5819 14.2376 48.6766 16.3024L48.0854 16.6091C47.7558 16.0843 47.3195 15.612 46.8226 15.2438C45.3015 14.1146 43.5918 14.3869 42.0149 15.2364C41.8214 15.3504 41.6049 15.4676 41.4073 15.5783C41.2991 15.5341 40.9498 15.3881 40.835 15.3414C39.6312 14.8969 38.302 14.5607 37.031 14.9158C36.2003 15.1487 35.4254 15.6718 34.9695 16.4098L34.9252 16.4926L34.7907 16.5017C33.8428 16.5714 32.9515 16.7895 32.088 17.1486C31.3787 17.4643 30.7539 17.9235 30.2381 18.5189C29.8617 18.9502 29.5354 19.4463 29.2877 19.9908L29.2074 19.9735L29.2065 19.9719Z" fill="#351D0D"/>
<path d="M47.3166 17.3699C48.0267 16.2367 49.4576 15.3814 50.8172 15.7258C52.0636 16.103 53.1509 17.4577 53.5945 18.6417L53.1025 18.5204C53.1501 18.4851 53.2017 18.4433 53.2526 18.413C54.0676 17.8955 55.1156 18.2768 55.7536 18.8959C56.4333 19.5651 56.6096 20.5663 56.4481 21.4699L56.2808 21.1542C56.9737 21.4379 57.6543 21.77 58.1849 22.3342C58.7785 22.9426 58.9114 23.7495 58.9991 24.5326C59.0696 24.8122 59.2279 25.0615 59.3583 25.3288C59.5206 25.6437 59.6871 25.9709 59.8281 26.3186C60.1775 27.1353 60.3341 28.207 59.7486 28.9762C59.0467 29.9725 57.738 30.2726 56.599 30.2538C56.5375 30.262 56.4456 30.2554 56.3956 30.2693C56.3891 30.2693 56.3891 30.2718 56.4128 30.2595C56.421 30.2562 56.444 30.2398 56.4555 30.23C56.4858 30.2078 56.508 30.1775 56.5309 30.1357C56.5358 30.125 56.5334 30.1299 56.5334 30.1299L56.5317 30.1332L56.5285 30.1398C55.984 31.2673 55.1648 32.3398 54.0078 32.904C53.6609 33.077 53.2813 33.1869 52.8959 33.241L52.8098 32.5973C53.1238 32.5498 53.4321 32.4596 53.7183 32.3136C54.6047 31.8618 55.2419 31.0459 55.7027 30.1677C55.765 30.0529 55.8249 29.9143 55.8823 29.7962C56.0102 29.5494 56.3087 29.5322 56.5383 29.5002C56.9516 29.4444 57.4001 29.4059 57.7839 29.3124C58.64 29.1246 59.4575 28.4744 59.346 27.5199C59.2705 26.6917 58.8015 25.934 58.4612 25.1698C58.38 24.9828 58.2972 24.7712 58.2824 24.558C58.2021 23.3887 57.9676 22.7967 56.9581 22.1563C56.6187 21.939 56.2341 21.7545 55.8585 21.5872C55.9364 21.1542 55.9446 20.686 55.8372 20.258C55.7486 19.9021 55.5789 19.579 55.3247 19.3404C54.8532 18.9009 54.0447 18.5688 53.4969 19.037L53.1902 19.2961L53.0049 18.9164L52.5047 18.1407C52.0144 17.4109 51.4715 16.6098 50.6392 16.2646C50.0824 16.0555 49.465 16.1563 48.9131 16.3498C48.3399 16.568 47.8053 16.9419 47.383 17.4183L47.3149 17.3724L47.3166 17.3699Z" fill="#351D0D"/>
<path d="M42.2298 36.791C42.3373 36.7877 42.3758 36.818 42.3996 36.8566C42.4808 36.9656 42.5669 37.0722 42.6546 37.1755C43.9322 38.654 44.8801 38.6958 46.384 37.4765C46.8095 37.1427 47.2031 36.7213 47.6468 36.3842C48.1584 36.0029 48.8604 35.72 49.5065 35.9414C49.5533 35.9595 49.582 35.9693 49.632 35.9956L49.3417 35.9636C49.9042 35.8127 50.1199 35.5437 49.8181 35.0042C49.8001 34.9706 49.4704 34.4646 49.4401 34.4171C49.9887 34.2973 50.6201 34.1399 51.1285 33.9324C51.4712 33.7955 51.8017 33.6208 52.0715 33.3765C52.3388 33.1436 52.5192 32.841 52.6135 32.4851C52.7094 32.1284 52.7111 31.7217 52.6438 31.2961C52.7193 31.3757 52.7824 31.4659 52.839 31.561C53.2785 32.2924 53.1531 33.2346 52.5889 33.8685C51.9682 34.5761 51.0735 34.9205 50.1896 35.0854L50.4339 34.4433C50.4487 34.463 50.4758 34.5056 50.4889 34.5261C50.9128 35.1854 50.9005 36.0464 50.174 36.4826C49.9657 36.6138 49.7558 36.6868 49.5516 36.7418L49.2613 36.7098C49.2786 36.7188 49.2712 36.7155 49.2736 36.7163C49.1703 36.6942 49.0678 36.6967 48.9588 36.7139C48.5061 36.7918 48.1158 37.1067 47.7755 37.4125C47.5033 37.6536 47.2195 37.9078 46.9145 38.1431C46.2741 38.6269 45.5508 39.073 44.7005 39.105C43.8288 39.1526 43.0187 38.613 42.607 37.8857C42.4324 37.5929 42.3028 37.2854 42.1905 36.9673C42.1724 36.9246 42.1675 36.8738 42.2323 36.7885L42.2298 36.791Z" fill="#351D0D"/>
<path d="M42.859 37.8757C41.2567 38.7007 39.1903 38.2308 38.0579 36.8442L38.1456 36.9098C38.0948 36.8721 38.0546 36.8663 37.9808 36.8762C37.8923 36.8901 37.7783 36.9319 37.6643 36.986C36.9427 37.3501 36.2154 37.8019 35.4159 38.0045C34.3335 38.2997 33.1461 38.2472 32.0809 37.8938L32.4614 37.8093C31.9735 38.3423 31.4315 38.8056 30.8263 39.2033C30.2023 39.6068 29.5004 39.9167 28.737 39.9692C27.0412 40.0881 26.1343 38.7835 25.7645 37.2944L25.7481 37.2312C25.7415 37.2107 25.7399 37.1886 25.7702 37.155L25.8153 37.1386C25.8866 37.1468 25.8842 37.196 25.9112 37.2394C26.1146 37.6461 26.3631 38.0471 26.6706 38.38C27.1781 38.9434 27.9079 39.2656 28.6574 39.141C29.8661 38.9409 31.0305 38.1357 31.9538 37.3222L32.1441 37.1509L32.3351 37.2378C36.5204 39.2148 37.0468 35.6798 38.4736 36.3407C39.6626 37.4616 41.0739 37.8536 42.6606 37.4354L42.859 37.8757Z" fill="#351D0D"/>
<path d="M17.0289 45.0541C17.0633 45.1533 17.0207 45.182 16.9895 45.2197C16.6361 45.6322 16.2515 46.0167 15.83 46.3611C15.3864 46.7252 14.8567 47.0409 14.418 47.3763C13.9801 47.7117 13.6972 48.0544 13.6251 48.5678C13.3774 49.8092 13.5939 51.127 14.3155 52.1807L14.3663 52.2307C14.3606 52.4816 14.3221 52.7325 14.286 52.9777C14.1958 53.5829 14.1261 54.2143 14.1146 54.8219C14.0957 55.6624 14.1531 56.5308 14.4729 57.304C14.5041 57.3655 14.5648 57.4935 14.5959 57.555L14.6681 57.6714C14.7042 57.746 14.7739 57.828 14.8239 57.8928C14.8337 57.9026 14.8747 57.9609 14.8854 57.9723C14.9207 58.0051 14.951 58.0445 14.9904 58.074C15.7751 58.7177 17.3134 58.5078 18.2654 58.3102L18.7845 58.1855L18.7804 58.7169C18.7952 59.4787 19.0174 60.2823 19.5446 60.8473C20.0637 61.3819 20.8156 61.6459 21.5487 61.7271C21.5979 61.7329 21.6529 61.737 21.693 61.7394L21.7119 62.2396C21.47 62.2577 21.2396 62.2454 21.001 62.2183C19.0822 62.0092 18.008 60.5726 17.9555 58.7013L18.4704 59.108C18.0317 59.2146 17.6037 59.2852 17.1543 59.3147C16.1613 59.3762 14.9518 59.272 14.2778 58.4233C13.4922 57.4041 13.4135 56.0166 13.5053 54.7883C13.5447 54.2545 13.6308 53.7223 13.7267 53.1983C13.7891 52.8957 13.8506 52.5595 13.9563 52.2701C13.9563 52.2701 14.0014 52.448 14.0014 52.4464C12.9313 51.4509 12.5869 49.8215 12.8977 48.4152C13.1232 47.0196 14.5328 46.6129 15.5881 46.0102C16.0383 45.7445 16.468 45.4337 16.8665 45.0934C16.9149 45.0508 16.9469 45.0245 17.0297 45.0508L17.0289 45.0541Z" fill="#351D0D"/>
<path d="M21.8433 61.2253C21.9236 62.598 22.6362 63.4869 23.9154 63.9215C24.5025 64.1322 25.1684 64.279 25.7588 64.0117C26.7862 63.5254 27.2192 62.3118 27.4037 61.2565L27.4365 61.0146L27.6849 60.9408C28.5796 60.6529 29.4766 60.0658 29.771 59.1327C29.9391 58.6185 29.9514 58.0486 29.7866 57.5328C29.7841 57.5255 29.78 57.5132 29.78 57.5156L30.6624 57.1934C30.6738 57.2344 30.6861 57.2655 30.6952 57.3032C30.933 58.2413 30.778 59.2811 30.2392 60.0888C29.6907 60.8981 28.7993 61.4123 27.8752 61.6771L28.1564 61.3614C28.0794 61.8034 27.9547 62.2134 27.785 62.625C27.2413 63.9616 26.1802 64.9604 24.6542 64.844C23.2783 64.762 21.9162 63.9297 21.6686 62.4988C21.5964 62.0584 21.6178 61.6156 21.7629 61.2097L21.8433 61.2253Z" fill="#351D0D"/>
<path d="M16.125 45.7282C15.8717 44.6121 15.8963 43.3157 16.4481 42.2891C16.9992 41.3666 18.0258 40.8483 19.0311 40.5868C19.1016 40.5712 19.1664 40.5572 19.2451 40.5425L19.4034 41.1485C18.9508 41.3338 18.4916 41.5576 18.0832 41.825C17.7388 42.0537 17.4297 42.3038 17.1976 42.64C16.781 43.3108 16.6613 44.1267 16.5826 44.9024C16.5564 45.155 16.5473 45.4157 16.5408 45.6691L16.1242 45.729L16.125 45.7282Z" fill="#351D0D"/>
<path d="M19.5798 41.501C19.224 40.9548 18.9796 40.348 19.0206 39.665C19.0493 39.3075 19.2404 38.9467 19.4691 38.681C19.9169 38.1472 20.4884 37.7946 20.8787 37.2583C21.3683 36.5924 21.8447 35.9061 22.3801 35.2698L22.9369 35.6314C22.5122 36.4678 22.0136 37.2665 21.4175 37.9914C20.9025 38.5768 20.2055 38.8638 19.7217 39.446C19.333 40.0069 19.4814 40.8417 19.579 41.5001L19.5798 41.501Z" fill="#351D0D"/>
<path d="M54.565 38.0144C54.5248 38.2325 54.401 38.244 54.2435 38.3022C54.1148 38.3481 53.9844 38.3891 53.8499 38.4195C52.916 38.6679 52.2116 38.2653 51.6368 37.5429C50.9627 36.6392 50.9611 35.2551 51.0775 34.1833L51.8647 34.2908C51.7852 35.1698 51.704 36.3678 52.1706 37.1395C52.6954 37.9103 53.2079 38.13 54.1238 37.8988C54.2493 37.884 54.3436 37.7815 54.5379 37.9447L54.5642 38.016L54.565 38.0144Z" fill="#351D0D"/>
<path d="M52.8423 38.2694C52.6168 38.7081 52.4159 39.2312 52.3848 39.7199C52.3593 40.239 52.3946 40.79 52.4528 41.3075L52.4987 41.5166L52.2101 41.683C51.7181 41.8659 51.1892 42.052 50.7784 42.3858C50.6537 42.4891 50.5455 42.608 50.4594 42.7408C50.4159 42.8286 50.3741 42.9138 50.3454 43.009C50.1084 43.8347 50.2306 44.7162 50.2897 45.5674C50.3069 45.8552 50.3216 46.1561 50.2027 46.4316C49.8116 47.2713 49.1859 47.9667 48.7005 48.7186C48.5111 49.0032 48.343 49.2647 48.2405 49.564C48.0691 50.2774 48.1478 51.0343 48.211 51.7633C48.2602 52.2061 48.3225 52.6489 48.434 53.0753L48.4463 53.1212L48.4594 53.1589L48.4849 53.2327C48.4906 53.2401 48.4939 53.2483 48.4947 53.2581L47.8092 53.7255C47.7075 53.5632 47.6501 53.3721 47.6017 53.1893C47.491 52.7456 47.4303 52.2987 47.3844 51.8502C47.3155 51.0138 47.2384 50.1421 47.4615 49.318C47.591 48.9335 47.8133 48.5768 48.0248 48.2652C48.4447 47.651 48.9112 47.1122 49.3713 46.5563C49.4959 46.4087 49.6189 46.2603 49.7198 46.0995C49.8034 45.9331 49.828 45.7379 49.8575 45.5526C49.9895 44.6859 49.91 43.8093 50.0527 42.9368C50.0781 42.7867 50.1281 42.6195 50.1986 42.4809C50.4069 42.0545 50.7767 41.7166 51.1523 41.446C51.4114 41.2706 51.6664 41.0967 51.9649 40.9934L51.7222 41.3681C51.7124 41.0779 51.714 40.8007 51.723 40.5162C51.7329 40.2333 51.7525 39.9495 51.7919 39.6617C51.8878 39.0557 52.1355 38.5441 52.4512 38.0332L52.8415 38.271L52.8423 38.2694Z" fill="#351D0D"/>
<path d="M49.173 52.5481C48.4818 53.364 47.8922 54.3283 47.82 55.4115C47.8102 55.5206 47.8167 55.6887 47.8126 55.7986C47.861 56.7588 48.1029 57.7362 48.6671 58.5275L48.2702 59.0171C48.239 58.9949 48.1825 58.9466 48.1529 58.9228C47.3206 58.1799 46.9697 57.022 46.9738 55.9347C46.9451 54.4817 47.8889 53.1426 49.173 52.5489V52.5481Z" fill="#351D0D"/>
<path d="M48.8416 57.3878C48.6653 58.462 48.5119 59.701 49.058 60.6522C49.4885 61.3385 50.2421 61.7428 51.0129 61.9453C51.1909 61.9921 51.3975 62.0208 51.5771 62.0462C51.8395 62.9359 52.4455 64.4422 53.4565 64.6448C54.06 64.7358 54.6586 64.4988 55.1859 64.2225C55.2818 64.1708 55.3843 64.1134 55.4655 64.0618L55.8345 64.1011C55.8345 64.1011 55.8427 64.1052 55.8493 64.1093C56.6685 64.58 57.6697 64.6095 58.5905 64.4955C59.0866 64.4152 59.4991 64.1028 59.8919 63.7903C60.5028 63.2844 61.0817 62.694 61.6942 62.1692C62.324 61.6346 62.9718 61.1245 63.6672 60.6752L63.7213 60.7367C63.194 61.3713 62.6512 61.9814 62.1198 62.5964C61.258 63.5419 60.4347 64.7801 59.1531 65.2581C59.0055 65.3032 58.8382 65.3418 58.6857 65.359C58.6545 65.3623 58.6307 65.3623 58.6028 65.3647L58.2781 65.382C57.5106 65.3984 56.7209 65.2967 56.0141 64.9711C55.7993 64.867 55.5877 64.7432 55.4098 64.5825L55.7788 64.6218C55.2064 64.8777 54.5832 65.0359 53.9534 65.0236C52.9293 65.0179 52.4455 64.3545 51.9092 63.5911C51.6394 63.1926 51.3868 62.7916 51.1564 62.3553L51.3885 62.5111C49.7583 62.6235 48.2315 61.5722 48.1429 59.8666C48.1011 59.127 48.2741 58.4054 48.5693 57.7371C48.6275 57.6067 48.6915 57.4796 48.7653 57.355L48.8416 57.3853V57.3878Z" fill="#351D0D"/>
<path d="M62.7727 61.4195C63.6812 61.8107 64.7284 61.8927 65.6517 61.5138C66.8751 61.0538 67.4655 59.7262 67.8263 58.5126C67.9288 58.1707 68.0133 57.8214 68.0871 57.4639C68.2306 58.561 68.0986 59.7361 67.6041 60.7537C67.3023 61.3761 66.7841 61.9476 66.142 62.2527C65.2942 62.7078 64.2552 62.7799 63.3409 62.5019C63.0023 62.3962 62.6734 62.2535 62.3799 62.0501L62.7727 61.4187V61.4195Z" fill="#351D0D"/>
<path d="M67.9017 58.3833C68.7562 57.9347 69.7066 57.3345 69.9936 56.3611C70.0961 55.9602 70.0493 55.5452 69.9911 55.1205C69.841 54.1939 69.6024 53.2558 69.2064 52.3948C69.4966 51.8208 69.6229 51.1386 69.5795 50.4949C69.5393 50.0307 69.4138 49.5428 69.1662 49.1484C68.6414 48.4063 67.6943 48.0021 66.8243 47.7684C66.5619 47.6913 66.0141 47.6158 65.7427 47.5683C66.1937 46.9992 66.6676 46.3506 66.9948 45.7036C67.4401 44.8401 67.7566 43.834 67.3466 42.9099C67.1539 42.4687 66.7767 42.0833 66.3093 41.8324L66.3314 41.7537C66.6152 41.7979 66.8792 41.9078 67.1227 42.0603C68.5151 42.9623 68.3978 44.7483 67.7697 46.08C67.5245 46.6048 67.2252 47.0919 66.8513 47.5355L66.602 46.8368C66.7669 46.8746 66.9038 46.9156 67.0596 46.9648C68.2945 47.3592 69.668 48.171 69.8337 49.5814C69.9386 50.2489 69.8861 50.9393 69.7426 51.5969C69.6795 51.8889 69.6024 52.1685 69.4925 52.4588L69.4893 52.3317C69.6516 52.6121 69.8066 52.8884 69.9567 53.1738C70.4872 54.1963 71.0013 55.3517 70.7102 56.5596C70.4101 57.5936 69.4794 58.2791 68.5208 58.6506C68.3642 58.7104 68.2133 58.7605 68.0411 58.8023L67.9009 58.3841L67.9017 58.3833Z" fill="#351D0D"/>
<path d="M66.1188 43.0319C66.0278 42.9868 66.0262 42.945 66.0278 42.904C66.0106 42.289 66.018 41.674 66.0704 41.0598C66.1139 40.4973 66.2935 39.7011 66.4148 39.1418C66.5116 38.6375 66.6141 38.1619 66.4444 37.688C66.2836 37.223 65.2767 37.0795 64.8273 36.9975L64.5789 37.0131L64.6576 36.7548C64.8011 36.2464 65.0307 35.2829 64.6272 34.8762C64.15 34.5121 63.3185 34.6532 62.738 34.7762L62.2952 34.8926L62.3107 34.3514C62.3345 33.9094 62.0196 33.5347 61.7203 33.2436C61.339 32.8779 60.8626 32.7647 60.3591 32.508C60.0631 32.3621 59.7646 32.1284 59.5842 31.8389C59.4194 31.5765 59.2981 31.3248 59.1726 31.0509C58.9373 30.5228 58.7388 29.9882 58.5806 29.4363L58.8249 29.333C59.1136 29.816 59.3973 30.3031 59.6958 30.7688C59.7999 30.9345 59.9262 31.1165 60.0393 31.2764C60.369 31.7996 60.92 31.8479 61.4809 32.0874C62.3624 32.4392 63.2824 33.4527 63.0381 34.4744L62.6117 34.0488C62.7978 34.0226 63.0061 34.0004 63.198 33.9931C64.8946 33.9242 65.6695 34.6072 65.1791 36.3292C65.1266 36.517 65.0676 36.6958 64.9921 36.8819L64.8224 36.6392C65.5866 36.5588 66.7125 36.6072 67.0848 37.4157C67.4907 38.335 67.1258 39.3501 66.8822 40.2456C66.6969 40.8565 66.5288 41.4649 66.3886 42.0889C66.3386 42.3194 66.2861 42.5662 66.2451 42.799L66.2238 42.9179C66.2197 42.9581 66.2123 42.9967 66.1172 43.0319H66.1188Z" fill="#351D0D"/>
<path d="M67.3632 53.8059C67.5149 53.8781 67.5362 53.9609 67.546 54.0412C67.5608 54.1216 67.5731 54.2036 67.5838 54.2856C67.6436 54.7202 67.6346 55.1942 67.4124 55.5943C67.1672 56.0166 66.6449 56.2323 66.2496 56.3241C66.0881 56.3619 65.9249 56.3865 65.7634 56.4061C65.5731 56.4283 65.4239 56.4627 65.2451 56.3209C65.332 56.1167 65.4624 56.0675 65.6281 55.9797C65.8593 55.851 66.1693 55.6648 66.3972 55.5287C66.503 55.4598 66.6104 55.3967 66.699 55.3147C66.9015 55.1433 67.0475 54.5882 67.1369 54.2635C67.1557 54.1897 67.1729 54.1151 67.1885 54.0396C67.1992 53.9634 67.2189 53.8904 67.3632 53.8067V53.8059Z" fill="#351D0D"/>
<path d="M57.7691 59.7371C57.6715 59.9306 57.4961 59.9454 57.3247 60.0176C56.7966 60.2103 56.1636 60.2152 55.6896 59.8577C55.2091 59.5108 55.0033 58.9056 55.0385 58.3382C55.0443 58.134 55.0566 57.9626 55.2542 57.8232C55.437 57.9594 55.4731 58.0799 55.5387 58.2587C55.6429 58.5145 55.7913 58.7531 55.9528 58.9589C56.271 59.3706 56.7646 59.5838 57.2804 59.6502C57.4567 59.6805 57.5904 59.6338 57.7691 59.7371Z" fill="#351D0D"/>
<path d="M55.4092 58.7381C54.4826 59.2072 53.2936 59.0432 52.8237 58.028C52.6589 57.6992 52.5859 57.349 52.5482 56.9923C52.5425 56.8177 52.4629 56.6561 52.6482 56.4446C52.9024 56.5553 52.909 56.7127 53.0008 56.8529C53.0402 56.9235 53.0804 56.994 53.1222 57.0612C53.2386 57.2547 53.3625 57.454 53.4928 57.636C53.6109 57.8017 53.7101 57.928 53.8627 58.0313C54.2661 58.2732 54.7819 58.2568 55.2427 58.242L55.41 58.7389L55.4092 58.7381Z" fill="#351D0D"/>
<path d="M54.188 35.137C54.261 35.1722 54.2593 35.2214 54.2979 35.2764C54.5094 35.6355 54.8965 35.8438 55.2663 36.0004C55.5123 36.0898 55.7657 36.1677 56.0199 36.2333C56.1519 36.2669 56.2577 36.239 56.3479 36.394C56.3044 36.5047 56.2651 36.5646 56.1732 36.5859C55.9961 36.6261 55.8026 36.6523 55.6197 36.6531C54.9555 36.6474 54.3069 36.1923 54.1691 35.5248C54.147 35.4313 54.1322 35.3379 54.1298 35.2427C54.1273 35.2124 54.1355 35.1763 54.1888 35.1378L54.188 35.137Z" fill="#351D0D"/>
<path d="M20.2401 45.3051C20.2499 45.4109 20.227 45.4642 20.1925 45.5109C20.09 45.6437 20.0007 45.7922 19.9293 45.9422C19.6743 46.4793 19.6636 47.1329 19.9572 47.6495C19.9605 47.6552 19.9695 47.6675 19.9638 47.6577L19.8727 48.1874C19.7834 48.2891 19.6235 48.4498 19.53 48.5523C19.17 48.9278 18.8494 49.3567 18.6501 49.8413C18.4566 50.3128 18.4115 50.8852 18.4427 51.4092C18.4476 51.5018 18.4558 51.5937 18.4673 51.6855C18.4787 51.7593 18.4886 51.8339 18.4459 51.9069C18.4328 51.9348 18.4115 51.9659 18.3803 52.0012C18.3344 51.9914 18.2992 51.9758 18.2721 51.9586C18.1942 51.9159 18.1647 51.8388 18.1409 51.7626C18.0417 51.4756 17.972 51.1837 17.9334 50.8803C17.8851 50.467 17.899 50.0324 18.0146 49.6298C18.0687 49.4313 18.1499 49.2239 18.2344 49.0369C18.496 48.4973 18.8305 47.966 19.3258 47.6117C19.3496 47.5945 19.3701 47.5822 19.4029 47.5609L19.3119 48.0906C18.9125 47.3502 19.0798 46.3653 19.6087 45.7331C19.7342 45.5855 19.8695 45.4543 20.0212 45.3379C20.0704 45.3002 20.136 45.2739 20.2376 45.3043L20.2401 45.3051Z" fill="#351D0D"/>
<path d="M29.0279 31.761C29.0828 31.77 29.091 31.7848 29.1017 31.8036C29.3707 32.203 29.8659 32.3169 30.2956 32.4563C30.9738 32.6515 31.8643 33.0377 32.4399 32.4408C32.4539 32.4252 32.4678 32.4088 32.4809 32.3924C32.4973 32.3768 32.494 32.3547 32.5441 32.3522C32.576 32.3899 32.5547 32.4071 32.5506 32.4309C32.171 33.3944 30.8745 33.5223 30.0381 33.141C29.6732 32.9803 29.3584 32.6818 29.1665 32.3292C29.0837 32.1759 29.0189 32.016 28.9926 31.8446C28.9885 31.8217 28.9844 31.7954 29.0279 31.761Z" fill="#351D0D"/>
<path d="M33.3467 34.6311C33.4295 34.5688 33.4664 34.577 33.5033 34.5901C33.7616 34.6655 34.0387 34.7065 34.3028 34.7197C34.6554 34.7328 34.9965 34.7311 35.3384 34.6541C35.755 34.5639 36.1716 34.3876 36.4791 34.0743C36.552 34.0112 36.5619 33.9382 36.6816 33.9202C36.7201 33.9825 36.7087 34.0268 36.6923 34.0653C36.6488 34.1867 36.5947 34.3023 36.5332 34.4171C36.2806 34.9042 35.8075 35.2945 35.2507 35.3732C34.6931 35.4708 34.1708 35.2879 33.7165 35.0042C33.6074 34.937 33.5025 34.8656 33.4016 34.7877C33.3672 34.7648 33.3335 34.7336 33.3467 34.6311Z" fill="#351D0D"/>
<path d="M36.267 34.49C36.2949 34.4761 36.3466 34.4465 36.3736 34.431C36.4015 34.4162 36.4441 34.3834 36.4687 34.3768C36.5885 34.4777 36.7262 34.5482 36.8738 34.604C37.2904 34.7581 37.7504 34.8295 38.194 34.8746C38.9804 34.9443 39.8775 34.9008 40.5015 34.3506C40.5228 34.3358 40.5253 34.3104 40.5901 34.3244C40.6261 34.3793 40.5991 34.3949 40.5884 34.4187C40.5753 34.4416 40.5622 34.4646 40.5474 34.4867C40.0612 35.2469 39.1936 35.661 38.3006 35.6314C37.6946 35.6216 37.0772 35.5043 36.5696 35.1468C36.3794 35.0132 36.2014 34.841 36.0858 34.6343C36.0858 34.6319 36.0817 34.631 36.0858 34.6253C36.1334 34.5728 36.2055 34.5277 36.267 34.49Z" fill="#351D0D"/>
<path d="M53.5493 28.012C53.5879 27.9423 53.6305 27.9275 53.674 27.9169L53.8035 27.8767C54.1799 27.757 54.5497 27.5864 54.9048 27.4183C55.2238 27.2674 55.5304 27.1313 55.7896 26.8976C56.0183 26.6844 56.2225 26.4253 56.3619 26.1309C56.4185 26.0145 56.4644 25.8898 56.4997 25.7644C56.5161 25.7217 56.4997 25.6807 56.6079 25.6389C56.7145 25.6873 56.6916 25.7365 56.6998 25.7832C56.7678 26.5376 56.5177 27.3995 55.8084 27.7816C55.1803 28.1325 54.512 28.1202 53.8339 28.0965L53.6953 28.0899C53.6371 28.094 53.5583 28.053 53.551 28.012H53.5493Z" fill="#351D0D"/>
<path d="M50.1882 19.352C50.2259 19.3127 50.2447 19.3381 50.2693 19.3389C50.8064 19.4824 51.1943 19.9851 51.314 20.5172C51.5707 21.6095 50.9639 22.5221 50.084 23.1043C50.0291 23.1437 49.9905 23.1601 49.9102 23.124C49.8856 23.0404 49.8954 23.0092 49.9389 22.9576C50.4014 22.2983 50.6219 21.4906 50.6843 20.7034C50.7195 20.2393 50.6531 19.6981 50.2349 19.4152C50.2111 19.3988 50.1914 19.3955 50.1882 19.352Z" fill="#351D0D"/>
<path d="M29.0879 39.491C29.0879 39.491 29.2921 42.2659 31.2879 42.3938C33.2838 42.5218 34.7188 40.8317 34.7959 37.9199" stroke="#351D0D" stroke-width="0.82" stroke-miterlimit="10"/>
<path d="M31.2871 38.3679C31.4142 42.2957 33.7742 41.2789 33.7742 41.2789" stroke="#351D0D" stroke-width="0.82" stroke-miterlimit="10"/>
<path d="M42.6399 37.702C42.6399 37.702 42.102 39.1771 42.266 40.3161C42.43 41.4551 43.7149 42.2931 44.808 42.4211C45.901 42.549 47.632 41.264 47.842 39.8061C48.0519 38.3481 47.4689 37.1025 47.4689 37.1025" stroke="#351D0D" stroke-width="0.82" stroke-miterlimit="10"/>
<path d="M44.9542 38.5671C44.9542 38.5671 44.6443 39.5052 44.8812 40.2801C45.1182 41.055 46.0153 41.8791 46.8788 41.5126" stroke="#351D0D" stroke-width="0.82" stroke-miterlimit="10"/>
<path d="M27.1566 38.8794C27.1591 39.4058 27.2427 39.9446 27.3682 40.4579C27.4977 40.9729 27.6683 41.4763 27.9783 41.9126C28.2136 42.2332 28.4924 42.5268 28.8015 42.7777C28.9081 42.872 29.0295 42.9384 29.1386 43.0278C29.2673 43.1352 29.3673 43.2762 29.4428 43.4206C29.642 43.8191 29.6798 44.2889 29.756 44.7194L29.1213 44.7309C29.1484 44.2299 29.2279 43.5436 28.7761 43.2254C28.371 42.9023 28.0266 42.5177 27.706 42.111C27.3518 41.6666 27.0943 41.1328 26.9295 40.5899C26.7663 40.0471 26.6736 39.4919 26.6917 38.9212L27.1566 38.8794Z" fill="#351D0D"/>
<path d="M47.7292 50.485C47.762 50.5178 47.8062 50.5596 47.8169 50.5768L47.8431 50.6096L47.8546 50.6317C47.8587 50.644 47.8546 50.6498 47.8505 50.6555L47.8399 50.6744C47.6357 51.0483 47.3864 51.3952 47.1019 51.7125C46.7812 52.0676 46.4893 52.4062 46.0777 52.6834C45.871 52.8187 45.6136 52.8949 45.3782 52.9581C44.9994 53.0565 44.4434 53.159 44.0564 53.2377C43.7407 53.309 43.4348 53.3804 43.1437 53.5083C42.8575 53.6403 42.6263 53.8437 42.3811 54.0511C41.6136 54.7416 40.8428 55.4435 39.8801 55.8961C39.5308 56.0396 39.1757 56.1143 38.819 56.1815C37.9056 56.3439 36.997 56.4177 36.0811 56.4209C35.1577 56.4275 34.2385 56.3603 33.3275 56.1717C32.8675 56.0749 32.4091 55.938 31.9573 55.7207C30.8331 55.186 30.0606 54.0577 29.8663 52.8408C29.8261 52.5981 29.804 52.3652 29.8105 52.1159L30.332 52.0848C30.3985 52.5095 30.4067 52.9523 30.3337 53.391C30.264 53.8338 30.109 54.2668 29.8761 54.653C29.289 55.6239 28.1189 56.343 26.9348 56.184C26.5592 56.1315 26.1541 55.947 25.8958 55.6419C25.0365 54.5964 24.9299 52.2586 24.9258 50.9335C24.9315 50.5137 24.9455 50.0946 24.9938 49.6666C25.0365 49.3296 25.0857 48.9368 25.2587 48.6211C25.5523 48.1406 25.9475 47.756 26.3116 47.3698C26.8889 46.7777 27.4834 46.2193 28.0713 45.6601C28.574 45.1722 29.0832 44.6826 29.6022 44.2079C29.6719 44.1341 29.7507 44.0693 29.9434 44.0816C30.018 44.2603 29.9745 44.3596 29.922 44.4489C29.7761 44.7269 29.617 45 29.4391 45.2591C28.724 46.2628 27.7671 47.0902 26.9299 47.9725C26.6511 48.2595 26.3657 48.5498 26.1336 48.8384C26.0582 48.9417 25.9934 49.0114 25.9549 49.1139C25.7761 49.6896 25.7622 50.3292 25.745 50.9417C25.7368 51.733 25.7827 52.5341 25.9032 53.3148C26.0074 53.8953 26.1697 54.9015 26.647 55.2524C27.1808 55.5944 27.9991 55.3861 28.5207 55.0294C29.4702 54.407 29.8638 53.2393 29.813 52.1348L30.3345 52.1036C30.4936 53.0876 30.988 54.0634 31.8269 54.6301C33.0208 55.3968 34.678 55.432 36.0778 55.4542C36.9388 55.4468 37.8145 55.3959 38.6624 55.2639C39.0642 55.1934 39.4439 55.1385 39.7998 54.9433C40.5443 54.5366 41.243 53.9634 41.9998 53.5288C42.2975 53.3517 42.6042 53.1442 42.933 53.0114C43.2585 52.881 43.6087 52.8023 43.9424 52.7244C44.4803 52.5907 45.1503 52.4825 45.6537 52.257C46.0391 52.0389 46.3671 51.6666 46.6738 51.3328C46.9469 51.018 47.2306 50.7039 47.5324 50.4136C47.5373 50.4087 47.5414 50.403 47.5537 50.4038L47.5775 50.4087L47.616 50.4251C47.6349 50.4308 47.6873 50.4612 47.7283 50.4833L47.7292 50.485Z" fill="#351D0D"/>
<path d="M37.7035 56.1242C37.2738 56.5342 36.8162 56.9409 36.2521 57.1951C36.0774 57.2705 35.8609 57.2976 35.6781 57.332C34.6072 57.5034 33.528 57.5362 32.4481 57.5797C31.5412 57.6133 30.6457 57.7494 29.7077 57.6838C29.1894 57.66 28.6941 57.4936 28.2554 57.2033C27.8061 56.922 27.4297 56.3948 27.4346 55.8446L27.9766 55.7904C28.1103 56.3554 28.6622 56.6301 29.1861 56.7761C29.3649 56.8318 29.5601 56.8384 29.7503 56.8466C30.6129 56.8482 31.5199 56.9081 32.412 56.8564C33.4674 56.7876 34.526 56.6867 35.578 56.5957C35.7084 56.576 35.8732 56.5661 35.9938 56.5268C36.4686 56.3447 36.8958 56.0102 37.3164 55.6953L37.7027 56.1242H37.7035Z" fill="#351D0D"/>
<path d="M29.666 46.3127C29.1035 46.3143 28.6828 46.3102 28.208 46.2823C26.9231 46.2077 26.2646 46.8145 26.3196 47.7026C26.3745 48.5906 26.8181 50.3946 28.3696 51.7821C28.9198 52.2741 29.2527 52.4397 29.6676 52.4413C30.0826 52.4405 30.5754 52.2749 31.1256 51.7821C32.677 50.3946 33.1207 48.5906 33.1756 47.7026C33.2305 46.8145 32.5721 46.2077 31.2871 46.2823C30.8124 46.3094 30.2285 46.3143 29.6652 46.3127H29.666Z" fill="#351D0D"/>
<path d="M35.4462 46.9219C35.3806 46.9219 35.3314 46.9219 35.2757 46.9178C35.1256 46.908 35.0485 46.9883 35.0551 47.1048C35.0616 47.2212 35.1133 47.4598 35.2945 47.6427C35.3585 47.7075 35.3978 47.7296 35.4462 47.7296C35.4946 47.7296 35.552 47.7075 35.6168 47.6427C35.798 47.4598 35.8497 47.222 35.8562 47.1048C35.8628 46.9875 35.7857 46.908 35.6356 46.9178C35.5799 46.9211 35.5118 46.9219 35.4462 46.9219Z" fill="#351D0D"/>
<path d="M35.0453 48.69C34.9797 48.69 34.9305 48.69 34.8748 48.6859C34.7247 48.676 34.6476 48.7564 34.6542 48.8728C34.6608 48.9893 34.7124 49.2279 34.8936 49.4108C34.9576 49.4755 34.997 49.4977 35.0453 49.4977C35.0937 49.4977 35.1511 49.4755 35.2159 49.4108C35.3971 49.2279 35.4488 48.9901 35.4553 48.8728C35.4619 48.7556 35.3848 48.676 35.2348 48.6859C35.179 48.6892 35.1109 48.69 35.0453 48.69Z" fill="#351D0D"/>
<path d="M37.0854 47.9822C37.0198 47.9822 36.9706 47.9822 36.9148 47.9781C36.7648 47.9683 36.6877 48.0486 36.6942 48.1651C36.7008 48.2815 36.7525 48.5201 36.9337 48.703C36.9976 48.7678 37.037 48.7899 37.0854 48.7899C37.1338 48.7899 37.1912 48.7678 37.2559 48.703C37.4372 48.5201 37.4888 48.2823 37.4954 48.1651C37.5019 48.0478 37.4249 47.9683 37.2748 47.9781C37.219 47.9814 37.151 47.9822 37.0854 47.9822Z" fill="#351D0D"/>
<path d="M27.525 47.7241C27.4544 47.6782 27.019 47.738 26.896 48.23C26.773 48.722 27.347 49.36 27.543 49.255C27.6398 49.2034 27.543 48.8147 27.5315 48.458C27.52 48.1013 27.5922 47.7634 27.525 47.7249V47.7241Z" fill="#CBC2C2"/>
</svg>
