<svg width="97" height="97" viewBox="0 0 97 97" fill="none" xmlns="http://www.w3.org/2000/svg">
<path d="M43.8168 84.4871C39.3082 84.4871 35.8473 82.6965 33.8064 79.3112C30.5899 73.9742 32.8015 69.0505 35.143 63.8358C36.4215 60.9879 37.7426 58.043 38.4294 54.712C40.319 45.5435 46.7792 43.2446 47.2525 43.0875C47.4446 43.0118 48.9287 42.4531 51.2101 42.4531C53.6584 42.4531 57.422 43.1185 61.4553 46.2866C64.1286 48.3876 67.0405 49.7844 69.8535 51.1346C75.0062 53.6062 79.8736 55.9419 80.8611 62.0937C81.3209 64.961 80.6613 67.6304 78.9017 70.0283C75.7822 74.2749 70.3036 76.2518 68.6604 76.4904L68.6391 76.4943H68.6177C68.5557 76.4982 62.2953 76.859 59.9033 77.7223C57.5268 78.5992 52.5022 82.3725 52.4517 82.4113L52.4343 82.4249L52.4168 82.4365C51.3401 83.1078 47.8229 84.491 43.8148 84.491L43.8168 84.4871Z" fill="#F92233"/>
<path d="M51.2102 42.938C53.7516 42.938 57.3232 43.6577 61.1547 46.6686C68.9535 52.7971 78.9289 53.1152 80.382 62.1711C81.837 71.2271 71.1476 75.6386 68.5887 76.0111C68.5887 76.0111 62.2158 76.3681 59.7326 77.2663C59.7385 77.2643 59.7462 77.2605 59.752 77.2585L59.7132 77.2721C59.7132 77.2721 59.7268 77.2682 59.7326 77.2643C57.2572 78.18 52.1589 82.0193 52.1589 82.0193C51.0278 82.7235 47.5591 84 43.813 84C40.2861 84 36.5147 82.8671 34.2178 79.0588C29.4842 71.2038 36.8988 64.5224 38.9009 54.8088C40.7847 45.6637 47.4156 43.5413 47.4156 43.5413C47.4156 43.5413 48.8783 42.936 51.2063 42.936M51.2063 41.966C48.89 41.966 47.3419 42.5267 47.08 42.6295C46.8006 42.7246 45.107 43.3493 43.2213 45.0177C41.3841 46.6414 38.9766 49.6252 37.9503 54.611C37.2752 57.8896 35.9638 60.8093 34.695 63.6339C32.301 68.967 30.039 74.0032 33.3855 79.5574C35.5195 83.0979 39.124 84.9681 43.8111 84.9681C47.565 84.9681 51.251 83.7245 52.6691 82.8399L52.706 82.8166L52.7409 82.7914C52.7913 82.7545 57.75 79.0317 60.0644 78.1723C62.3866 77.3342 68.579 76.9772 68.6411 76.9733H68.6838L68.7265 76.9656C70.422 76.7192 76.0771 74.6841 79.2878 70.3114C81.1289 67.8049 81.8176 65.0132 81.3365 62.0121C80.3083 55.6101 75.3302 53.2219 70.0593 50.6922C67.2676 49.3536 64.3828 47.9684 61.7502 45.9004C57.6083 42.645 53.7303 41.9622 51.2063 41.9622V41.966Z" fill="#FFDA00"/>
<path d="M27.094 68.2414C22.407 68.2414 18.2166 65.6574 15.8808 61.3273C12.513 55.0824 14.0126 49.7164 14.5519 48.2206L14.5655 48.1838C14.8507 47.3418 16.036 44.6394 19.4815 44.6394C19.7802 44.6394 20.0906 44.6607 20.4068 44.7015C24.7156 45.2641 32.0488 51.4701 33.9383 56.1494C35.8861 60.9781 34.53 65.9833 30.8499 67.545C29.779 67.9989 28.4792 68.2395 27.094 68.2395V68.2414Z" fill="#F92233"/>
<path d="M19.4817 45.1243C19.7533 45.1243 20.0405 45.1437 20.345 45.1825C24.4695 45.7199 31.6979 51.891 33.4885 56.3317C35.2811 60.7723 34.2413 65.5816 30.662 67.1006C29.6881 67.5138 28.4523 67.7563 27.0943 67.7563C23.4607 67.7563 18.9579 66.0103 16.3079 61.0983C12.6685 54.3509 14.913 48.6667 15.0236 48.3408C15.1264 48.0401 16.0654 45.1243 19.4798 45.1243M19.4798 44.1543C15.7123 44.1543 14.4164 47.107 14.1099 48.013L14.106 48.0265L14.0963 48.0556C13.5395 49.5999 11.9914 55.1347 15.4543 61.5561C17.8754 66.0453 22.2268 68.7244 27.0943 68.7244C28.5454 68.7244 29.9092 68.4703 31.0403 67.9911C33.0307 67.1472 34.4488 65.3895 35.0308 63.0441C35.574 60.8538 35.3471 58.3415 34.3887 55.967C32.4506 51.1655 24.9079 44.7984 20.4711 44.2203C20.1336 44.1756 19.8018 44.1543 19.4837 44.1543H19.4798Z" fill="#FFDA00"/>
<path d="M33.7229 48.4281C30.6519 48.4281 27.6759 47.0565 25.3479 44.5675C23.0005 42.0591 21.5824 38.6816 21.3554 35.0596C21.0547 30.2717 22.1314 26.0541 24.5564 22.5233C24.5972 22.4651 24.6301 22.4147 24.6573 22.3739C25.1481 21.6367 27.9262 18.8936 30.7877 18.8936C31.3794 18.8936 31.942 19.01 32.4619 19.2408C36.5844 21.0722 40.6739 29.548 41.7914 34.819C42.5829 38.5574 41.6983 42.8661 39.5895 45.5433C38.1519 47.3669 36.2197 48.3641 34.0003 48.4262C33.9072 48.4281 33.8141 48.4301 33.721 48.4301L33.7229 48.4281Z" fill="#F92233"/>
<path d="M30.7881 19.3768C31.2847 19.3768 31.7833 19.4679 32.2664 19.6833C36.1697 21.4176 40.1971 29.6277 41.3184 34.9181C42.4397 40.2104 40.1001 47.7706 33.9891 47.9394C33.8999 47.9413 33.8126 47.9433 33.7233 47.9433C27.719 47.9433 22.3006 42.3619 21.8389 35.0287C21.3713 27.5868 24.5277 23.4411 25.0612 22.6418C25.5094 21.9686 28.1497 19.3787 30.7881 19.3787M30.7881 18.4087C27.688 18.4087 24.7954 21.2896 24.2522 22.1063C24.227 22.1451 24.194 22.1936 24.1552 22.2499C21.6682 25.8719 20.5624 30.1942 20.8708 35.0927C21.1056 38.8272 22.5683 42.3114 24.9933 44.9033C27.4144 47.4932 30.5146 48.9191 33.7233 48.9191C33.8203 48.9191 33.9173 48.9191 34.0163 48.9152C36.385 48.8492 38.4433 47.79 39.974 45.8481C42.1662 43.0642 43.0896 38.5944 42.269 34.7241C41.1555 29.4667 37.0912 20.7716 32.6621 18.8025C32.0801 18.5445 31.4496 18.4126 30.79 18.4126L30.7881 18.4087Z" fill="#FFDA00"/>
<path d="M73.751 51.472C70.4239 51.472 67.155 48.6008 65.8009 44.4919C64.2236 39.6982 65.8203 30.2232 68.7477 27.0144C69.902 25.7496 71.227 25.1074 72.684 25.1074C73.6191 25.1074 74.5988 25.3868 75.4427 25.8951L75.4892 25.9222C76.8666 26.7157 81.4741 29.8468 82.933 36.792C84.5626 44.5501 79.4682 49.9782 75.5125 51.2024C74.9383 51.3808 74.3446 51.4701 73.749 51.4701L73.751 51.472Z" fill="#F92233"/>
<path d="M72.6862 25.5926C74.0345 25.5926 75.0452 26.2211 75.2101 26.3201C75.505 26.4966 80.8865 29.3911 82.4618 36.8931C84.0371 44.3951 79.0862 49.5904 75.373 50.7408C74.8337 50.9076 74.2905 50.9872 73.7512 50.9872C70.5774 50.9872 67.5432 48.2285 66.2628 44.3407C64.7651 39.7914 66.3055 30.4135 69.1088 27.3425C70.3465 25.9864 71.6211 25.5945 72.6862 25.5945M72.6862 24.6245C71.1089 24.6245 69.6229 25.3384 68.391 26.6887C65.3762 29.9944 63.7233 39.7274 65.3413 44.6453C66.0261 46.725 67.1707 48.5234 68.649 49.8465C70.1952 51.2277 71.9586 51.9591 73.7493 51.9591C74.3933 51.9591 75.0355 51.8621 75.6563 51.6701C79.7827 50.3916 85.1002 44.7501 83.4085 36.6971C81.9089 29.556 77.154 26.3259 75.7319 25.5072L75.7028 25.4917L75.6912 25.4859C74.7716 24.933 73.7027 24.6284 72.6823 24.6284L72.6862 24.6245Z" fill="#FFDA00"/>
<path d="M56.2932 40.2103C52.0058 40.2103 47.8872 36.7164 46.0345 33.2671C43.4853 28.5199 41.1398 19.4058 43.107 15.3453C44.3467 12.7884 47.7863 12.5129 49.2083 12.5129C50.122 12.5129 50.7933 12.6138 51.0901 12.6992C51.1367 12.7128 51.1949 12.7283 51.2647 12.7477C55.395 13.8806 58.9413 16.4065 61.8008 20.2594C66.3113 26.3316 65.8477 34.5727 60.7668 38.6312C59.4554 39.6788 57.9499 40.2103 56.2932 40.2103Z" fill="#F92233"/>
<path d="M49.2078 12.9981C50.0246 12.9981 50.6764 13.0854 50.9558 13.1669C51.8792 13.4346 56.9659 14.5637 61.4124 20.5505C65.8588 26.5374 65.24 34.439 60.4656 38.255C59.1736 39.287 57.7438 39.7274 56.2946 39.7274C52.3836 39.7274 48.329 36.5167 46.4627 33.0383C43.9039 28.2717 41.6826 19.402 43.545 15.5589C44.5596 13.4676 47.3202 13 49.2098 13M49.2098 12.03C47.6966 12.03 44.03 12.3327 42.672 15.136C40.5574 19.499 43.0658 28.7625 45.6091 33.4981C47.5297 37.0754 51.8171 40.6974 56.2966 40.6974C58.0659 40.6974 59.6722 40.1309 61.0729 39.0135C66.3555 34.794 66.8579 26.2522 62.1942 19.9724C59.2667 16.0322 55.635 13.4443 51.3961 12.2822C51.3302 12.2648 51.2739 12.2492 51.2293 12.2357C50.7909 12.1076 50.0168 12.03 49.2117 12.03H49.2098Z" fill="#FFDA00"/>
</svg>
